<?xml version="1.0" encoding="utf-8"?>
<!-- Generator: Adobe Illustrator 16.0.0, SVG Export Plug-In . SVG Version: 6.00 Build 0)  -->
<!DOCTYPE svg PUBLIC "-//W3C//DTD SVG 1.1//EN" "http://www.w3.org/Graphics/SVG/1.1/DTD/svg11.dtd">
<svg version="1.1" id="Слой_1" xmlns="http://www.w3.org/2000/svg" xmlns:xlink="http://www.w3.org/1999/xlink" x="0px" y="0px"
	 width="21px" height="18px" viewBox="0 0 21 18" enable-background="new 0 0 21 18" xml:space="preserve">
<path fill="#D6D6D6" d="M20.5439453,0h-1.3671875c-0.5332031,0-0.7851563,0.2822266-0.8867188,0.4604492
	c-0.1005859,0.1782227-0.1259766,0.331543-0.1259766,0.4350586l-0.2021484,1.050293H0.9912109
	c-0.3535156,0-0.6064453,0.1015625-0.7851563,0.3071289C0.0537109,2.4331055-0.0214844,2.6640625,0.0048828,2.9194336v0.0537109
	l1.8994141,7.9594727c0.1015625,0.4365234,0.4814453,0.9238281,1.1660156,0.9238281h12.8417969l-0.3544922,1.7646484
	c-0.1777344-0.0527344-0.3544922-0.0761719-0.5322266-0.0761719c-1.0654297,0-1.9501953,0.7412109-2.1523438,1.765625H6.03125
	c-0.2265625-0.9980469-1.0878906-1.765625-2.1523438-1.765625c-1.2148438,0-2.2050781,0.9970703-2.2050781,2.2265625
	C1.6738281,16.9990234,2.6621094,18,3.8789063,18c1.0644531,0,1.9511719-0.7412109,2.1523438-1.765625h6.8125
	C13.0722656,17.2333984,13.9326172,18,14.9980469,18c1.2138672,0,2.2050781-0.9980469,2.2050781-2.2285156
	c0-0.6914063-0.3056641-1.3046875-0.7871094-1.7148438l0.7080078-3.5078125l1.6982422-8.0888672l0.2539063-1.4833984V0.9248047
	c0,0,0.0517578-0.0253906,0.1005859-0.0253906h1.3671875C20.7978516,0.8994141,21,0.6938477,21,0.4375
	C21.0019531,0.206543,20.7978516,0,20.5439453,0L20.5439453,0z M3.8789063,17.0996094
	c-0.7080078,0-1.2666016-0.5634766-1.2666016-1.2783203c0-0.7167969,0.5585938-1.28125,1.2666016-1.28125
	s1.2666016,0.5644531,1.2666016,1.28125C5.1455078,16.5097656,4.5869141,17.0996094,3.8789063,17.0996094L3.8789063,17.0996094z
	 M14.9980469,17.0996094c-0.7089844,0-1.2675781-0.5634766-1.2675781-1.2783203c0-0.7167969,0.5585938-1.28125,1.2675781-1.28125
	c0.7080078,0,1.265625,0.5644531,1.265625,1.28125C16.2636719,16.5097656,15.7080078,17.0996094,14.9980469,17.0996094
	L14.9980469,17.0996094z M0.9912109,2.8945313h16.7929688L17.4296875,4.609375H1.3710938L0.9658203,2.9194336V2.8945313H0.9912109z
	 M2.8144531,10.7236328L1.5732422,5.5527344H17.203125l-1.1142578,5.2998047
	c-0.0263672,0.0761719-0.1279297,0.0761719-0.1533203,0.0761719H3.09375
	C2.9394531,10.9306641,2.8652344,10.8525391,2.8144531,10.7236328L2.8144531,10.7236328z M2.8144531,10.7236328"/>
</svg>
