<?xml version="1.0" encoding="utf-8"?>
<!-- Generator: Adobe Illustrator 16.0.0, SVG Export Plug-In . SVG Version: 6.00 Build 0)  -->
<!DOCTYPE svg PUBLIC "-//W3C//DTD SVG 1.1//EN" "http://www.w3.org/Graphics/SVG/1.1/DTD/svg11.dtd">
<svg version="1.1" id="Слой_1" xmlns="http://www.w3.org/2000/svg" xmlns:xlink="http://www.w3.org/1999/xlink" x="0px" y="0px"
	 width="63px" height="63px" viewBox="0 0 63 63" enable-background="new 0 0 63 63" xml:space="preserve">
<g>
	<circle fill="none" stroke="#00E2BC" stroke-miterlimit="10" cx="31.4707031" cy="31.7890625" r="30.5"/>
	<g>
		<path fill="#00E2BC" d="M42.875,21.2929688H22.0664063c-1.1132813,0-2.015625,0.9023438-2.015625,2.0161133v12.9604492
			c0,1.1132813,0.9023438,2.015625,2.015625,2.015625H42.875c1.1132813,0,2.015625-0.9023438,2.015625-2.015625V23.3066406
			C44.8876953,22.1953125,43.9863281,21.2929688,42.875,21.2929688L42.875,21.2929688z M22.0664063,22.4042969H42.875
			c0.4814453,0,0.9023438,0.390625,0.9023438,0.9023438v1.6845703H21.1640625v-1.6845703
			C21.1640625,22.8271484,21.5566406,22.4042969,22.0664063,22.4042969L22.0664063,22.4042969z M43.7773438,27.7275391H21.1640625
			v-1.6533203h22.6132813V27.7275391z M42.875,37.1679688H22.0664063c-0.4824219,0-0.9023438-0.3886719-0.9023438-0.9013672
			v-7.4257813h22.6132813v7.3984375C43.7773438,36.7480469,43.3847656,37.1679688,42.875,37.1679688L42.875,37.1679688z
			 M41.1904297,31.8173828c0,0.3007813-0.2392578,0.5400391-0.5400391,0.5400391h-5.7744141
			c-0.3007813,0-0.5400391-0.2392578-0.5400391-0.5400391s0.2392578-0.5400391,0.5400391-0.5400391h5.7431641
			C40.9199219,31.2470703,41.1904297,31.4858398,41.1904297,31.8173828L41.1904297,31.8173828z M41.1904297,34.7636719
			c0,0.2998047-0.2392578,0.5400391-0.5400391,0.5400391h-3.3076172c-0.3007813,0-0.5400391-0.2402344-0.5400391-0.5400391
			c0-0.3017578,0.2392578-0.5410156,0.5400391-0.5410156h3.3076172
			C40.9199219,34.2226563,41.1904297,34.4619141,41.1904297,34.7636719L41.1904297,34.7636719z M41.1904297,34.7636719"/>
	</g>
</g>
<g>
</g>
<g>
</g>
<g>
</g>
<g>
</g>
<g>
</g>
<g>
</g>
</svg>
