<?xml version="1.0" encoding="utf-8"?>
<!-- Generator: Adobe Illustrator 16.0.0, SVG Export Plug-In . SVG Version: 6.00 Build 0)  -->
<!DOCTYPE svg PUBLIC "-//W3C//DTD SVG 1.1//EN" "http://www.w3.org/Graphics/SVG/1.1/DTD/svg11.dtd">
<svg version="1.1" id="Слой_1" xmlns="http://www.w3.org/2000/svg" xmlns:xlink="http://www.w3.org/1999/xlink" x="0px" y="0px"
	 width="24px" height="18px" viewBox="0 0 24 18" enable-background="new 0 0 24 18" xml:space="preserve">
<g>
	<path d="M5.2,13.801h13.601c0.549,0,1.019-0.196,1.412-0.588C20.604,12.82,20.8,12.35,20.8,11.8V3.001
		c0-0.551-0.196-1.022-0.587-1.413C19.819,1.195,19.35,1,18.801,1H5.2C4.65,1,4.18,1.195,3.787,1.588
		C3.396,1.979,3.201,2.45,3.201,3.001V11.8c0,0.55,0.195,1.021,0.586,1.413C4.18,13.604,4.65,13.801,5.2,13.801L5.2,13.801z
		 M4.8,3.001c0-0.109,0.04-0.203,0.119-0.281C4.999,2.641,5.092,2.601,5.2,2.601h13.599c0.109,0,0.203,0.039,0.282,0.119
		C19.159,2.798,19.2,2.892,19.2,3.001V11.8c0,0.108-0.041,0.203-0.119,0.281c-0.079,0.079-0.173,0.119-0.282,0.119H5.2
		c-0.108,0-0.202-0.04-0.282-0.119C4.839,12.003,4.8,11.908,4.8,11.8V3.001z M4.8,3.001"/>
	<path d="M22,14.6H0v1.2c0,0.334,0.196,0.617,0.587,0.851S1.45,17,2,17h20c0.55,0,1.021-0.116,1.412-0.35S24,16.134,24,15.8v-1.2H22
		z M13.001,15.8h-2c-0.133,0-0.2-0.066-0.2-0.199s0.067-0.2,0.2-0.2h2c0.132,0,0.2,0.067,0.2,0.2
		C13.199,15.733,13.133,15.8,13.001,15.8L13.001,15.8z M13.001,15.8"/>
</g>
</svg>
