<?xml version="1.0" encoding="utf-8"?>
<!-- Generator: Adobe Illustrator 16.0.0, SVG Export Plug-In . SVG Version: 6.00 Build 0)  -->
<!DOCTYPE svg PUBLIC "-//W3C//DTD SVG 1.1//EN" "http://www.w3.org/Graphics/SVG/1.1/DTD/svg11.dtd">
<svg version="1.1" id="Слой_1" xmlns="http://www.w3.org/2000/svg" xmlns:xlink="http://www.w3.org/1999/xlink" x="0px" y="0px"
	 width="24px" height="18px" viewBox="0 0 24 18" enable-background="new 0 0 24 18" xml:space="preserve">
<g>
	<g>
		<path d="M7.994,13.728l3.982-3.318L6.224,6.857l-3.935,3.155L7.994,13.728z M7.994,13.728"/>
		<path d="M11.976,10.409l3.994,3.317l5.693-3.714l-3.935-3.155L11.976,10.409z M11.976,10.409"/>
		<path d="M12,11.132v-0.023l-0.012,0.012l-0.012-0.012v0.023l-3.982,3.306L6.283,13.32v1.257l5.693,3.412V18l0.012-0.011L12,18
			v-0.011l5.706-3.412V13.32l-1.712,1.117L12,11.132z M12,11.132"/>
		<path d="M2.289,3.715l3.935,3.143l5.752-3.539L7.994,0L2.289,3.715z M2.289,3.715"/>
		<path d="M15.97,0l-3.994,3.318l5.752,3.539l3.935-3.143L15.97,0z M15.97,0"/>
	</g>
</g>
</svg>
