<?xml version="1.0" encoding="utf-8"?>
<!-- Generator: Adobe Illustrator 16.0.0, SVG Export Plug-In . SVG Version: 6.00 Build 0)  -->
<!DOCTYPE svg PUBLIC "-//W3C//DTD SVG 1.1//EN" "http://www.w3.org/Graphics/SVG/1.1/DTD/svg11.dtd">
<svg version="1.1" id="Слой_1" xmlns="http://www.w3.org/2000/svg" xmlns:xlink="http://www.w3.org/1999/xlink" x="0px" y="0px"
	 width="20px" height="18px" viewBox="0 0 20 18" enable-background="new 0 0 20 18" xml:space="preserve">
<g>
	<g>
		<path fill="#6C8FCA" d="M5.995,13.727l3.982-3.318L4.225,6.857L0.29,10.013L5.995,13.727z M5.995,13.727"/>
		<path fill="#6C8FCA" d="M9.977,10.408l3.994,3.318l5.693-3.714l-3.936-3.155L9.977,10.408z M9.977,10.408"/>
		<path fill="#6C8FCA" d="M10,11.131v-0.023l-0.012,0.012l-0.012-0.012v0.023l-3.982,3.307L4.284,13.32v1.256l5.693,3.412V18
			l0.012-0.012L10,18v-0.012l5.705-3.412V13.32l-1.711,1.117L10,11.131z M10,11.131"/>
		<path fill="#6C8FCA" d="M0.29,3.714l3.935,3.143l5.752-3.54L5.995,0L0.29,3.714z M0.29,3.714"/>
		<path fill="#6C8FCA" d="M13.971,0L9.977,3.318l5.751,3.54l3.936-3.143L13.971,0z M13.971,0"/>
	</g>
</g>
</svg>
