<?xml version="1.0" encoding="utf-8"?>
<!-- Generator: Adobe Illustrator 16.0.0, SVG Export Plug-In . SVG Version: 6.00 Build 0)  -->
<!DOCTYPE svg PUBLIC "-//W3C//DTD SVG 1.1//EN" "http://www.w3.org/Graphics/SVG/1.1/DTD/svg11.dtd">
<svg version="1.1" id="Слой_1" xmlns="http://www.w3.org/2000/svg" xmlns:xlink="http://www.w3.org/1999/xlink" x="0px" y="0px"
	 width="48px" height="48px" viewBox="0 0 48 48" enable-background="new 0 0 48 48" xml:space="preserve">
<path fill="#fff" d="M46.6074219,0H3.065918C1.5737305,0,0,1.237793,0,2.7294922v43.5439453
	C0,47.765625,1.5737305,48,3.065918,48H26V30h-6v-7h6v-5.8139648c0-6.3222656,3.7617188-9.765625,9.4003906-9.765625
	C38.1015625,7.4204102,40,7.6220703,41,7.7119141v6.6064453l-4.125,0.0019531c-3.0664063,0-3.875,1.4584961-3.875,3.597168V23
	h8.4501953l-0.9511719,7H33v18h13.6074219C48.0996094,48,48,47.765625,48,46.2734375V2.7294922
	C48,1.237793,48.0996094,0,46.6074219,0z"/>
<g>
</g>
<g>
</g>
<g>
</g>
<g>
</g>
<g>
</g>
<g>
</g>
</svg>
