<?xml version="1.0" encoding="utf-8"?>
<!-- Generator: Adobe Illustrator 16.0.0, SVG Export Plug-In . SVG Version: 6.00 Build 0)  -->
<!DOCTYPE svg PUBLIC "-//W3C//DTD SVG 1.1//EN" "http://www.w3.org/Graphics/SVG/1.1/DTD/svg11.dtd">
<svg version="1.1" id="Слой_1" xmlns="http://www.w3.org/2000/svg" xmlns:xlink="http://www.w3.org/1999/xlink" x="0px" y="0px"
	 width="166px" height="24px" viewBox="0 0 166 24" enable-background="new 0 0 166 24" xml:space="preserve">
<g>
	<g>
		<path fill="#A9A9A9" d="M12.0595703,23.9863281c-4.8496094,0-9.1914063-2.890625-11.0625-7.3652344
			c-1.234375-2.9550781-1.2436523-6.2104492-0.0273438-9.1713867C2.184082,4.4907227,4.4799805,2.1762695,7.4326172,0.9453125
			c1.4770508-0.6171875,3.027832-0.9321289,4.6147461-0.9321289c4.8510742,0,9.1904297,2.8920898,11.0625,7.3686523
			c1.2353516,2.9526367,1.2456055,6.2080078,0.0302734,9.1689453c-1.2163086,2.9648438-3.5112305,5.2734375-6.4648438,6.5058594
			C15.1987305,23.6738281,13.6474609,23.9863281,12.0595703,23.9863281 M12.0473633,1.855957
			c-1.3398438,0-2.6547852,0.2670898-3.9023438,0.7885742c-2.5,1.0449219-4.4433594,3.0029297-5.4702148,5.5058594
			c-1.0302734,2.5073242-1.0219727,5.2636719,0.0239258,7.7597656c1.581543,3.7871094,5.2558594,6.234375,9.3608398,6.234375
			c1.3422852,0,2.6567383-0.2675781,3.9047852-0.7890625c2.4985352-1.0429688,4.440918-2.9960938,5.4702148-5.5039063
			c1.0288086-2.5039063,1.0205078-5.2631836-0.0244141-7.7626953C19.8276367,4.3037109,16.1547852,1.855957,12.0473633,1.855957"/>
		<path fill="#A9A9A9" d="M7.9438477,1.9521484c-0.0229492,5.0571289-2.0048828,16.3173828,5.6762695,16.5380859
			c2.7436523,0.0800781,4.4462891-2.3515625,4.3481445-4.8632813C17.7851563,8.9746094,10.6875,7.4277344,8.9326172,3.4335938
			C8.7631836,3.0527344,7.8842773,3.4521484,8.027832,3.7783203c1.1923828,2.7163086,3.2998047,4.0644531,5.6206055,5.7348633
			c1.3564453,0.9750977,2.4746094,2.1767578,3.0146484,3.7817383c1.0874023,3.2460938-2.7299805,5.7324219-5.394043,3.5507813
			C7.4638672,13.7324219,9.1123047,5.8413086,9.1313477,1.6376953C9.1323242,1.3144531,7.9438477,1.5224609,7.9438477,1.9521484"/>
	</g>
	<g>
		<path fill="#A9A9A9" d="M45.9589844,18.1054688l-3.8007813-5.0917969h-3.7441406v5.0917969h-1.4794922V4.9995117h5.6357422
			c2.8833008,0,4.7368164,1.5541992,4.7368164,3.9130859c0,2.1904297-1.4975586,3.4638672-3.5571289,3.8383789l4.0253906,5.3544922
			H45.9589844z M42.4580078,6.3662109h-4.0439453v5.3173828h4.0253906c1.9658203,0,3.3701172-1.0107422,3.3701172-2.7148438
			C45.8095703,7.3398438,44.5737305,6.3662109,42.4580078,6.3662109z"/>
		<path fill="#A9A9A9" d="M56.5600586,18.3300781c-3.987793,0-6.6650391-3.1269531-6.6650391-6.7587891
			c0-3.6323242,2.7143555-6.7963867,6.7026367-6.7963867c3.987793,0,6.6650391,3.1269531,6.6650391,6.7587891
			C63.2626953,15.1660156,60.5478516,18.3300781,56.5600586,18.3300781z M56.5600586,6.1416016
			c-2.9956055,0-5.1298828,2.3964844-5.1298828,5.3920898s2.171875,5.4291992,5.1674805,5.4291992
			s5.1298828-2.3964844,5.1298828-5.3916016C61.7275391,8.5756836,59.5556641,6.1416016,56.5600586,6.1416016z"/>
		<path fill="#A9A9A9" d="M72.3857422,18.3300781c-3.7822266,0-6.5717773-2.9765625-6.5717773-6.7587891
			c0-3.7446289,2.7709961-6.7963867,6.6274414-6.7963867c2.3779297,0,3.8007813,0.8427734,5.1113281,2.078125l-1.0107422,1.0859375
			C75.4375,6.890625,74.2016602,6.1416016,72.4228516,6.1416016c-2.9018555,0-5.0737305,2.340332-5.0737305,5.3920898
			c0,3.0522461,2.190918,5.4291992,5.0737305,5.4291992c1.7973633,0,2.9770508-0.6923828,4.2314453-1.890625l0.9736328,0.9550781
			C76.2607422,17.4121094,74.7631836,18.3300781,72.3857422,18.3300781z"/>
		<path fill="#A9A9A9" d="M91.375,18.1054688h-1.8535156l-5.0371094-6.347168l-2.7895508,2.8276367v3.5195313h-1.4790039V4.9995117
			h1.4790039v7.8261719l7.5268555-7.8261719h1.9091797l-5.6162109,5.7294922L91.375,18.1054688z"/>
		<path fill="#A9A9A9" d="M98.2304688,18.1054688h-4.5488281V4.9995117h4.5488281
			c4.1191406,0,6.9648438,2.8271484,6.9648438,6.5341797C105.1953125,15.2402344,102.3496094,18.1054688,98.2304688,18.1054688z
			 M98.2304688,6.3662109h-3.0703125v10.3720703h3.0703125c3.3144531,0,5.4296875-2.2460938,5.4296875-5.1669922
			S101.5449219,6.3662109,98.2304688,6.3662109z"/>
		<path fill="#A9A9A9" d="M117.8007813,6.3476563h-7.9951172v4.4746094h7.1523438v1.3481445h-7.1523438v4.5874023h8.0888672
			v1.3476563h-9.5673828V4.9995117h9.4736328V6.3476563z"/>
		<path fill="#A9A9A9" d="M125.5742188,10.8413086c2.9208984,0.6362305,4.2685547,1.7036133,4.2685547,3.7250977
			c0,2.265625-1.8720703,3.7265625-4.4746094,3.7265625c-2.078125,0-3.7822266-0.6933594-5.3544922-2.0976563l0.9179688-1.0859375
			c1.3662109,1.2363281,2.6767578,1.8535156,4.4931641,1.8535156c1.7597656,0,2.9208984-0.9169922,2.9208984-2.2460938
			c0-1.2363281-0.65625-1.9287109-3.4082031-2.5087891c-3.0136719-0.6552734-4.3994141-1.6289063-4.3994141-3.8007813
			c0-2.097168,1.8154297-3.5947266,4.3056641-3.5947266c1.9101563,0,3.2773438,0.5429688,4.6064453,1.6098633l-0.8613281,1.1420898
			c-1.2167969-0.9921875-2.4345703-1.4228516-3.7822266-1.4228516c-1.703125,0-2.7890625,0.9365234-2.7890625,2.1347656
			C122.0175781,9.5307617,122.6914063,10.2231445,125.5742188,10.8413086z"/>
		<path fill="#A9A9A9" d="M134.4716797,4.9995117v13.105957h-1.4794922V4.9995117H134.4716797z"/>
		<path fill="#A9A9A9" d="M144.3955078,18.3300781c-4.1191406,0-6.6650391-2.9960938-6.6650391-6.7587891
			c0-3.6132813,2.6396484-6.7963867,6.5712891-6.7963867c2.2099609,0,3.5761719,0.6367188,4.8867188,1.7412109l-0.9550781,1.1235352
			c-1.0107422-0.8798828-2.1337891-1.4980469-3.9873047-1.4980469c-2.9023438,0-4.9804688,2.4526367-4.9804688,5.3920898
			c0,3.1459961,2.0039063,5.4672852,5.1865234,5.4672852c1.4970703,0,2.8828125-0.5810547,3.78125-1.3105469v-3.2578125h-3.9873047
			v-1.3295898h5.4101563v5.2231445C148.4394531,17.4121094,146.6054688,18.3300781,144.3955078,18.3300781z"/>
		<path fill="#A9A9A9" d="M162.6357422,4.9995117h1.4423828v13.105957h-1.1796875l-8.4628906-10.746582v10.746582h-1.4414063
			V4.9995117h1.3847656l8.2568359,10.503418V4.9995117z"/>
	</g>
</g>
<g>
</g>
<g>
</g>
<g>
</g>
<g>
</g>
<g>
</g>
<g>
</g>
</svg>
