<?xml version="1.0" encoding="utf-8"?>
<!-- Generator: Adobe Illustrator 16.0.0, SVG Export Plug-In . SVG Version: 6.00 Build 0)  -->
<!DOCTYPE svg PUBLIC "-//W3C//DTD SVG 1.1//EN" "http://www.w3.org/Graphics/SVG/1.1/DTD/svg11.dtd">
<svg version="1.1" id="Слой_1" xmlns="http://www.w3.org/2000/svg" xmlns:xlink="http://www.w3.org/1999/xlink" x="0px" y="0px"
	 width="20px" height="18px" viewBox="0 0 20 18" enable-background="new 0 0 20 18" xml:space="preserve">
<g>
	<path fill-rule="evenodd" clip-rule="evenodd" fill="#6C8FCA" d="M13.492,0.523c0.028,0.063,0.052,0.127,0.088,0.186
		c1.954,3.333,3.91,6.664,5.867,9.995c0.031,0.057,0.063,0.112,0.104,0.186c-0.058,0.005-0.103,0.013-0.146,0.013
		c-2.236,0.001-4.473,0-6.71,0.003c-0.104,0-0.163-0.028-0.218-0.121C10.473,7.406,8.464,4.029,6.457,0.652
		C6.433,0.611,6.415,0.566,6.395,0.523C8.76,0.523,11.127,0.523,13.492,0.523z"/>
	<path fill-rule="evenodd" clip-rule="evenodd" fill="#6C8FCA" d="M4.299,17.709c0.044-0.078,0.078-0.138,0.111-0.196
		c1.117-1.891,2.234-3.78,3.35-5.672c0.049-0.084,0.102-0.12,0.203-0.12c3.974,0.002,7.951,0.002,11.925,0.002
		c0.037,0,0.073,0.005,0.136,0.009c-0.029,0.06-0.05,0.105-0.074,0.149c-1.088,1.905-2.179,3.811-3.264,5.719
		c-0.054,0.095-0.112,0.123-0.217,0.123c-4.003-0.003-8.004-0.002-12.006-0.003C4.417,17.72,4.37,17.713,4.299,17.709z"/>
	<path fill-rule="evenodd" clip-rule="evenodd" fill="#6C8FCA" d="M3.364,17.728c-0.198-0.352-0.386-0.683-0.573-1.016
		c-0.906-1.606-1.813-3.215-2.722-4.819c-0.057-0.101-0.064-0.173-0.005-0.278C1.944,8.315,3.82,5.013,5.697,1.71
		c0.039-0.069,0.081-0.137,0.13-0.218c0.376,0.629,0.744,1.245,1.112,1.86C7.721,4.657,8.5,5.965,9.286,7.268
		c0.076,0.128,0.075,0.216,0,0.345c-1.942,3.314-3.88,6.632-5.819,9.948C3.438,17.61,3.406,17.659,3.364,17.728z"/>
</g>
</svg>
