<?xml version="1.0" encoding="utf-8"?>
<!-- Generator: Adobe Illustrator 16.0.0, SVG Export Plug-In . SVG Version: 6.00 Build 0)  -->
<!DOCTYPE svg PUBLIC "-//W3C//DTD SVG 1.1//EN" "http://www.w3.org/Graphics/SVG/1.1/DTD/svg11.dtd">
<svg version="1.1" id="Слой_1" xmlns="http://www.w3.org/2000/svg" xmlns:xlink="http://www.w3.org/1999/xlink" x="0px" y="0px"
	 width="27px" height="16px" viewBox="0 0 27 16" enable-background="new 0 0 27 16" xml:space="preserve">
<g>
	<polygon fill-rule="evenodd" clip-rule="evenodd" fill="#FFFFFF" points="9.6591797,7.7441406 9.6220703,7.7412109 
		9.5834961,7.7358398 9.5473633,7.7304688 9.512207,7.7250977 9.4799805,7.7202148 9.4453125,7.7148438 9.4091797,7.7094727 
		9.3706055,7.7041016 9.3330078,7.6982422 9.2890625,7.6958008 9.2407227,7.6928711 9.1879883,7.690918 9.1308594,7.690918 
		9.0688477,7.6928711 8.9970703,7.6982422 8.9189453,7.7041016 8.8642578,7.7119141 8.8125,7.7202148 8.765625,7.7358398 
		8.7250977,7.7519531 8.6870117,7.7709961 8.6513672,7.7924805 8.6245117,7.8193359 8.6000977,7.8432617 8.5834961,7.8725586 
		8.5698242,7.9023438 8.5634766,7.934082 8.5634766,7.9663086 8.5732422,8.0009766 8.5834961,8.0361328 8.6049805,8.0708008 
		8.6323242,8.105957 8.6870117,8.15625 8.7524414,8.1962891 8.8286133,8.2314453 8.909668,8.2607422 8.9970703,8.2880859 
		9.0878906,8.3168945 9.1777344,8.3496094 9.2641602,8.3842773 9.3466797,8.4301758 9.4233398,8.4863281 9.4907227,8.5527344 
		9.5473633,8.6357422 9.5917969,8.7382813 9.6186523,8.8588867 9.6303711,9.0029297 9.6186523,9.171875 9.6000977,9.2988281 
		9.565918,9.4072266 9.5239258,9.5097656 9.46875,9.5976563 9.40625,9.6757813 9.3359375,9.7421875 9.2597656,9.8007813 
		9.1748047,9.8515625 9.0878906,9.8925781 8.9970703,9.9277344 8.9047852,9.9541016 8.809082,9.9755859 8.7167969,9.9912109 
		8.6269531,10 8.5366211,10.0048828 8.4526367,10.0078125 8.3349609,10.0078125 8.2260742,10.0048828 8.1303711,10.0048828 
		8.0410156,10.0019531 7.9584961,10 7.8852539,9.9941406 7.8203125,9.9892578 7.7583008,9.9804688 7.7001953,9.9755859 
		7.6484375,9.9648438 7.5961914,9.9570313 7.5498047,9.9433594 7.503418,9.9326172 7.4599609,9.9160156 7.4160156,9.9003906 
		7.3706055,9.8837891 7.4941406,9.2919922 7.5175781,9.2988281 7.5478516,9.3056641 7.5854492,9.3164063 7.6318359,9.3271484 
		7.6811523,9.3378906 7.7363281,9.3486328 7.7958984,9.3613281 7.8603516,9.3730469 7.9291992,9.3837891 7.9995117,9.3945313 
		8.0732422,9.4023438 8.1503906,9.4101563 8.2290039,9.4121094 8.3076172,9.4160156 8.3867188,9.4160156 8.4663086,9.4121094 
		8.5449219,9.3964844 8.6074219,9.375 8.6567383,9.3457031 8.6948242,9.3085938 8.7226563,9.2714844 8.7436523,9.2285156 
		8.7578125,9.1845703 8.7685547,9.1445313 8.7734375,9.0673828 8.7495117,9 8.7026367,8.9467773 8.6342773,8.9013672 
		8.5541992,8.8613281 8.4575195,8.8208008 8.3515625,8.7836914 8.2451172,8.7402344 8.1367188,8.6923828 8.0336914,8.6357422 
		7.9370117,8.5664063 7.8496094,8.4833984 7.7822266,8.3818359 7.7329102,8.2607422 7.7080078,8.1162109 7.7114258,7.9448242 
		7.7241211,7.8408203 7.7436523,7.7412109 7.7709961,7.6503906 7.8037109,7.5644531 7.847168,7.484375 7.8959961,7.4145508 
		7.9541016,7.3476563 8.0224609,7.2885742 8.1010742,7.2382813 8.1879883,7.1948242 8.2861328,7.1547852 8.3959961,7.1254883 
		8.5180664,7.1010742 8.6513672,7.0825195 8.7988281,7.0717773 8.9589844,7.0693359 9.0610352,7.0693359 9.1533203,7.0717773 
		9.2373047,7.0737305 9.3144531,7.0771484 9.3813477,7.0825195 9.4453125,7.0878906 9.4990234,7.0932617 9.5473633,7.0981445 
		9.59375,7.1035156 9.6328125,7.1118164 9.6679688,7.1171875 9.7016602,7.1225586 9.7285156,7.1274414 9.753418,7.1308594 
		9.7768555,7.1357422 9.7993164,7.1386719 9.6591797,7.7441406 9.6591797,7.7441406 	"/>
	<polyline fill="#FFFFFF" points="9.6591797,7.7441406 9.6591797,7.7441406 9.6220703,7.7412109 9.5834961,7.7358398 
		9.5473633,7.7304688 9.512207,7.7250977 9.4799805,7.7202148 9.4453125,7.7148438 9.4091797,7.7094727 9.3706055,7.7041016 
		9.3330078,7.6982422 9.2890625,7.6958008 9.2407227,7.6928711 9.1879883,7.690918 9.1308594,7.690918 9.0688477,7.6928711 
		8.9970703,7.6982422 8.9189453,7.7041016 8.9189453,7.7041016 8.8642578,7.7119141 8.8125,7.7202148 8.765625,7.7358398 
		8.7250977,7.7519531 8.6870117,7.7709961 8.6513672,7.7924805 8.6245117,7.8193359 8.6000977,7.8432617 8.5834961,7.8725586 
		8.5698242,7.9023438 8.5634766,7.934082 8.5634766,7.9663086 8.5732422,8.0009766 8.5834961,8.0361328 8.6049805,8.0708008 
		8.6323242,8.105957 8.6323242,8.105957 8.6870117,8.15625 8.7524414,8.1962891 8.8286133,8.2314453 8.909668,8.2607422 
		8.9970703,8.2880859 9.0878906,8.3168945 9.1777344,8.3496094 9.2641602,8.3842773 9.3466797,8.4301758 9.4233398,8.4863281 
		9.4907227,8.5527344 9.5473633,8.6357422 9.5917969,8.7382813 9.6186523,8.8588867 9.6303711,9.0029297 9.6186523,9.171875 
		9.6186523,9.171875 9.6000977,9.2988281 9.565918,9.4072266 9.5239258,9.5097656 9.46875,9.5976563 9.40625,9.6757813 
		9.3359375,9.7421875 9.2597656,9.8007813 9.1748047,9.8515625 9.0878906,9.8925781 8.9970703,9.9277344 8.9047852,9.9541016 
		8.809082,9.9755859 8.7167969,9.9912109 8.6269531,10 8.5366211,10.0048828 8.4526367,10.0078125 8.4526367,10.0078125 
		8.3349609,10.0078125 8.2260742,10.0048828 8.1303711,10.0048828 8.0410156,10.0019531 7.9584961,10 7.8852539,9.9941406 
		7.8203125,9.9892578 7.7583008,9.9804688 7.7001953,9.9755859 7.6484375,9.9648438 7.5961914,9.9570313 7.5498047,9.9433594 
		7.503418,9.9326172 7.4599609,9.9160156 7.4160156,9.9003906 7.3706055,9.8837891 7.4941406,9.2919922 7.4941406,9.2919922 
		7.5175781,9.2988281 7.5478516,9.3056641 7.5854492,9.3164063 7.6318359,9.3271484 7.6811523,9.3378906 7.7363281,9.3486328 
		7.7958984,9.3613281 7.8603516,9.3730469 7.9291992,9.3837891 7.9995117,9.3945313 8.0732422,9.4023438 8.1503906,9.4101563 
		8.2290039,9.4121094 8.3076172,9.4160156 8.3867188,9.4160156 8.4663086,9.4121094 8.4663086,9.4121094 8.5449219,9.3964844 
		8.6074219,9.375 8.6567383,9.3457031 8.6948242,9.3085938 8.7226563,9.2714844 8.7436523,9.2285156 8.7578125,9.1845703 
		8.7685547,9.1445313 8.7685547,9.1445313 8.7734375,9.0673828 8.7495117,9 8.7026367,8.9467773 8.6342773,8.9013672 
		8.5541992,8.8613281 8.4575195,8.8208008 8.3515625,8.7836914 8.2451172,8.7402344 8.1367188,8.6923828 8.0336914,8.6357422 
		7.9370117,8.5664063 7.8496094,8.4833984 7.7822266,8.3818359 7.7329102,8.2607422 7.7080078,8.1162109 7.7114258,7.9448242 
		7.7114258,7.9448242 7.7241211,7.8408203 7.7436523,7.7412109 7.7709961,7.6503906 7.8037109,7.5644531 7.847168,7.484375 
		7.8959961,7.4145508 7.9541016,7.3476563 8.0224609,7.2885742 8.1010742,7.2382813 8.1879883,7.1948242 8.2861328,7.1547852 
		8.3959961,7.1254883 8.5180664,7.1010742 8.6513672,7.0825195 8.7988281,7.0717773 8.9589844,7.0693359 8.9589844,7.0693359 
		9.0610352,7.0693359 9.1533203,7.0717773 9.2373047,7.0737305 9.3144531,7.0771484 9.3813477,7.0825195 9.4453125,7.0878906 
		9.4990234,7.0932617 9.5473633,7.0981445 9.59375,7.1035156 9.6328125,7.1118164 9.6679688,7.1171875 9.7016602,7.1225586 
		9.7285156,7.1274414 9.753418,7.1308594 9.7768555,7.1357422 9.7993164,7.1386719 9.6591797,7.7441406 	"/>
	<polygon fill-rule="evenodd" clip-rule="evenodd" fill="#FFFFFF" points="10.3051758,6.4765625 11.0605469,6.4765625 
		10.9492188,7.1254883 11.4042969,7.1254883 11.3056641,7.7304688 10.8261719,7.7167969 10.5654297,9.2119141 10.5620117,9.265625 
		10.5756836,9.3105469 10.6040039,9.3457031 10.6386719,9.375 10.6870117,9.3945313 10.7416992,9.4101563 10.8017578,9.4208984 
		10.8681641,9.4267578 10.9277344,9.4238281 10.9814453,9.4179688 11.0307617,9.4101563 11.074707,9.3994141 11.1088867,9.3886719 
		11.1337891,9.3808594 11.1513672,9.375 11.1557617,9.3730469 11.0605469,9.8710938 11.0415039,9.8837891 11.0229492,9.8945313 
		11.0039063,9.90625 10.9838867,9.9160156 10.9648438,9.9238281 10.9433594,9.9326172 10.918457,9.9404297 10.8950195,9.9492188 
		10.8681641,9.9570313 10.8398438,9.9628906 10.8076172,9.9667969 10.7749023,9.9726563 10.7382813,9.9785156 10.6982422,9.9833984 
		10.6552734,9.9892578 10.6074219,9.9941406 10.4008789,9.9941406 10.2924805,9.9863281 10.1967773,9.9755859 10.1098633,9.9589844 
		10.0366211,9.9404297 9.9736328,9.9160156 9.9208984,9.890625 9.8754883,9.8574219 9.8398438,9.8222656 9.8129883,9.7851563 
		9.7929688,9.7402344 9.7802734,9.6943359 9.7719727,9.6435547 9.769043,9.5869141 9.769043,9.5273438 9.7768555,9.4667969 
		9.784668,9.3994141 10.3051758,6.4765625 10.3051758,6.4765625 	"/>
	<polyline fill="#FFFFFF" points="10.3051758,6.4765625 11.0605469,6.4765625 10.9492188,7.1254883 11.4042969,7.1254883 
		11.3056641,7.7304688 10.8261719,7.7167969 10.5654297,9.2119141 10.5654297,9.2119141 10.5620117,9.265625 10.5756836,9.3105469 
		10.6040039,9.3457031 10.6386719,9.375 10.6870117,9.3945313 10.7416992,9.4101563 10.8017578,9.4208984 10.8681641,9.4267578 
		10.8681641,9.4267578 10.9277344,9.4238281 10.9814453,9.4179688 11.0307617,9.4101563 11.074707,9.3994141 11.1088867,9.3886719 
		11.1337891,9.3808594 11.1513672,9.375 11.1557617,9.3730469 11.0605469,9.8710938 11.0605469,9.8710938 11.0415039,9.8837891 
		11.0229492,9.8945313 11.0039063,9.90625 10.9838867,9.9160156 10.9648438,9.9238281 10.9433594,9.9326172 10.918457,9.9404297 
		10.8950195,9.9492188 10.8681641,9.9570313 10.8398438,9.9628906 10.8076172,9.9667969 10.7749023,9.9726563 10.7382813,9.9785156 
		10.6982422,9.9833984 10.6552734,9.9892578 10.6074219,9.9941406 10.4008789,9.9941406 10.4008789,9.9941406 10.2924805,9.9863281 
		10.1967773,9.9755859 10.1098633,9.9589844 10.0366211,9.9404297 9.9736328,9.9160156 9.9208984,9.890625 9.8754883,9.8574219 
		9.8398438,9.8222656 9.8129883,9.7851563 9.7929688,9.7402344 9.7802734,9.6943359 9.7719727,9.6435547 9.769043,9.5869141 
		9.769043,9.5273438 9.7768555,9.4667969 9.784668,9.3994141 10.3051758,6.4765625 	"/>
	<polygon fill-rule="evenodd" clip-rule="evenodd" fill="#FFFFFF" points="12.0063477,8.7402344 11.9985352,8.7866211 
		11.9956055,8.8344727 12.0009766,8.8852539 12.0117188,8.9360352 12.03125,8.9873047 12.0537109,9.0351563 12.0830078,9.0859375 
		12.1157227,9.1318359 12.1538086,9.1777344 12.1943359,9.2177734 12.2382813,9.2578125 12.2866211,9.2900391 12.3359375,9.3193359 
		12.3911133,9.34375 12.4458008,9.3613281 12.5004883,9.3730469 12.5708008,9.3837891 12.6381836,9.3916016 12.7099609,9.3994141 
		12.7807617,9.4042969 12.8510742,9.4072266 12.9248047,9.4072266 12.996582,9.4042969 13.0703125,9.3994141 13.1435547,9.3886719 
		13.2167969,9.375 13.293457,9.359375 13.3666992,9.3359375 13.4418945,9.3056641 13.5214844,9.2734375 13.5986328,9.2304688 
		13.6777344,9.1845703 13.5683594,9.84375 13.5249023,9.8652344 13.4804688,9.8867188 13.4379883,9.9033203 13.3964844,9.9189453 
		13.355957,9.9326172 13.3125,9.9453125 13.2685547,9.9570313 13.2216797,9.9648438 13.1728516,9.9726563 13.1186523,9.9785156 
		13.0605469,9.9833984 12.9980469,9.9892578 12.9272461,9.9912109 12.8540039,9.9912109 12.7695313,9.9941406 12.6787109,9.9941406 
		12.5458984,9.9912109 12.4101563,9.9785156 12.2739258,9.9589844 12.1367188,9.9277344 12.0039063,9.8867188 11.8754883,9.8359375 
		11.7529297,9.7695313 11.6381836,9.6914063 11.5327148,9.5996094 11.4404297,9.4902344 11.3603516,9.3671875 11.2954102,9.2246094 
		11.25,9.0673828 11.21875,8.8876953 11.2109375,8.6899414 11.2250977,8.4697266 11.234375,8.3842773 11.2519531,8.2851563 
		11.2734375,8.1806641 11.3037109,8.0678711 11.3442383,7.953125 11.3925781,7.8378906 11.4560547,7.7202148 11.5327148,7.6074219 
		11.6196289,7.5004883 11.7255859,7.3984375 11.8457031,7.3076172 11.9819336,7.2270508 12.1396484,7.1601563 12.3178711,7.1118164 
		12.5131836,7.0795898 12.7338867,7.0693359 12.840332,7.0717773 12.9526367,7.0825195 13.0639648,7.1010742 13.1762695,7.1274414 
		13.2841797,7.1679688 13.3901367,7.2163086 13.4887695,7.2807617 13.5786133,7.3554688 13.6606445,7.4467773 13.7290039,7.5537109 
		13.7836914,7.6772461 13.8222656,7.8193359 13.84375,7.9799805 13.8457031,8.1621094 13.8271484,8.3652344 13.7856445,8.5908203 
		13.7719727,8.7539063 11.7861328,8.7539063 11.9111328,8.2265625 13.1054688,8.2265625 13.1108398,8.1591797 13.1074219,8.0947266 
		13.1025391,8.0361328 13.0917969,7.9824219 13.0722656,7.9316406 13.0527344,7.8857422 13.0258789,7.8457031 12.9980469,7.8081055 
		12.9663086,7.7758789 12.9306641,7.7490234 12.8896484,7.7250977 12.8491211,7.7041016 12.8041992,7.6879883 12.7617188,7.6772461 
		12.715332,7.6689453 12.6665039,7.6635742 12.6147461,7.6665039 12.5649414,7.6743164 12.519043,7.6850586 12.4726563,7.7011719 
		12.4257813,7.7226563 12.3852539,7.746582 12.3447266,7.7758789 12.309082,7.8081055 12.2739258,7.8457031 12.2412109,7.8857422 
		12.2119141,7.9287109 12.1870117,7.9746094 12.1621094,8.0224609 12.1425781,8.0761719 12.1269531,8.1298828 12.1157227,8.1860352 
		12.0063477,8.7402344 12.0063477,8.7402344 	"/>
	<polyline fill="#FFFFFF" points="12.0063477,8.7402344 12.0063477,8.7402344 11.9985352,8.7866211 11.9956055,8.8344727 
		12.0009766,8.8852539 12.0117188,8.9360352 12.03125,8.9873047 12.0537109,9.0351563 12.0830078,9.0859375 12.1157227,9.1318359 
		12.1538086,9.1777344 12.1943359,9.2177734 12.2382813,9.2578125 12.2866211,9.2900391 12.3359375,9.3193359 12.3911133,9.34375 
		12.4458008,9.3613281 12.5004883,9.3730469 12.5004883,9.3730469 12.5708008,9.3837891 12.6381836,9.3916016 12.7099609,9.3994141 
		12.7807617,9.4042969 12.8510742,9.4072266 12.9248047,9.4072266 12.996582,9.4042969 13.0703125,9.3994141 13.1435547,9.3886719 
		13.2167969,9.375 13.293457,9.359375 13.3666992,9.3359375 13.4418945,9.3056641 13.5214844,9.2734375 13.5986328,9.2304688 
		13.6777344,9.1845703 13.5683594,9.84375 13.5683594,9.84375 13.5249023,9.8652344 13.4804688,9.8867188 13.4379883,9.9033203 
		13.3964844,9.9189453 13.355957,9.9326172 13.3125,9.9453125 13.2685547,9.9570313 13.2216797,9.9648438 13.1728516,9.9726563 
		13.1186523,9.9785156 13.0605469,9.9833984 12.9980469,9.9892578 12.9272461,9.9912109 12.8540039,9.9912109 12.7695313,9.9941406 
		12.6787109,9.9941406 12.6787109,9.9941406 12.5458984,9.9912109 12.4101563,9.9785156 12.2739258,9.9589844 12.1367188,9.9277344 
		12.0039063,9.8867188 11.8754883,9.8359375 11.7529297,9.7695313 11.6381836,9.6914063 11.5327148,9.5996094 11.4404297,9.4902344 
		11.3603516,9.3671875 11.2954102,9.2246094 11.25,9.0673828 11.21875,8.8876953 11.2109375,8.6899414 11.2250977,8.4697266 
		11.2250977,8.4697266 11.234375,8.3842773 11.2519531,8.2851563 11.2734375,8.1806641 11.3037109,8.0678711 11.3442383,7.953125 
		11.3925781,7.8378906 11.4560547,7.7202148 11.5327148,7.6074219 11.6196289,7.5004883 11.7255859,7.3984375 11.8457031,7.3076172 
		11.9819336,7.2270508 12.1396484,7.1601563 12.3178711,7.1118164 12.5131836,7.0795898 12.7338867,7.0693359 12.7338867,7.0693359 
		12.840332,7.0717773 12.9526367,7.0825195 13.0639648,7.1010742 13.1762695,7.1274414 13.2841797,7.1679688 13.3901367,7.2163086 
		13.4887695,7.2807617 13.5786133,7.3554688 13.6606445,7.4467773 13.7290039,7.5537109 13.7836914,7.6772461 13.8222656,7.8193359 
		13.84375,7.9799805 13.8457031,8.1621094 13.8271484,8.3652344 13.7856445,8.5908203 13.7719727,8.7539063 11.7861328,8.7539063 
		11.9111328,8.2265625 13.1054688,8.2265625 13.1054688,8.2265625 13.1108398,8.1591797 13.1074219,8.0947266 13.1025391,8.0361328 
		13.0917969,7.9824219 13.0722656,7.9316406 13.0527344,7.8857422 13.0258789,7.8457031 12.9980469,7.8081055 12.9663086,7.7758789 
		12.9306641,7.7490234 12.8896484,7.7250977 12.8491211,7.7041016 12.8041992,7.6879883 12.7617188,7.6772461 12.715332,7.6689453 
		12.6665039,7.6635742 12.6665039,7.6635742 12.6147461,7.6665039 12.5649414,7.6743164 12.519043,7.6850586 12.4726563,7.7011719 
		12.4257813,7.7226563 12.3852539,7.746582 12.3447266,7.7758789 12.309082,7.8081055 12.2739258,7.8457031 12.2412109,7.8857422 
		12.2119141,7.9287109 12.1870117,7.9746094 12.1621094,8.0224609 12.1425781,8.0761719 12.1269531,8.1298828 12.1157227,8.1860352 
		12.0063477,8.7402344 	"/>
	<polygon fill-rule="evenodd" clip-rule="evenodd" fill="#FFFFFF" points="18.5068359,7.2861328 18.4716797,7.2670898 
		18.4355469,7.2509766 18.3964844,7.2324219 18.3574219,7.2138672 18.3154297,7.1977539 18.2705078,7.1816406 18.2236328,7.1655273 
		18.1757813,7.1494141 18.1240234,7.1357422 18.0722656,7.1254883 18.0136719,7.1142578 17.9560547,7.1064453 17.8925781,7.1010742 
		17.8320313,7.0957031 17.765625,7.0957031 17.6972656,7.0957031 17.6289063,7.0957031 17.5585938,7.1010742 17.484375,7.1088867 
		17.4082031,7.1225586 17.3330078,7.144043 17.2558594,7.1733398 17.1796875,7.2109375 17.1025391,7.2592773 17.0302734,7.3178711 
		16.9589844,7.3881836 16.890625,7.4736328 16.8251953,7.5727539 16.765625,7.690918 16.7080078,7.824707 16.65625,7.9746094 
		16.6132813,8.1455078 16.5976563,8.2421875 16.5859375,8.3364258 16.5800781,8.4301758 16.5830078,8.5205078 16.5908203,8.6118164 
		16.6113281,8.6977539 16.6347656,8.7783203 16.6650391,8.8588867 16.7050781,8.9306641 16.7558594,9 16.8115234,9.0625 
		16.8769531,9.1181641 16.9511719,9.1669922 17.0351563,9.2070313 17.1279297,9.2421875 17.2314453,9.265625 17.2666016,9.2734375 
		17.3076172,9.28125 17.3554688,9.2871094 17.4121094,9.2919922 17.4707031,9.2988281 17.5341797,9.2988281 17.6015625,9.2988281 
		17.6699219,9.2919922 17.7421875,9.2841797 17.8115234,9.2714844 17.8808594,9.2519531 17.9472656,9.2304688 18.0166016,9.2011719 
		18.0791016,9.1669922 18.1376953,9.1230469 18.1904297,9.0751953 18.0693359,9.7910156 18.0507813,9.8037109 18.0361328,9.8203125 
		18.0136719,9.8388672 17.9902344,9.8554688 17.9589844,9.8769531 17.9208984,9.8945313 17.8769531,9.9140625 17.828125,9.9296875 
		17.765625,9.9492188 17.6953125,9.9628906 17.6123047,9.9726563 17.5175781,9.9833984 17.4121094,9.9892578 17.2880859,9.9912109 
		17.1503906,9.9892578 16.9960938,9.9804688 16.8720703,9.9667969 16.7460938,9.9404297 16.6210938,9.9003906 16.4951172,9.8466797 
		16.375,9.7832031 16.2607422,9.703125 16.1513672,9.6083984 16.0498047,9.5019531 15.9619141,9.3808594 15.8847656,9.2460938 
		15.8203125,9.0966797 15.7705078,8.9335938 15.7373047,8.7539063 15.7275391,8.5639648 15.7324219,8.3549805 15.7626953,8.1323242 
		15.7832031,8.0224609 15.8076172,7.9155273 15.8349609,7.8110352 15.8632813,7.7119141 15.8935547,7.6181641 15.9296875,7.5244141 
		15.9648438,7.4360352 16.0019531,7.3530273 16.0429688,7.2695313 16.0839844,7.1918945 16.1289063,7.1171875 16.1787109,7.0478516 
		16.2285156,6.9804688 16.2822266,6.9160156 16.3369141,6.8574219 16.3955078,6.8012695 16.4580078,6.7475586 16.5195313,6.6967773 
		16.5859375,6.6508789 16.6533203,6.6079102 16.7275391,6.5683594 16.8007813,6.5332031 16.8769531,6.5009766 16.9570313,6.4716797 
		17.0419922,6.4448242 17.125,6.4238281 17.2128906,6.4047852 17.3056641,6.3886719 17.3984375,6.375 17.4951172,6.3642578 
		17.5947266,6.3588867 17.6972656,6.355957 17.7851563,6.3588867 17.8681641,6.3642578 17.9511719,6.3725586 18.0332031,6.3833008 
		18.109375,6.394043 18.1826172,6.409668 18.2539063,6.4238281 18.3193359,6.4394531 18.3818359,6.4555664 18.4355469,6.4716797 
		18.4873047,6.4873047 18.5322266,6.5039063 18.5712891,6.5170898 18.6015625,6.527832 18.6289063,6.5390625 18.6435547,6.5444336 
		18.5068359,7.2861328 18.5068359,7.2861328 	"/>
	<polyline fill="#FFFFFF" points="18.5068359,7.2861328 18.5068359,7.2861328 18.4716797,7.2670898 18.4355469,7.2509766 
		18.3964844,7.2324219 18.3574219,7.2138672 18.3154297,7.1977539 18.2705078,7.1816406 18.2236328,7.1655273 18.1757813,7.1494141 
		18.1240234,7.1357422 18.0722656,7.1254883 18.0136719,7.1142578 17.9560547,7.1064453 17.8925781,7.1010742 17.8320313,7.0957031 
		17.765625,7.0957031 17.6972656,7.0957031 17.6972656,7.0957031 17.6289063,7.0957031 17.5585938,7.1010742 17.484375,7.1088867 
		17.4082031,7.1225586 17.3330078,7.144043 17.2558594,7.1733398 17.1796875,7.2109375 17.1025391,7.2592773 17.0302734,7.3178711 
		16.9589844,7.3881836 16.890625,7.4736328 16.8251953,7.5727539 16.765625,7.690918 16.7080078,7.824707 16.65625,7.9746094 
		16.6132813,8.1455078 16.6132813,8.1455078 16.5976563,8.2421875 16.5859375,8.3364258 16.5800781,8.4301758 16.5830078,8.5205078 
		16.5908203,8.6118164 16.6113281,8.6977539 16.6347656,8.7783203 16.6650391,8.8588867 16.7050781,8.9306641 16.7558594,9 
		16.8115234,9.0625 16.8769531,9.1181641 16.9511719,9.1669922 17.0351563,9.2070313 17.1279297,9.2421875 17.2314453,9.265625 
		17.2314453,9.265625 17.2666016,9.2734375 17.3076172,9.28125 17.3554688,9.2871094 17.4121094,9.2919922 17.4707031,9.2988281 
		17.5341797,9.2988281 17.6015625,9.2988281 17.6699219,9.2919922 17.7421875,9.2841797 17.8115234,9.2714844 17.8808594,9.2519531 
		17.9472656,9.2304688 18.0166016,9.2011719 18.0791016,9.1669922 18.1376953,9.1230469 18.1904297,9.0751953 18.0693359,9.7910156 
		18.0693359,9.7910156 18.0507813,9.8037109 18.0361328,9.8203125 18.0136719,9.8388672 17.9902344,9.8554688 17.9589844,9.8769531 
		17.9208984,9.8945313 17.8769531,9.9140625 17.828125,9.9296875 17.765625,9.9492188 17.6953125,9.9628906 17.6123047,9.9726563 
		17.5175781,9.9833984 17.4121094,9.9892578 17.2880859,9.9912109 17.1503906,9.9892578 16.9960938,9.9804688 16.9960938,9.9804688 
		16.8720703,9.9667969 16.7460938,9.9404297 16.6210938,9.9003906 16.4951172,9.8466797 16.375,9.7832031 16.2607422,9.703125 
		16.1513672,9.6083984 16.0498047,9.5019531 15.9619141,9.3808594 15.8847656,9.2460938 15.8203125,9.0966797 15.7705078,8.9335938 
		15.7373047,8.7539063 15.7275391,8.5639648 15.7324219,8.3549805 15.7626953,8.1323242 15.7626953,8.1323242 15.7832031,8.0224609 
		15.8076172,7.9155273 15.8349609,7.8110352 15.8632813,7.7119141 15.8935547,7.6181641 15.9296875,7.5244141 15.9648438,7.4360352 
		16.0019531,7.3530273 16.0429688,7.2695313 16.0839844,7.1918945 16.1289063,7.1171875 16.1787109,7.0478516 16.2285156,6.9804688 
		16.2822266,6.9160156 16.3369141,6.8574219 16.3955078,6.8012695 16.4580078,6.7475586 16.5195313,6.6967773 16.5859375,6.6508789 
		16.6533203,6.6079102 16.7275391,6.5683594 16.8007813,6.5332031 16.8769531,6.5009766 16.9570313,6.4716797 17.0419922,6.4448242 
		17.125,6.4238281 17.2128906,6.4047852 17.3056641,6.3886719 17.3984375,6.375 17.4951172,6.3642578 17.5947266,6.3588867 
		17.6972656,6.355957 17.6972656,6.355957 17.7851563,6.3588867 17.8681641,6.3642578 17.9511719,6.3725586 18.0332031,6.3833008 
		18.109375,6.394043 18.1826172,6.409668 18.2539063,6.4238281 18.3193359,6.4394531 18.3818359,6.4555664 18.4355469,6.4716797 
		18.4873047,6.4873047 18.5322266,6.5039063 18.5712891,6.5170898 18.6015625,6.527832 18.6289063,6.5390625 18.6435547,6.5444336 
		18.5068359,7.2861328 	"/>
	<polygon fill-rule="evenodd" clip-rule="evenodd" fill="#FFFFFF" points="1.5097656,9.9941406 0.7695313,9.9941406 
		1.3881836,6.4765625 2.6767578,6.4765625 2.800293,8.5639648 3.6904297,6.4765625 5.0375977,6.4765625 4.4047852,9.9941406 
		3.6635742,9.9941406 4.1328125,7.3662109 4.1025391,7.3662109 2.9926758,9.9941406 2.1557617,9.9941406 2.1508789,9.8837891 
		2.1318359,9.5917969 2.1074219,9.1777344 2.0805664,8.7001953 2.0522461,8.2202148 2.0288086,7.800293 2.0092773,7.4946289 
		2.0029297,7.3662109 1.9956055,7.3662109 1.9790039,7.3662109 1.9633789,7.3662109 1.9633789,7.3662109 1.5097656,9.9941406 
		1.5097656,9.9941406 	"/>
	<polyline fill="#FFFFFF" points="1.5097656,9.9941406 0.7695313,9.9941406 1.3881836,6.4765625 2.6767578,6.4765625 
		2.800293,8.5639648 3.6904297,6.4765625 5.0375977,6.4765625 4.4047852,9.9941406 3.6635742,9.9941406 4.1328125,7.3662109 
		4.1025391,7.3662109 2.9926758,9.9941406 2.1557617,9.9941406 2.1557617,9.9941406 2.1508789,9.8837891 2.1318359,9.5917969 
		2.1074219,9.1777344 2.0805664,8.7001953 2.0522461,8.2202148 2.0288086,7.800293 2.0092773,7.4946289 2.0029297,7.3662109 
		2.0029297,7.3662109 1.9956055,7.3662109 1.9790039,7.3662109 1.9633789,7.3662109 1.9633789,7.3662109 1.5097656,9.9941406 	"/>
	<polygon fill-rule="evenodd" clip-rule="evenodd" fill="#FFFFFF" points="25.7265625,9.6269531 25.7324219,9.5664063 
		25.7548828,9.4931641 25.7929688,9.4296875 25.8388672,9.3730469 25.8955078,9.3271484 25.9609375,9.2949219 26.0332031,9.2734375 
		26.1074219,9.265625 26.1855469,9.2734375 26.2558594,9.2949219 26.3222656,9.3271484 26.3798828,9.3730469 26.4248047,9.4296875 
		26.4628906,9.4931641 26.4853516,9.5664063 26.4882813,9.6269531 26.4082031,9.6269531 26.40625,9.5791016 26.3896484,9.5195313 
		26.3623047,9.4667969 26.3271484,9.4208984 26.2832031,9.3837891 26.2314453,9.3564453 26.1708984,9.3378906 26.1074219,9.3320313 
		26.0458984,9.3378906 25.9863281,9.3564453 25.9345703,9.3837891 25.8916016,9.4208984 25.8544922,9.4667969 25.8271484,9.5195313 
		25.8115234,9.5791016 25.8046875,9.6269531 25.7265625,9.6269531 25.7265625,9.6269531 	"/>
	<polygon fill-rule="evenodd" clip-rule="evenodd" fill="#FFFFFF" points="25.9726563,9.6269531 25.9726563,9.4667969 
		26.1220703,9.4667969 26.1552734,9.46875 26.1855469,9.4746094 26.2070313,9.4824219 26.2246094,9.4931641 26.2392578,9.5097656 
		26.25,9.5253906 26.2558594,9.5439453 26.2587891,9.5625 26.2558594,9.5869141 26.25,9.6054688 26.2431641,9.6210938 
		26.2373047,9.6269531 26.1220703,9.6269531 26.1337891,9.6240234 26.1523438,9.6210938 26.1689453,9.6171875 26.1826172,9.6113281 
		26.1933594,9.6035156 26.1972656,9.5957031 26.2041016,9.5820313 26.2041016,9.5625 26.2001953,9.5488281 26.1953125,9.5390625 
		26.1875,9.5332031 26.1796875,9.5273438 26.1669922,9.5253906 26.1523438,9.5234375 26.1396484,9.5234375 26.1220703,9.5234375 
		26.0400391,9.5234375 26.0400391,9.6269531 25.9726563,9.6269531 25.9726563,9.6269531 	"/>
	<polygon fill-rule="evenodd" clip-rule="evenodd" fill="#FFFFFF" points="25.7265625,9.6269531 25.7236328,9.6435547 
		25.7324219,9.7207031 25.7548828,9.7929688 25.7929688,9.8574219 25.8388672,9.9111328 25.8955078,9.9570313 25.9609375,9.9912109 
		26.0332031,10.0136719 26.1074219,10.0205078 26.1855469,10.0136719 26.2558594,9.9912109 26.3222656,9.9570313 
		26.3798828,9.9111328 26.4248047,9.8574219 26.4628906,9.7929688 26.4853516,9.7207031 26.4931641,9.6435547 26.4882813,9.6269531 
		26.4082031,9.6269531 26.4111328,9.6435547 26.40625,9.7070313 26.3896484,9.7666016 26.3623047,9.8173828 26.3271484,9.8632813 
		26.2832031,9.9003906 26.2314453,9.9296875 26.1708984,9.9492188 26.1074219,9.9541016 26.0458984,9.9492188 25.9863281,9.9296875 
		25.9345703,9.9003906 25.8916016,9.8632813 25.8544922,9.8173828 25.8271484,9.7666016 25.8115234,9.7070313 25.8046875,9.6435547 
		25.8046875,9.6269531 25.7265625,9.6269531 25.7265625,9.6269531 	"/>
	<polygon fill-rule="evenodd" clip-rule="evenodd" fill="#FFFFFF" points="25.9726563,9.6269531 25.9726563,9.7910156 
		26.0400391,9.7910156 26.0400391,9.65625 26.1074219,9.65625 26.1914063,9.7910156 26.2451172,9.7910156 26.1640625,9.65625 
		26.1826172,9.65625 26.2001953,9.6513672 26.21875,9.6464844 26.2314453,9.6347656 26.2373047,9.6269531 26.1220703,9.6269531 
		26.1074219,9.6298828 26.0400391,9.6298828 26.0400391,9.6269531 25.9726563,9.6269531 25.9726563,9.6269531 	"/>
	<path fill="#FFFFFF" d="M25.7236328,9.6435547L25.7236328,9.6435547l0.0087891-0.0771484l0.0224609-0.0732422l0.0380859-0.0634766
		l0.0458984-0.0566406l0.0566406-0.0458984l0.0654297-0.0322266l0.0722656-0.0214844l0.0742188-0.0078125l0,0l0.078125,0.0078125
		l0.0703125,0.0214844l0.0664063,0.0322266l0.0576172,0.0458984l0.0449219,0.0566406l0.0380859,0.0634766l0.0224609,0.0732422
		l0.0078125,0.0771484l0,0l-0.0078125,0.0771484l-0.0224609,0.0722656l-0.0380859,0.0644531l-0.0449219,0.0537109
		l-0.0576172,0.0458984l-0.0664063,0.0341797l-0.0703125,0.0224609l-0.078125,0.0068359l0,0l-0.0742188-0.0068359
		l-0.0722656-0.0224609l-0.0654297-0.0341797l-0.0566406-0.0458984l-0.0458984-0.0537109l-0.0380859-0.0644531l-0.0224609-0.0722656
		L25.7236328,9.6435547 M26.0400391,9.7910156h-0.0673828V9.4667969h0.1494141l0,0L26.1552734,9.46875l0.0302734,0.0058594
		l0.0214844,0.0078125l0.0175781,0.0107422l0.0146484,0.0166016L26.25,9.5253906l0.0058594,0.0185547L26.2587891,9.5625l0,0
		l-0.0029297,0.0244141L26.25,9.6054688l-0.0068359,0.015625l-0.0117188,0.0136719L26.21875,9.6464844l-0.0185547,0.0048828
		L26.1826172,9.65625h-0.0185547l0.0810547,0.1347656h-0.0537109L26.1074219,9.65625h-0.0673828V9.7910156 M26.1074219,9.6298828
		L26.1074219,9.6298828l0.0263672-0.0058594l0.0185547-0.0029297l0.0166016-0.0039063l0.0136719-0.0058594l0.0107422-0.0078125
		l0.0039063-0.0078125l0.0068359-0.0136719V9.5625l0,0l-0.0039063-0.0136719l-0.0048828-0.0097656L26.1875,9.5332031
		l-0.0078125-0.0058594l-0.0126953-0.0019531l-0.0146484-0.0019531h-0.0126953h-0.0175781h-0.0820313v0.1064453H26.1074219
		 M26.1074219,9.9541016L26.1074219,9.9541016l0.0634766-0.0048828l0.0605469-0.0195313l0.0517578-0.0292969l0.0439453-0.0371094
		l0.0351563-0.0458984l0.0273438-0.0507813L26.40625,9.7070313l0.0048828-0.0634766l0,0L26.40625,9.5791016l-0.0166016-0.0595703
		l-0.0273438-0.0527344l-0.0351563-0.0458984l-0.0439453-0.0371094l-0.0517578-0.0273438l-0.0605469-0.0185547l-0.0634766-0.0058594
		l0,0l-0.0615234,0.0058594l-0.0595703,0.0185547l-0.0517578,0.0273438l-0.0429688,0.0371094l-0.0371094,0.0458984
		l-0.0273438,0.0527344l-0.015625,0.0595703l-0.0068359,0.0644531l0,0l0.0068359,0.0634766l0.015625,0.0595703l0.0273438,0.0507813
		l0.0371094,0.0458984l0.0429688,0.0371094l0.0517578,0.0292969l0.0595703,0.0195313L26.1074219,9.9541016"/>
	<polygon fill-rule="evenodd" clip-rule="evenodd" fill="#FFFFFF" points="20.9765625,9.9941406 21.7441406,9.9941406 
		21.7441406,9.9941406 22.0195313,8.4697266 22.03125,8.4111328 22.0478516,8.3520508 22.0644531,8.2929688 22.0849609,8.234375 
		22.1132813,8.175293 22.1455078,8.1191406 22.1806641,8.0654297 22.2246094,8.0151367 22.2724609,7.9692383 22.328125,7.9262695 
		22.390625,7.8857422 22.4619141,7.8540039 22.5410156,7.8266602 22.6279297,7.8056641 22.7236328,7.7895508 22.8300781,7.7841797 
		22.8691406,7.7841797 22.890625,7.7841797 22.8994141,7.7841797 22.8994141,7.7841797 23.0205078,7.0957031 22.9443359,7.1010742 
		22.8710938,7.1088867 22.8027344,7.1225586 22.7382813,7.1416016 22.6777344,7.1625977 22.6201172,7.1894531 22.5654297,7.21875 
		22.5136719,7.2509766 22.4638672,7.2885742 22.4179688,7.3261719 22.3740234,7.3686523 22.3310547,7.4116211 22.2910156,7.4570313 
		22.2490234,7.5078125 22.2099609,7.5561523 22.1708984,7.6098633 22.2519531,7.1254883 21.4863281,7.1254883 20.9765625,9.9941406 
		20.9765625,9.9941406 20.9765625,9.9941406 	"/>
	<polyline fill="#FFFFFF" points="20.9765625,9.9941406 21.7441406,9.9941406 21.7441406,9.9941406 22.0195313,8.4697266 
		22.0195313,8.4697266 22.03125,8.4111328 22.0478516,8.3520508 22.0644531,8.2929688 22.0849609,8.234375 22.1132813,8.175293 
		22.1455078,8.1191406 22.1806641,8.0654297 22.2246094,8.0151367 22.2724609,7.9692383 22.328125,7.9262695 22.390625,7.8857422 
		22.4619141,7.8540039 22.5410156,7.8266602 22.6279297,7.8056641 22.7236328,7.7895508 22.8300781,7.7841797 22.8300781,7.7841797 
		22.8691406,7.7841797 22.890625,7.7841797 22.8994141,7.7841797 22.8994141,7.7841797 23.0205078,7.0957031 23.0205078,7.0957031 
		22.9443359,7.1010742 22.8710938,7.1088867 22.8027344,7.1225586 22.7382813,7.1416016 22.6777344,7.1625977 22.6201172,7.1894531 
		22.5654297,7.21875 22.5136719,7.2509766 22.4638672,7.2885742 22.4179688,7.3261719 22.3740234,7.3686523 22.3310547,7.4116211 
		22.2910156,7.4570313 22.2490234,7.5078125 22.2099609,7.5561523 22.1708984,7.6098633 22.2519531,7.1254883 21.4863281,7.1254883 
		20.9765625,9.9941406 20.9765625,9.9941406 	"/>
	<polygon fill-rule="evenodd" clip-rule="evenodd" fill="#FFFFFF" points="13.7587891,9.9941406 14.5283203,9.9941406 
		14.5410156,9.9941406 14.8037109,8.4697266 14.8134766,8.4111328 14.828125,8.3549805 14.8417969,8.2988281 14.859375,8.2446289 
		14.8828125,8.1914063 14.9101563,8.140625 14.9414063,8.0917969 14.9804688,8.046875 15.0244141,8.0068359 15.0722656,7.9663086 
		15.1328125,7.934082 15.1982422,7.9042969 15.2753906,7.8803711 15.359375,7.859375 15.4511719,7.8457031 15.5576172,7.8378906 
		15.5673828,7.8378906 15.578125,7.8408203 15.5908203,7.8432617 15.6044922,7.8432617 15.6181641,7.8457031 15.6298828,7.8486328 
		15.6367188,7.8505859 15.6386719,7.8505859 15.6416016,7.8408203 15.6503906,7.8081055 15.6611328,7.7597656 15.6757813,7.7011719 
		15.6943359,7.6318359 15.7138672,7.5561523 15.7373047,7.4814453 15.7626953,7.4067383 15.7832031,7.3554688 15.8115234,7.3046875 
		15.8378906,7.2539063 15.8652344,7.2084961 15.8896484,7.1679688 15.9101563,7.1357422 15.9238281,7.1171875 15.9296875,7.1088867 
		15.9267578,7.1088867 15.9150391,7.1064453 15.9013672,7.1035156 15.8828125,7.1010742 15.8632813,7.1010742 15.8417969,7.0981445 
		15.8232422,7.0957031 15.8037109,7.0957031 15.71875,7.1010742 15.6416016,7.1088867 15.5712891,7.1225586 15.5058594,7.1386719 
		15.4423828,7.1601563 15.3867188,7.1865234 15.3349609,7.2138672 15.2851563,7.2456055 15.2392578,7.2807617 15.1953125,7.3203125 
		15.1533203,7.3608398 15.1142578,7.4067383 15.0722656,7.4516602 15.0351563,7.503418 14.9931641,7.5561523 14.9521484,7.6098633 
		15.0507813,7.1254883 14.2695313,7.1254883 13.7587891,9.9941406 13.7587891,9.9941406 13.7587891,9.9941406 	"/>
	<polyline fill="#FFFFFF" points="13.7587891,9.9941406 14.5283203,9.9941406 14.5410156,9.9941406 14.8037109,8.4697266 
		14.8037109,8.4697266 14.8134766,8.4111328 14.828125,8.3549805 14.8417969,8.2988281 14.859375,8.2446289 14.8828125,8.1914063 
		14.9101563,8.140625 14.9414063,8.0917969 14.9804688,8.046875 15.0244141,8.0068359 15.0722656,7.9663086 15.1328125,7.934082 
		15.1982422,7.9042969 15.2753906,7.8803711 15.359375,7.859375 15.4511719,7.8457031 15.5576172,7.8378906 15.5576172,7.8378906 
		15.5673828,7.8378906 15.578125,7.8408203 15.5908203,7.8432617 15.6044922,7.8432617 15.6181641,7.8457031 15.6298828,7.8486328 
		15.6367188,7.8505859 15.6386719,7.8505859 15.6386719,7.8505859 15.6416016,7.8408203 15.6503906,7.8081055 15.6611328,7.7597656 
		15.6757813,7.7011719 15.6943359,7.6318359 15.7138672,7.5561523 15.7373047,7.4814453 15.7626953,7.4067383 15.7626953,7.4067383 
		15.7832031,7.3554688 15.8115234,7.3046875 15.8378906,7.2539063 15.8652344,7.2084961 15.8896484,7.1679688 15.9101563,7.1357422 
		15.9238281,7.1171875 15.9296875,7.1088867 15.9296875,7.1088867 15.9267578,7.1088867 15.9150391,7.1064453 15.9013672,7.1035156 
		15.8828125,7.1010742 15.8632813,7.1010742 15.8417969,7.0981445 15.8232422,7.0957031 15.8037109,7.0957031 15.8037109,7.0957031 
		15.71875,7.1010742 15.6416016,7.1088867 15.5712891,7.1225586 15.5058594,7.1386719 15.4423828,7.1601563 15.3867188,7.1865234 
		15.3349609,7.2138672 15.2851563,7.2456055 15.2392578,7.2807617 15.1953125,7.3203125 15.1533203,7.3608398 15.1142578,7.4067383 
		15.0722656,7.4516602 15.0351563,7.503418 14.9931641,7.5561523 14.9521484,7.6098633 15.0507813,7.1254883 14.2695313,7.1254883 
		13.7587891,9.9941406 13.7587891,9.9941406 	"/>
	<path fill="#FFFFFF" d="M7.2529297,7.6850586l0.1044922-0.0854492L7.3842773,7.519043L7.3632813,7.4467773L7.3208008,7.3823242
		l-0.0605469-0.059082L7.1894531,7.2724609L7.1098633,7.2270508l-0.081543-0.0375977L6.9448242,7.1572266L6.8574219,7.1328125
		L6.7734375,7.1142578L6.6914063,7.5527344L6.6152344,8H6.5195313H6.4248047H6.3349609H6.2475586H6.1625977H6.0805664
		l-0.078125-0.4501953L5.9257813,7.328125L5.8525391,7.6503906L5.7807617,8H5.7099609L5.6445313,7.578125L5.5805664,7.3725586
		l-0.065918-0.090332L5.4550781,7.25L5.394043,7.2460938L5.2006836,7.8774414L5.2299805,7.855957l0.0385742-0.0229492
		l0.050293-0.0180664l0.0585938-0.015625l0.0664063-0.0151367l0.0708008-0.0131836l0.0795898-0.0136719L5.6748047,7.746582
		l0.0849609-0.0107422l0.0869141-0.0078125l0.0878906-0.0078125l0.0898438,0.1381836L6.1103516,8h0.0849609l0.0820313-0.1416016
		l0.0766602-0.0688477l0.0708008-0.0307617l0.065918-0.0024414l0.0556641,0.0151367l0.0527344,0.0302734L6.6430664,7.840332
		L6.675293,7.887207L6.699707,7.9399414l0.0112305,0.0595703L6.7055664,8.0488281L6.6914063,8.105957L6.675293,8.5678711
		L6.6699219,9H6.6625977L6.6342773,8.5839844L6.5966797,8.7924805L6.5463867,9h-0.059082H6.4272461H6.3618164h-0.0625H6.2695313
		L6.2304688,8.5825195L6.1899414,8.7875977L6.1464844,9H6.1025391H6.0537109h-0.046875H5.9614258l-0.046875-0.4013672
		L5.8740234,8.7954102L5.8349609,9h-0.03125H5.7729492H5.7543945H5.7412109H5.7348633L5.6396484,8.6220703L5.5473633,8.449707
		l-0.090332-0.0688477L5.3696289,8.3691406l-0.081543,0.0175781L5.2094727,8.425293L5.1323242,8.4765625L5.0644531,8.5341797
		l-0.065918,0.0654297l-0.0561523,0.074707L4.8925781,8.7514648L4.8486328,8.8369141l-0.034668,0.0908203l-0.027832,0.09375
		L3.8896484,9.1210938L3,9.2246094v0.0595703L3.8867188,9.34375l0.4472656,0.0605469l0.2329102,0.0625l0.1259766,0.0585938
		L4.769043,9.5839844L4.824707,9.6435547l0.0458984,0.0556641l0.0463867,0.0537109l0.0463867,0.0507813l0.0561523,0.0478516
		l0.0615234,0.0429688l0.0683594,0.0410156l0.0761719,0.0351563l0.0874023,0.0253906l0.0952148,0.0244141L5.4819336,10.03125
		l0.0761719,0.0078125l0.078125-0.0019531L5.7158203,10.03125l0.0820313-0.0107422l0.0795898-0.015625l0.0776367-0.0185547
		l0.0786133-0.0234375l0.0751953-0.0273438l0.0698242-0.0322266l0.0688477-0.0322266l0.065918-0.0371094l0.0561523-0.0380859
		l0.0517578-0.0400391l0.0444336-0.0429688L6.503418,9.6699219L6.4931641,9.7109375L6.4819336,9.7851563l-0.0141602,0.6025391
		L6.4492188,11h0.6870117l0.1088867-1.0976563l0.0078125-1.6655273L7,7.878418V7.7758789L7.2529297,7.6850586z M6.5742188,8.7700195
		L6.5581055,8.855957l-0.019043,0.0878906L6.5170898,9.0214844L6.5087891,9.0507813L6.4946289,9.0800781L6.4794922,9.1123047
		l-0.019043,0.0322266L6.4379883,9.1777344L6.4111328,9.2070313L6.3789063,9.2392578L6.3432617,9.265625L6.3012695,9.2949219
		L6.2558594,9.3193359L6.2036133,9.34375L6.1494141,9.3613281L6.0864258,9.3789063L6.015625,9.3886719L5.9428711,9.3964844
		L5.8603516,9.3994141L5.8164063,9.3964844l-0.043457-0.0078125l-0.0454102-0.015625L5.6865234,9.3457031L5.6503906,9.3056641
		L5.6230469,9.2519531L5.609375,9.1796875l0.0029297-0.0917969l0.0087891-0.0419922l0.0151367-0.0429688L5.6557617,8.965332
		l0.0273438-0.034668l0.0302734-0.0322266l0.0327148-0.0317383l0.034668-0.0268555l0.0390625-0.0268555l0.0351563-0.0219727
		l0.0380859-0.0185547l0.0351563-0.0185547l0.0356445-0.015625l0.0302734-0.0136719l0.0302734-0.0102539l0.0214844-0.0083008
		l0.019043-0.0058594l0.0302734-0.0078125L6.1274414,8.684082l0.0375977-0.0078125l0.0419922-0.0053711l0.0424805-0.0053711
		L6.2939453,8.659668L6.340332,8.6557617l0.043457-0.0014648h0.0410156h0.0410156l0.0351563,0.0014648L6.53125,8.6601563
		l0.0268555,0.0053711l0.0161133,0.0083008l0.0112305,0.0131836l0.003418,0.0131836L6.5742188,8.7700195z"/>
	<path fill-rule="evenodd" clip-rule="evenodd" fill="#FFFFFF" d="M21.0195313,7.6850586l-0.0146484-0.0854492L20.9746094,7.519043
		l-0.0517578-0.0722656l-0.0605469-0.0644531l-0.0673828-0.059082L20.71875,7.2724609l-0.0810547-0.0454102l-0.0849609-0.0375977
		l-0.0820313-0.0322266l-0.0878906-0.0244141l-0.0849609-0.0185547l-0.0830078,0.4384766L20.140625,8h-0.0927734h-0.0927734
		h-0.0878906h-0.0839844h-0.0849609h-0.0791016l-0.0791016-0.4501953L19.4638672,7.328125L19.390625,7.6503906L19.3183594,8
		h-0.0673828l-0.0693359-0.421875l-0.0634766-0.2055664l-0.0634766-0.090332L18.9921875,7.25l-0.0595703-0.0039063
		l-0.1914063,0.6313477l0.0302734-0.0214844l0.0390625-0.0229492l0.0478516-0.0180664l0.0595703-0.015625l0.0654297-0.0151367
		l0.0712891-0.0131836l0.078125-0.0136719l0.0839844-0.0107422l0.0830078-0.0107422l0.0878906-0.0078125l0.0859375-0.0078125
		l0.0908203,0.1381836L19.6533203,8h0.0830078l0.0810547-0.1416016l0.0771484-0.0688477l0.0654297-0.0307617l0.0605469-0.0024414
		l0.0566406,0.0151367l0.0498047,0.0302734l0.0400391,0.0385742l0.0351563,0.046875l0.0214844,0.0527344l0.0126953,0.0595703
		l-0.0068359,0.0493164L20.2216797,8.105957l-0.0087891,0.4619141L20.2080078,9h-0.0107422L20.171875,8.5839844
		l-0.0419922,0.2084961L20.0771484,9h-0.0605469h-0.0615234h-0.0654297h-0.0654297h-0.03125l-0.0361328-0.4174805
		l-0.0390625,0.2050781L19.6728516,9h-0.0449219h-0.046875h-0.0488281h-0.046875l-0.0429688-0.4013672l-0.0410156,0.1967773
		L19.3642578,9h-0.0371094h-0.0273438h-0.0195313h-0.0117188h-0.0068359l-0.0917969-0.3779297L19.078125,8.449707
		l-0.0888672-0.0688477l-0.0839844-0.0117188l-0.0839844,0.0175781L18.7412109,8.425293l-0.0732422,0.0512695l-0.0703125,0.0576172
		l-0.0634766,0.0654297l-0.0566406,0.074707l-0.0517578,0.0771484l-0.0400391,0.0854492l-0.0371094,0.0908203l-0.0234375,0.09375
		l-0.6679688,0.0996094L17,9.2246094v0.0595703L17.6572266,9.34375l0.3330078,0.0605469l0.1748047,0.0625l0.0947266,0.0585938
		l0.0615234,0.0585938l0.0449219,0.0595703l0.0449219,0.0556641l0.0419922,0.0537109l0.0439453,0.0507813l0.0537109,0.0478516
		l0.0625,0.0429688l0.0693359,0.0410156l0.0771484,0.0351563l0.0878906,0.0253906l0.0976563,0.0244141l0.0751953,0.0107422
		l0.0722656,0.0078125l0.0771484-0.0019531l0.0791016-0.0058594l0.0761719-0.0107422l0.0761719-0.0126953l0.0751953-0.0214844
		l0.0742188-0.0214844l0.0683594-0.0263672L19.6865234,9.90625l0.0664063-0.0322266l0.0576172-0.0351563l0.0537109-0.0380859
		l0.0488281-0.0371094l0.0419922-0.0400391l-0.4589844-0.0400391L19,9.7158203v0.0722656v0.0644531L19.9755859,11h0.6845703
		l0.1123047-1.0976563l0.2529297-1.6655273L21,7.878418V7.7758789L21.0195313,7.6850586z M20.1054688,8.7670898
		l-0.0087891,0.0756836l-0.0146484,0.0776367l-0.0107422,0.074707l-0.0078125,0.0292969l-0.0107422,0.0322266l-0.0136719,0.03125
		l-0.0185547,0.0332031L19.9960938,9.15625l-0.03125,0.03125l-0.03125,0.0351563l-0.0390625,0.0292969l-0.0429688,0.0322266
		l-0.0498047,0.0263672L19.75,9.3359375l-0.0595703,0.0205078L19.6279297,9.375l-0.0722656,0.0136719l-0.0751953,0.0078125
		l-0.0830078,0.0029297l-0.0449219-0.0029297l-0.046875-0.0078125l-0.0449219-0.015625l-0.0410156-0.0273438l-0.0341797-0.0400391
		l-0.0205078-0.0537109l-0.0136719-0.0722656l0.0019531-0.0917969l0.0068359-0.0449219L19.1777344,9l0.0195313-0.0400391
		l0.0234375-0.0375977l0.0302734-0.034668l0.0292969-0.0288086l0.0361328-0.0302734l0.0361328-0.0239258l0.0351563-0.0239258
		l0.0361328-0.0185547l0.0351563-0.0161133l0.0361328-0.0161133L19.5244141,8.71875l0.0263672-0.0078125l0.0224609-0.0078125
		l0.0185547-0.0029297l0.0273438-0.0053711l0.0361328-0.0078125l0.0351563-0.0053711l0.0410156-0.0083008l0.0400391-0.0048828
		l0.0429688-0.0058594l0.0439453-0.0053711l0.0449219-0.0029297h0.0410156h0.0400391h0.0361328l0.0302734,0.0014648
		l0.0263672,0.0078125l0.0195313,0.0078125l0.0087891,0.0131836l0.0068359,0.015625L20.1054688,8.7670898z"/>
	<path fill="#FFFFFF" d="M25.0917969,8l-0.1894531,0.2978516l-0.0166016-0.4101563l-0.0224609-0.2197266l-0.0244141-0.1293945
		l-0.0273438-0.0825195l-0.0322266-0.0585938l-0.0351563-0.0454102l-0.0419922-0.0415039l-0.0429688-0.0351563l-0.0488281-0.0297852
		l-0.0537109-0.0317383L24.5,7.1894531l-0.0625-0.0214844l-0.0644531-0.0185547l-0.0722656-0.0136719l-0.0751953-0.0083008
		l-0.0791016-0.0019531l-0.1123047,0.0053711l-0.1074219,0.015625l-0.109375,0.0239258l-0.1103516,0.0380859l-0.1035156,0.0454102
		l-0.1025391,0.059082l-0.1015625,0.0664063l-0.0957031,0.0776367l-0.0888672,0.0888672l-0.0849609,0.0961914l-0.0820313,0.1069336
		l-0.0703125,0.1210938l-0.0693359,0.128418l-0.0566406,0.1362305l-0.0488281,0.1503906l-0.0419922,0.1582031l-0.0224609,0.1362305
		l-0.0146484,0.1367188L22.7197266,8.855957l0.0097656,0.1362305l0.0214844,0.1367188L22.78125,9.2597656l0.0429688,0.1269531
		l0.0537109,0.1201172l0.0664063,0.1123047L23.0205078,9.71875l0.0878906,0.0898438l0.0966797,0.078125l0.109375,0.0625
		l0.1210938,0.0449219l0.1308594,0.5126953L23.7070313,11h0.0546875l0.0556641-0.4853516l0.0507813-0.2470703l0.0556641-0.1279297
		l0.0546875-0.0693359l0.0517578-0.0439453l0.0507813-0.0283203l0.0507813-0.0253906l0.0517578-0.0283203l0.0498047-0.0263672
		l0.0488281-0.0292969l0.0488281-0.0371094l0.0488281-0.0371094l0.046875-0.0429688l-0.2128906-0.0478516L24,9.6699219v0.0263672
		L24.4628906,11h0.7548828l0.6162109-3H25.0917969z M24.8066406,8.4379883L24.7529297,8.515625l-0.0351563,0.0751953
		l-0.0263672,0.0717773l-0.0244141,0.0727539l-0.0253906,0.0693359L24.6132813,8.871582l-0.0292969,0.0644531l-0.0361328,0.0620117
		l-0.0400391,0.0585938L24.4677734,9.109375l-0.046875,0.0488281l-0.0498047,0.0458984l-0.0556641,0.0400391l-0.0566406,0.0322266
		l-0.0644531,0.0292969l-0.0644531,0.0185547l-0.0703125,0.015625l-0.0771484,0.0058594L23.875,9.3242188L23.7841797,9.265625
		l-0.0703125-0.0878906l-0.0546875-0.1103516l-0.0361328-0.1259766l-0.0195313-0.1308594l-0.0058594-0.1289063l0.0146484-0.1176758
		l0.0166016-0.0776367l0.0214844-0.0776367l0.0214844-0.0722656l0.0273438-0.0727539l0.0302734-0.0693359l0.0361328-0.0644531
		l0.0361328-0.0620117L23.84375,8.0097656l0.0458984-0.0512695l0.046875-0.0454102l0.0537109-0.0429688l0.0546875-0.0351563
		l0.0634766-0.0268555l0.0625-0.0209961l0.0683594-0.0112305L24.3125,7.7709961l0.0585938,0.0048828l0.0498047,0.0136719
		l0.0498047,0.0214844l0.046875,0.0322266l0.0410156,0.0371094l0.0341797,0.0429688L24.625,7.9746094l0.0283203,0.0537109
		l0.0214844,0.0615234l0.0195313,0.0639648l0.0107422,0.0664063l0.0537109,0.0703125l0.0478516,0.074707V8.4379883z"/>
</g>
<g>
	<polygon fill-rule="evenodd" clip-rule="evenodd" fill="#DCDCDC" points="26.7578125,7.578125 26.7294922,7.1762695 
		26.6777344,6.7797852 26.6083984,6.3911133 26.5195313,6.0083008 26.4121094,5.6328125 26.2861328,5.2631836 26.1445313,4.9047852 
		25.9833984,4.5537109 25.8095703,4.2104492 25.6162109,3.8813477 25.4101563,3.5571289 25.1875,3.2456055 24.9521484,2.9487305 
		24.703125,2.659668 24.4384766,2.3837891 24.1630859,2.1210938 23.8730469,1.8720703 23.5732422,1.6362305 23.2617188,1.4135742 
		22.9384766,1.2075195 22.6054688,1.0175781 22.2626953,0.84375 21.9091797,0.6821289 21.5478516,0.5410156 21.1777344,0.4150391 
		20.7998047,0.3076172 20.4169922,0.2192383 20.0234375,0.1499023 19.6269531,0.0981445 19.2216797,0.0693359 18.8125,0.0585938 
		18.4052734,0.0693359 18.0009766,0.0981445 17.6044922,0.1499023 17.2128906,0.2192383 16.8300781,0.3076172 16.4521484,0.4150391 
		16.0849609,0.5410156 15.7236328,0.6821289 15.3720703,0.84375 15.0322266,1.0175781 14.7001953,1.2075195 14.3789063,1.4135742 
		14.0683594,1.6362305 13.7675781,1.8720703 13.5,2.1049805 13.2324219,1.8720703 12.9316406,1.6362305 12.6210938,1.4135742 
		12.2998047,1.2075195 11.9677734,1.0175781 11.6279297,0.84375 11.2763672,0.6821289 10.9150391,0.5410156 10.5478516,0.4150391 
		10.1708984,0.3076172 9.7871094,0.2192383 9.3964844,0.1499023 9,0.0981445 8.5947266,0.0693359 8.1875,0.0585938 
		7.7783203,0.0693359 7.3740234,0.0981445 6.9775391,0.1499023 6.5839844,0.2192383 6.2001953,0.3076172 5.8232422,0.4150391 
		5.453125,0.5410156 5.0908203,0.6821289 4.7373047,0.84375 4.3955078,1.0175781 4.0625,1.2075195 3.7382813,1.4135742 
		3.4277344,1.6362305 3.1279297,1.8720703 2.8378906,2.1210938 2.5625,2.3837891 2.296875,2.659668 2.0478516,2.9487305 
		1.8125,3.2456055 1.5898438,3.5571289 1.3837891,3.8813477 1.1904297,4.2104492 1.0166016,4.5537109 0.8564453,4.9047852 
		0.7138672,5.2631836 0.5878906,5.6328125 0.4814453,6.0083008 0.3925781,6.3911133 0.3232422,6.7797852 0.2714844,7.1762695 
		0.2421875,7.578125 0.2314453,7.9853516 0.2421875,8.3950195 0.2714844,8.7998047 0.3232422,9.1953125 0.3925781,9.5898438 
		0.4814453,9.9726563 0.5878906,10.3505859 0.7138672,10.7207031 0.8564453,11.0820313 1.0166016,11.4355469 1.1904297,11.7783203 
		1.3837891,12.1103516 1.5898438,12.4345703 1.8125,12.7460938 2.0478516,13.0449219 2.296875,13.3349609 2.5625,13.6113281 
		2.8378906,13.8759766 3.1279297,14.125 3.4277344,14.3613281 3.7382813,14.5830078 4.0625,14.7890625 4.3955078,14.9824219 
		4.7373047,15.15625 5.0908203,15.3164063 5.453125,15.4589844 5.8232422,15.5849609 6.2001953,15.6914063 6.5839844,15.7802734 
		6.9775391,15.8496094 7.3740234,15.9003906 7.7783203,15.9306641 8.1875,15.9414063 8.5947266,15.9306641 9,15.9003906 
		9.3964844,15.8496094 9.7871094,15.7802734 10.1708984,15.6914063 10.5478516,15.5849609 10.9150391,15.4589844 
		11.2763672,15.3164063 11.6279297,15.15625 11.9677734,14.9824219 12.2998047,14.7890625 12.6210938,14.5830078 
		12.9316406,14.3613281 13.2324219,14.125 13.5,13.8925781 13.7675781,14.125 14.0683594,14.3613281 14.3789063,14.5830078 
		14.7001953,14.7890625 15.0322266,14.9824219 15.3720703,15.15625 15.7236328,15.3164063 16.0849609,15.4589844 
		16.4521484,15.5849609 16.8300781,15.6914063 17.2128906,15.7802734 17.6044922,15.8496094 18.0009766,15.9003906 
		18.4052734,15.9306641 18.8125,15.9414063 19.2216797,15.9306641 19.6269531,15.9003906 20.0234375,15.8496094 
		20.4169922,15.7802734 20.7998047,15.6914063 21.1777344,15.5849609 21.5478516,15.4589844 21.9091797,15.3164063 
		22.2626953,15.15625 22.6054688,14.9824219 22.9384766,14.7890625 23.2617188,14.5830078 23.5732422,14.3613281 23.8730469,14.125 
		24.1630859,13.8759766 24.4384766,13.6113281 24.703125,13.3349609 24.9521484,13.0449219 25.1875,12.7460938 
		25.4101563,12.4345703 25.6162109,12.1103516 25.8095703,11.7783203 25.9833984,11.4355469 26.1445313,11.0820313 
		26.2861328,10.7207031 26.4121094,10.3505859 26.5195313,9.9726563 26.6083984,9.5898438 26.6777344,9.1953125 
		26.7294922,8.7998047 26.7578125,8.3950195 26.7685547,7.9853516 	"/>
	<polygon fill-rule="evenodd" clip-rule="evenodd" fill="#FFFFFF" points="9.7255859,7.7441406 9.6884766,7.7412109 
		9.6503906,7.7358398 9.6152344,7.7304688 9.5810547,7.7250977 9.5488281,7.7202148 9.5146484,7.7148438 9.4794922,7.7094727 
		9.4414063,7.7041016 9.4042969,7.6982422 9.3613281,7.6958008 9.3134766,7.6928711 9.2617188,7.690918 9.2060547,7.690918 
		9.1445313,7.6928711 9.0742188,7.6982422 8.9970703,7.7041016 8.9433594,7.7119141 8.8925781,7.7202148 8.8466797,7.7358398 
		8.8066406,7.7519531 8.7695313,7.7709961 8.734375,7.7924805 8.7080078,7.8193359 8.6835938,7.8432617 8.6679688,7.8725586 
		8.6542969,7.9023438 8.6484375,7.934082 8.6484375,7.9663086 8.6572266,8.0009766 8.6679688,8.0361328 8.6894531,8.0708008 
		8.7158203,8.105957 8.7695313,8.15625 8.8339844,8.1962891 8.9091797,8.2314453 8.9882813,8.2607422 9.0742188,8.2880859 
		9.1630859,8.3168945 9.2519531,8.3496094 9.3369141,8.3842773 9.4179688,8.4301758 9.4931641,8.4863281 9.5595703,8.5527344 
		9.6152344,8.6357422 9.6591797,8.7382813 9.6855469,8.8588867 9.6962891,9.0029297 9.6855469,9.171875 9.6669922,9.2988281 
		9.6337891,9.4072266 9.5917969,9.5097656 9.5380859,9.5976563 9.4765625,9.6757813 9.4072266,9.7421875 9.3320313,9.8007813 
		9.2490234,9.8515625 9.1630859,9.8925781 9.0742188,9.9277344 8.9833984,9.9541016 8.8896484,9.9755859 8.7988281,9.9912109 
		8.7099609,10 8.6220703,10.0048828 8.5390625,10.0078125 8.4238281,10.0078125 8.3164063,10.0048828 8.2226563,10.0048828 
		8.1347656,10.0019531 8.0537109,10 7.9814453,9.9941406 7.9179688,9.9892578 7.8564453,9.9804688 7.7998047,9.9755859 
		7.7490234,9.9648438 7.6972656,9.9570313 7.6523438,9.9433594 7.6064453,9.9326172 7.5634766,9.9160156 7.5205078,9.9003906 
		7.4755859,9.8837891 7.5966797,9.2919922 7.6201172,9.2988281 7.6494141,9.3056641 7.6865234,9.3164063 7.7324219,9.3271484 
		7.78125,9.3378906 7.8349609,9.3486328 7.8935547,9.3613281 7.9570313,9.3730469 8.0244141,9.3837891 8.09375,9.3945313 
		8.1660156,9.4023438 8.2421875,9.4101563 8.3193359,9.4121094 8.3964844,9.4160156 8.4746094,9.4160156 8.5527344,9.4121094 
		8.6298828,9.3964844 8.6914063,9.375 8.7402344,9.3457031 8.7773438,9.3085938 8.8046875,9.2714844 8.8251953,9.2285156 
		8.8388672,9.1845703 8.8496094,9.1445313 8.8544922,9.0673828 8.8310547,9 8.7851563,8.9467773 8.7177734,8.9013672 
		8.6386719,8.8613281 8.5439453,8.8208008 8.4394531,8.7836914 8.3349609,8.7402344 8.2285156,8.6923828 8.1269531,8.6357422 
		8.0322266,8.5664063 7.9462891,8.4833984 7.8798828,8.3818359 7.8320313,8.2607422 7.8076172,8.1162109 7.8105469,7.9448242 
		7.8232422,7.8408203 7.8417969,7.7412109 7.8691406,7.6503906 7.9013672,7.5644531 7.9443359,7.484375 7.9921875,7.4145508 
		8.0488281,7.3476563 8.1162109,7.2885742 8.1933594,7.2382813 8.2792969,7.1948242 8.3759766,7.1547852 8.4833984,7.1254883 
		8.6035156,7.1010742 8.734375,7.0825195 8.8789063,7.0717773 9.0371094,7.0693359 9.1367188,7.0693359 9.2275391,7.0717773 
		9.3105469,7.0737305 9.3857422,7.0771484 9.4521484,7.0825195 9.5146484,7.0878906 9.5673828,7.0932617 9.6152344,7.0981445 
		9.6611328,7.1035156 9.6992188,7.1118164 9.7333984,7.1171875 9.7666016,7.1225586 9.7929688,7.1274414 9.8173828,7.1308594 
		9.8408203,7.1357422 9.8623047,7.1386719 9.7255859,7.7441406 9.7255859,7.7441406 	"/>
	<polyline fill="#FFFFFF" points="9.7255859,7.7441406 9.7255859,7.7441406 9.6884766,7.7412109 9.6503906,7.7358398 
		9.6152344,7.7304688 9.5810547,7.7250977 9.5488281,7.7202148 9.5146484,7.7148438 9.4794922,7.7094727 9.4414063,7.7041016 
		9.4042969,7.6982422 9.3613281,7.6958008 9.3134766,7.6928711 9.2617188,7.690918 9.2060547,7.690918 9.1445313,7.6928711 
		9.0742188,7.6982422 8.9970703,7.7041016 8.9970703,7.7041016 8.9433594,7.7119141 8.8925781,7.7202148 8.8466797,7.7358398 
		8.8066406,7.7519531 8.7695313,7.7709961 8.734375,7.7924805 8.7080078,7.8193359 8.6835938,7.8432617 8.6679688,7.8725586 
		8.6542969,7.9023438 8.6484375,7.934082 8.6484375,7.9663086 8.6572266,8.0009766 8.6679688,8.0361328 8.6894531,8.0708008 
		8.7158203,8.105957 8.7158203,8.105957 8.7695313,8.15625 8.8339844,8.1962891 8.9091797,8.2314453 8.9882813,8.2607422 
		9.0742188,8.2880859 9.1630859,8.3168945 9.2519531,8.3496094 9.3369141,8.3842773 9.4179688,8.4301758 9.4931641,8.4863281 
		9.5595703,8.5527344 9.6152344,8.6357422 9.6591797,8.7382813 9.6855469,8.8588867 9.6962891,9.0029297 9.6855469,9.171875 
		9.6855469,9.171875 9.6669922,9.2988281 9.6337891,9.4072266 9.5917969,9.5097656 9.5380859,9.5976563 9.4765625,9.6757813 
		9.4072266,9.7421875 9.3320313,9.8007813 9.2490234,9.8515625 9.1630859,9.8925781 9.0742188,9.9277344 8.9833984,9.9541016 
		8.8896484,9.9755859 8.7988281,9.9912109 8.7099609,10 8.6220703,10.0048828 8.5390625,10.0078125 8.5390625,10.0078125 
		8.4238281,10.0078125 8.3164063,10.0048828 8.2226563,10.0048828 8.1347656,10.0019531 8.0537109,10 7.9814453,9.9941406 
		7.9179688,9.9892578 7.8564453,9.9804688 7.7998047,9.9755859 7.7490234,9.9648438 7.6972656,9.9570313 7.6523438,9.9433594 
		7.6064453,9.9326172 7.5634766,9.9160156 7.5205078,9.9003906 7.4755859,9.8837891 7.5966797,9.2919922 7.5966797,9.2919922 
		7.6201172,9.2988281 7.6494141,9.3056641 7.6865234,9.3164063 7.7324219,9.3271484 7.78125,9.3378906 7.8349609,9.3486328 
		7.8935547,9.3613281 7.9570313,9.3730469 8.0244141,9.3837891 8.09375,9.3945313 8.1660156,9.4023438 8.2421875,9.4101563 
		8.3193359,9.4121094 8.3964844,9.4160156 8.4746094,9.4160156 8.5527344,9.4121094 8.5527344,9.4121094 8.6298828,9.3964844 
		8.6914063,9.375 8.7402344,9.3457031 8.7773438,9.3085938 8.8046875,9.2714844 8.8251953,9.2285156 8.8388672,9.1845703 
		8.8496094,9.1445313 8.8496094,9.1445313 8.8544922,9.0673828 8.8310547,9 8.7851563,8.9467773 8.7177734,8.9013672 
		8.6386719,8.8613281 8.5439453,8.8208008 8.4394531,8.7836914 8.3349609,8.7402344 8.2285156,8.6923828 8.1269531,8.6357422 
		8.0322266,8.5664063 7.9462891,8.4833984 7.8798828,8.3818359 7.8320313,8.2607422 7.8076172,8.1162109 7.8105469,7.9448242 
		7.8105469,7.9448242 7.8232422,7.8408203 7.8417969,7.7412109 7.8691406,7.6503906 7.9013672,7.5644531 7.9443359,7.484375 
		7.9921875,7.4145508 8.0488281,7.3476563 8.1162109,7.2885742 8.1933594,7.2382813 8.2792969,7.1948242 8.3759766,7.1547852 
		8.4833984,7.1254883 8.6035156,7.1010742 8.734375,7.0825195 8.8789063,7.0717773 9.0371094,7.0693359 9.0371094,7.0693359 
		9.1367188,7.0693359 9.2275391,7.0717773 9.3105469,7.0737305 9.3857422,7.0771484 9.4521484,7.0825195 9.5146484,7.0878906 
		9.5673828,7.0932617 9.6152344,7.0981445 9.6611328,7.1035156 9.6992188,7.1118164 9.7333984,7.1171875 9.7666016,7.1225586 
		9.7929688,7.1274414 9.8173828,7.1308594 9.8408203,7.1357422 9.8623047,7.1386719 9.7255859,7.7441406 	"/>
	<polygon fill-rule="evenodd" clip-rule="evenodd" fill="#FFFFFF" points="10.3603516,6.4765625 11.1025391,6.4765625 
		10.9931641,7.1254883 11.4404297,7.1254883 11.34375,7.7304688 10.8720703,7.7167969 10.6152344,9.2119141 10.6123047,9.265625 
		10.6259766,9.3105469 10.6533203,9.3457031 10.6875,9.375 10.7353516,9.3945313 10.7890625,9.4101563 10.8476563,9.4208984 
		10.9130859,9.4267578 10.9716797,9.4238281 11.0244141,9.4179688 11.0732422,9.4101563 11.1162109,9.3994141 11.1503906,9.3886719 
		11.1748047,9.3808594 11.1914063,9.375 11.1962891,9.3730469 11.1025391,9.8710938 11.0839844,9.8837891 11.0654297,9.8945313 
		11.046875,9.90625 11.0273438,9.9160156 11.0087891,9.9238281 10.9873047,9.9326172 10.9628906,9.9404297 10.9394531,9.9492188 
		10.9130859,9.9570313 10.8857422,9.9628906 10.8535156,9.9667969 10.8212891,9.9726563 10.7861328,9.9785156 10.7460938,9.9833984 
		10.7041016,9.9892578 10.6572266,9.9941406 10.4541016,9.9941406 10.3476563,9.9863281 10.2529297,9.9755859 10.1679688,9.9589844 
		10.0957031,9.9404297 10.0341797,9.9160156 9.9824219,9.890625 9.9375,9.8574219 9.9023438,9.8222656 9.8759766,9.7851563 
		9.8564453,9.7402344 9.84375,9.6943359 9.8359375,9.6435547 9.8330078,9.5869141 9.8330078,9.5273438 9.8408203,9.4667969 
		9.8486328,9.3994141 10.3603516,6.4765625 10.3603516,6.4765625 	"/>
	<polyline fill="#FFFFFF" points="10.3603516,6.4765625 11.1025391,6.4765625 10.9931641,7.1254883 11.4404297,7.1254883 
		11.34375,7.7304688 10.8720703,7.7167969 10.6152344,9.2119141 10.6152344,9.2119141 10.6123047,9.265625 10.6259766,9.3105469 
		10.6533203,9.3457031 10.6875,9.375 10.7353516,9.3945313 10.7890625,9.4101563 10.8476563,9.4208984 10.9130859,9.4267578 
		10.9130859,9.4267578 10.9716797,9.4238281 11.0244141,9.4179688 11.0732422,9.4101563 11.1162109,9.3994141 11.1503906,9.3886719 
		11.1748047,9.3808594 11.1914063,9.375 11.1962891,9.3730469 11.1025391,9.8710938 11.1025391,9.8710938 11.0839844,9.8837891 
		11.0654297,9.8945313 11.046875,9.90625 11.0273438,9.9160156 11.0087891,9.9238281 10.9873047,9.9326172 10.9628906,9.9404297 
		10.9394531,9.9492188 10.9130859,9.9570313 10.8857422,9.9628906 10.8535156,9.9667969 10.8212891,9.9726563 10.7861328,9.9785156 
		10.7460938,9.9833984 10.7041016,9.9892578 10.6572266,9.9941406 10.4541016,9.9941406 10.4541016,9.9941406 10.3476563,9.9863281 
		10.2529297,9.9755859 10.1679688,9.9589844 10.0957031,9.9404297 10.0341797,9.9160156 9.9824219,9.890625 9.9375,9.8574219 
		9.9023438,9.8222656 9.8759766,9.7851563 9.8564453,9.7402344 9.84375,9.6943359 9.8359375,9.6435547 9.8330078,9.5869141 
		9.8330078,9.5273438 9.8408203,9.4667969 9.8486328,9.3994141 10.3603516,6.4765625 	"/>
	<polygon fill-rule="evenodd" clip-rule="evenodd" fill="#FFFFFF" points="12.0322266,8.7402344 12.0244141,8.7866211 
		12.0214844,8.8344727 12.0263672,8.8852539 12.0371094,8.9360352 12.0566406,8.9873047 12.078125,9.0351563 12.1074219,9.0859375 
		12.1396484,9.1318359 12.1767578,9.1777344 12.2167969,9.2177734 12.2597656,9.2578125 12.3076172,9.2900391 12.3564453,9.3193359 
		12.4101563,9.34375 12.4638672,9.3613281 12.5175781,9.3730469 12.5869141,9.3837891 12.6533203,9.3916016 12.7236328,9.3994141 
		12.7929688,9.4042969 12.8623047,9.4072266 12.9345703,9.4072266 13.0048828,9.4042969 13.0771484,9.3994141 13.1494141,9.3886719 
		13.2216797,9.375 13.296875,9.359375 13.3691406,9.3359375 13.4433594,9.3056641 13.5214844,9.2734375 13.5966797,9.2304688 
		13.6748047,9.1845703 13.5673828,9.84375 13.5244141,9.8652344 13.4804688,9.8867188 13.4384766,9.9033203 13.3984375,9.9189453 
		13.3583984,9.9326172 13.3154297,9.9453125 13.2724609,9.9570313 13.2265625,9.9648438 13.1787109,9.9726563 13.125,9.9785156 
		13.0683594,9.9833984 13.0068359,9.9892578 12.9375,9.9912109 12.8652344,9.9912109 12.7822266,9.9941406 12.6933594,9.9941406 
		12.5625,9.9912109 12.4287109,9.9785156 12.2949219,9.9589844 12.1601563,9.9277344 12.0292969,9.8867188 11.9033203,9.8359375 
		11.7832031,9.7695313 11.6699219,9.6914063 11.5664063,9.5996094 11.4755859,9.4902344 11.3974609,9.3671875 11.3330078,9.2246094 
		11.2880859,9.0673828 11.2578125,8.8876953 11.25,8.6899414 11.2636719,8.4697266 11.2734375,8.3842773 11.2900391,8.2851563 
		11.3115234,8.1806641 11.3408203,8.0678711 11.3808594,7.953125 11.4287109,7.8378906 11.4912109,7.7202148 11.5664063,7.6074219 
		11.6513672,7.5004883 11.7558594,7.3984375 11.8740234,7.3076172 12.0078125,7.2270508 12.1630859,7.1601563 12.3378906,7.1118164 
		12.5302734,7.0795898 12.7470703,7.0693359 12.8515625,7.0717773 12.9619141,7.0825195 13.0712891,7.1010742 13.1816406,7.1274414 
		13.2880859,7.1679688 13.3925781,7.2163086 13.4892578,7.2807617 13.5771484,7.3554688 13.6582031,7.4467773 13.7246094,7.5537109 
		13.7792969,7.6772461 13.8164063,7.8193359 13.8378906,7.9799805 13.8398438,8.1621094 13.8212891,8.3652344 13.78125,8.5908203 
		13.7675781,8.7539063 11.8154297,8.7539063 11.9384766,8.2265625 13.1123047,8.2265625 13.1171875,8.1591797 13.1142578,8.0947266 
		13.109375,8.0361328 13.0986328,7.9824219 13.0800781,7.9316406 13.0605469,7.8857422 13.0341797,7.8457031 13.0068359,7.8081055 
		12.9755859,7.7758789 12.9404297,7.7490234 12.9003906,7.7250977 12.8603516,7.7041016 12.8164063,7.6879883 12.7744141,7.6772461 
		12.7285156,7.6689453 12.6806641,7.6635742 12.6298828,7.6665039 12.5810547,7.6743164 12.5361328,7.6850586 12.4902344,7.7011719 
		12.4443359,7.7226563 12.4042969,7.746582 12.3642578,7.7758789 12.3300781,7.8081055 12.2949219,7.8457031 12.2626953,7.8857422 
		12.2333984,7.9287109 12.2089844,7.9746094 12.1845703,8.0224609 12.1660156,8.0761719 12.1503906,8.1298828 12.1396484,8.1860352 
		12.0322266,8.7402344 12.0322266,8.7402344 	"/>
	<polyline fill="#FFFFFF" points="12.0322266,8.7402344 12.0322266,8.7402344 12.0244141,8.7866211 12.0214844,8.8344727 
		12.0263672,8.8852539 12.0371094,8.9360352 12.0566406,8.9873047 12.078125,9.0351563 12.1074219,9.0859375 12.1396484,9.1318359 
		12.1767578,9.1777344 12.2167969,9.2177734 12.2597656,9.2578125 12.3076172,9.2900391 12.3564453,9.3193359 12.4101563,9.34375 
		12.4638672,9.3613281 12.5175781,9.3730469 12.5175781,9.3730469 12.5869141,9.3837891 12.6533203,9.3916016 12.7236328,9.3994141 
		12.7929688,9.4042969 12.8623047,9.4072266 12.9345703,9.4072266 13.0048828,9.4042969 13.0771484,9.3994141 13.1494141,9.3886719 
		13.2216797,9.375 13.296875,9.359375 13.3691406,9.3359375 13.4433594,9.3056641 13.5214844,9.2734375 13.5966797,9.2304688 
		13.6748047,9.1845703 13.5673828,9.84375 13.5673828,9.84375 13.5244141,9.8652344 13.4804688,9.8867188 13.4384766,9.9033203 
		13.3984375,9.9189453 13.3583984,9.9326172 13.3154297,9.9453125 13.2724609,9.9570313 13.2265625,9.9648438 13.1787109,9.9726563 
		13.125,9.9785156 13.0683594,9.9833984 13.0068359,9.9892578 12.9375,9.9912109 12.8652344,9.9912109 12.7822266,9.9941406 
		12.6933594,9.9941406 12.6933594,9.9941406 12.5625,9.9912109 12.4287109,9.9785156 12.2949219,9.9589844 12.1601563,9.9277344 
		12.0292969,9.8867188 11.9033203,9.8359375 11.7832031,9.7695313 11.6699219,9.6914063 11.5664063,9.5996094 11.4755859,9.4902344 
		11.3974609,9.3671875 11.3330078,9.2246094 11.2880859,9.0673828 11.2578125,8.8876953 11.25,8.6899414 11.2636719,8.4697266 
		11.2636719,8.4697266 11.2734375,8.3842773 11.2900391,8.2851563 11.3115234,8.1806641 11.3408203,8.0678711 11.3808594,7.953125 
		11.4287109,7.8378906 11.4912109,7.7202148 11.5664063,7.6074219 11.6513672,7.5004883 11.7558594,7.3984375 11.8740234,7.3076172 
		12.0078125,7.2270508 12.1630859,7.1601563 12.3378906,7.1118164 12.5302734,7.0795898 12.7470703,7.0693359 12.7470703,7.0693359 
		12.8515625,7.0717773 12.9619141,7.0825195 13.0712891,7.1010742 13.1816406,7.1274414 13.2880859,7.1679688 13.3925781,7.2163086 
		13.4892578,7.2807617 13.5771484,7.3554688 13.6582031,7.4467773 13.7246094,7.5537109 13.7792969,7.6772461 13.8164063,7.8193359 
		13.8378906,7.9799805 13.8398438,8.1621094 13.8212891,8.3652344 13.78125,8.5908203 13.7675781,8.7539063 11.8154297,8.7539063 
		11.9384766,8.2265625 13.1123047,8.2265625 13.1123047,8.2265625 13.1171875,8.1591797 13.1142578,8.0947266 13.109375,8.0361328 
		13.0986328,7.9824219 13.0800781,7.9316406 13.0605469,7.8857422 13.0341797,7.8457031 13.0068359,7.8081055 12.9755859,7.7758789 
		12.9404297,7.7490234 12.9003906,7.7250977 12.8603516,7.7041016 12.8164063,7.6879883 12.7744141,7.6772461 12.7285156,7.6689453 
		12.6806641,7.6635742 12.6806641,7.6635742 12.6298828,7.6665039 12.5810547,7.6743164 12.5361328,7.6850586 12.4902344,7.7011719 
		12.4443359,7.7226563 12.4042969,7.746582 12.3642578,7.7758789 12.3300781,7.8081055 12.2949219,7.8457031 12.2626953,7.8857422 
		12.2333984,7.9287109 12.2089844,7.9746094 12.1845703,8.0224609 12.1660156,8.0761719 12.1503906,8.1298828 12.1396484,8.1860352 
		12.0322266,8.7402344 	"/>
	<polygon fill-rule="evenodd" clip-rule="evenodd" fill="#FFFFFF" points="18.4208984,7.2861328 18.3867188,7.2670898 
		18.3515625,7.2509766 18.3134766,7.2324219 18.2744141,7.2138672 18.2333984,7.1977539 18.1884766,7.1816406 18.1425781,7.1655273 
		18.0947266,7.1494141 18.0439453,7.1357422 17.9931641,7.1254883 17.9365234,7.1142578 17.8798828,7.1064453 17.8183594,7.1010742 
		17.7568359,7.0957031 17.6923828,7.0957031 17.6259766,7.0957031 17.5585938,7.0957031 17.4892578,7.1010742 17.4160156,7.1088867 
		17.3417969,7.1225586 17.2666016,7.144043 17.1914063,7.1733398 17.1171875,7.2109375 17.0410156,7.2592773 16.9697266,7.3178711 
		16.8994141,7.3881836 16.8330078,7.4736328 16.7685547,7.5727539 16.7099609,7.690918 16.6533203,7.824707 16.6025391,7.9746094 
		16.5595703,8.1455078 16.5439453,8.2421875 16.5332031,8.3364258 16.5273438,8.4301758 16.5302734,8.5205078 16.5380859,8.6118164 
		16.5576172,8.6977539 16.5810547,8.7783203 16.6103516,8.8588867 16.6503906,8.9306641 16.6992188,9 16.7548828,9.0625 
		16.8193359,9.1181641 16.8916016,9.1669922 16.9746094,9.2070313 17.0664063,9.2421875 17.1679688,9.265625 17.2021484,9.2734375 
		17.2421875,9.28125 17.2900391,9.2871094 17.3447266,9.2919922 17.4033203,9.2988281 17.4648438,9.2988281 17.5322266,9.2988281 
		17.5986328,9.2919922 17.6689453,9.2841797 17.7382813,9.2714844 17.8056641,9.2519531 17.8720703,9.2304688 17.9384766,9.2011719 
		18.0009766,9.1669922 18.0576172,9.1230469 18.1103516,9.0751953 17.9902344,9.7910156 17.9736328,9.8037109 17.9580078,9.8203125 
		17.9365234,9.8388672 17.9121094,9.8554688 17.8828125,9.8769531 17.8457031,9.8945313 17.8017578,9.9140625 17.7539063,9.9296875 
		17.6923828,9.9492188 17.6230469,9.9628906 17.5419922,9.9726563 17.4482422,9.9833984 17.3447266,9.9892578 17.2236328,9.9912109 
		17.0869141,9.9892578 16.9365234,9.9804688 16.8144531,9.9667969 16.6904297,9.9404297 16.5673828,9.9003906 16.4443359,9.8466797 
		16.3261719,9.7832031 16.2138672,9.703125 16.1064453,9.6083984 16.0068359,9.5019531 15.9189453,9.3808594 15.84375,9.2460938 
		15.7802734,9.0966797 15.7314453,8.9335938 15.6992188,8.7539063 15.6884766,8.5639648 15.6943359,8.3549805 15.7236328,8.1323242 
		15.7451172,8.0224609 15.7685547,7.9155273 15.7958984,7.8110352 15.8232422,7.7119141 15.8525391,7.6181641 15.8876953,7.5244141 
		15.921875,7.4360352 15.9589844,7.3530273 15.9990234,7.2695313 16.0400391,7.1918945 16.0849609,7.1171875 16.1337891,7.0478516 
		16.1816406,6.9804688 16.2353516,6.9160156 16.2890625,6.8574219 16.3457031,6.8012695 16.4072266,6.7475586 16.4677734,6.6967773 
		16.5332031,6.6508789 16.5996094,6.6079102 16.671875,6.5683594 16.7441406,6.5332031 16.8193359,6.5009766 16.8974609,6.4716797 
		16.9804688,6.4448242 17.0634766,6.4238281 17.1494141,6.4047852 17.2392578,6.3886719 17.3310547,6.375 17.4267578,6.3642578 
		17.5234375,6.3588867 17.6259766,6.355957 17.7109375,6.3588867 17.7939453,6.3642578 17.875,6.3725586 17.9550781,6.3833008 
		18.0302734,6.394043 18.1025391,6.409668 18.171875,6.4238281 18.2363281,6.4394531 18.2978516,6.4555664 18.3515625,6.4716797 
		18.4023438,6.4873047 18.4453125,6.5039063 18.4833984,6.5170898 18.5146484,6.527832 18.5400391,6.5390625 18.5556641,6.5444336 
		18.4208984,7.2861328 18.4208984,7.2861328 	"/>
	<polyline fill="#FFFFFF" points="18.4208984,7.2861328 18.4208984,7.2861328 18.3867188,7.2670898 18.3515625,7.2509766 
		18.3134766,7.2324219 18.2744141,7.2138672 18.2333984,7.1977539 18.1884766,7.1816406 18.1425781,7.1655273 18.0947266,7.1494141 
		18.0439453,7.1357422 17.9931641,7.1254883 17.9365234,7.1142578 17.8798828,7.1064453 17.8183594,7.1010742 17.7568359,7.0957031 
		17.6923828,7.0957031 17.6259766,7.0957031 17.6259766,7.0957031 17.5585938,7.0957031 17.4892578,7.1010742 17.4160156,7.1088867 
		17.3417969,7.1225586 17.2666016,7.144043 17.1914063,7.1733398 17.1171875,7.2109375 17.0410156,7.2592773 16.9697266,7.3178711 
		16.8994141,7.3881836 16.8330078,7.4736328 16.7685547,7.5727539 16.7099609,7.690918 16.6533203,7.824707 16.6025391,7.9746094 
		16.5595703,8.1455078 16.5595703,8.1455078 16.5439453,8.2421875 16.5332031,8.3364258 16.5273438,8.4301758 16.5302734,8.5205078 
		16.5380859,8.6118164 16.5576172,8.6977539 16.5810547,8.7783203 16.6103516,8.8588867 16.6503906,8.9306641 16.6992188,9 
		16.7548828,9.0625 16.8193359,9.1181641 16.8916016,9.1669922 16.9746094,9.2070313 17.0664063,9.2421875 17.1679688,9.265625 
		17.1679688,9.265625 17.2021484,9.2734375 17.2421875,9.28125 17.2900391,9.2871094 17.3447266,9.2919922 17.4033203,9.2988281 
		17.4648438,9.2988281 17.5322266,9.2988281 17.5986328,9.2919922 17.6689453,9.2841797 17.7382813,9.2714844 17.8056641,9.2519531 
		17.8720703,9.2304688 17.9384766,9.2011719 18.0009766,9.1669922 18.0576172,9.1230469 18.1103516,9.0751953 17.9902344,9.7910156 
		17.9902344,9.7910156 17.9736328,9.8037109 17.9580078,9.8203125 17.9365234,9.8388672 17.9121094,9.8554688 17.8828125,9.8769531 
		17.8457031,9.8945313 17.8017578,9.9140625 17.7539063,9.9296875 17.6923828,9.9492188 17.6230469,9.9628906 17.5419922,9.9726563 
		17.4482422,9.9833984 17.3447266,9.9892578 17.2236328,9.9912109 17.0869141,9.9892578 16.9365234,9.9804688 16.9365234,9.9804688 
		16.8144531,9.9667969 16.6904297,9.9404297 16.5673828,9.9003906 16.4443359,9.8466797 16.3261719,9.7832031 16.2138672,9.703125 
		16.1064453,9.6083984 16.0068359,9.5019531 15.9189453,9.3808594 15.84375,9.2460938 15.7802734,9.0966797 15.7314453,8.9335938 
		15.6992188,8.7539063 15.6884766,8.5639648 15.6943359,8.3549805 15.7236328,8.1323242 15.7236328,8.1323242 15.7451172,8.0224609 
		15.7685547,7.9155273 15.7958984,7.8110352 15.8232422,7.7119141 15.8525391,7.6181641 15.8876953,7.5244141 15.921875,7.4360352 
		15.9589844,7.3530273 15.9990234,7.2695313 16.0400391,7.1918945 16.0849609,7.1171875 16.1337891,7.0478516 16.1816406,6.9804688 
		16.2353516,6.9160156 16.2890625,6.8574219 16.3457031,6.8012695 16.4072266,6.7475586 16.4677734,6.6967773 16.5332031,6.6508789 
		16.5996094,6.6079102 16.671875,6.5683594 16.7441406,6.5332031 16.8193359,6.5009766 16.8974609,6.4716797 16.9804688,6.4448242 
		17.0634766,6.4238281 17.1494141,6.4047852 17.2392578,6.3886719 17.3310547,6.375 17.4267578,6.3642578 17.5234375,6.3588867 
		17.6259766,6.355957 17.6259766,6.355957 17.7109375,6.3588867 17.7939453,6.3642578 17.875,6.3725586 17.9550781,6.3833008 
		18.0302734,6.394043 18.1025391,6.409668 18.171875,6.4238281 18.2363281,6.4394531 18.2978516,6.4555664 18.3515625,6.4716797 
		18.4023438,6.4873047 18.4453125,6.5039063 18.4833984,6.5170898 18.5146484,6.527832 18.5400391,6.5390625 18.5556641,6.5444336 
		18.4208984,7.2861328 	"/>
	<polygon fill-rule="evenodd" clip-rule="evenodd" fill="#FFFFFF" points="1.7158203,9.9941406 0.9873047,9.9941406 
		1.5957031,6.4765625 2.8623047,6.4765625 2.9833984,8.5639648 3.8583984,6.4765625 5.1826172,6.4765625 4.5605469,9.9941406 
		3.8320313,9.9941406 4.2929688,7.3662109 4.2636719,7.3662109 3.1728516,9.9941406 2.3505859,9.9941406 2.3457031,9.8837891 
		2.3271484,9.5917969 2.3027344,9.1777344 2.2763672,8.7001953 2.2490234,8.2202148 2.2255859,7.800293 2.2060547,7.4946289 
		2.2001953,7.3662109 2.1923828,7.3662109 2.1767578,7.3662109 2.1611328,7.3662109 2.1611328,7.3662109 1.7158203,9.9941406 
		1.7158203,9.9941406 	"/>
	<polyline fill="#FFFFFF" points="1.7158203,9.9941406 0.9873047,9.9941406 1.5957031,6.4765625 2.8623047,6.4765625 
		2.9833984,8.5639648 3.8583984,6.4765625 5.1826172,6.4765625 4.5605469,9.9941406 3.8320313,9.9941406 4.2929688,7.3662109 
		4.2636719,7.3662109 3.1728516,9.9941406 2.3505859,9.9941406 2.3505859,9.9941406 2.3457031,9.8837891 2.3271484,9.5917969 
		2.3027344,9.1777344 2.2763672,8.7001953 2.2490234,8.2202148 2.2255859,7.800293 2.2060547,7.4946289 2.2001953,7.3662109 
		2.2001953,7.3662109 2.1923828,7.3662109 2.1767578,7.3662109 2.1611328,7.3662109 2.1611328,7.3662109 1.7158203,9.9941406 	"/>
	<polygon fill-rule="evenodd" clip-rule="evenodd" fill="#FFFFFF" points="25.5175781,9.6269531 25.5224609,9.5664063 
		25.5449219,9.4931641 25.5820313,9.4296875 25.6269531,9.3730469 25.6835938,9.3271484 25.7480469,9.2949219 25.8173828,9.2734375 
		25.8916016,9.265625 25.9677734,9.2734375 26.0371094,9.2949219 26.1015625,9.3271484 26.1582031,9.3730469 26.203125,9.4296875 
		26.2412109,9.4931641 26.2626953,9.5664063 26.2666016,9.6269531 26.1875,9.6269531 26.1845703,9.5791016 26.1689453,9.5195313 
		26.1416016,9.4667969 26.1064453,9.4208984 26.0634766,9.3837891 26.0126953,9.3564453 25.9541016,9.3378906 25.8916016,9.3320313 
		25.8310547,9.3378906 25.7724609,9.3564453 25.7216797,9.3837891 25.6787109,9.4208984 25.6435547,9.4667969 25.6162109,9.5195313 
		25.6005859,9.5791016 25.5947266,9.6269531 25.5175781,9.6269531 25.5175781,9.6269531 	"/>
	<polygon fill-rule="evenodd" clip-rule="evenodd" fill="#FFFFFF" points="25.7587891,9.6269531 25.7587891,9.4667969 
		25.90625,9.4667969 25.9384766,9.46875 25.9677734,9.4746094 25.9892578,9.4824219 26.0068359,9.4931641 26.0214844,9.5097656 
		26.0322266,9.5253906 26.0371094,9.5439453 26.0400391,9.5625 26.0371094,9.5869141 26.0322266,9.6054688 26.0244141,9.6210938 
		26.0185547,9.6269531 25.90625,9.6269531 25.9169922,9.6240234 25.9355469,9.6210938 25.9511719,9.6171875 25.9648438,9.6113281 
		25.9755859,9.6035156 25.9804688,9.5957031 25.9863281,9.5820313 25.9863281,9.5625 25.9833984,9.5488281 25.9775391,9.5390625 
		25.9697266,9.5332031 25.9619141,9.5273438 25.9492188,9.5253906 25.9355469,9.5234375 25.921875,9.5234375 25.90625,9.5234375 
		25.8251953,9.5234375 25.8251953,9.6269531 25.7587891,9.6269531 25.7587891,9.6269531 	"/>
	<polygon fill-rule="evenodd" clip-rule="evenodd" fill="#FFFFFF" points="25.5175781,9.6269531 25.5146484,9.6435547 
		25.5224609,9.7207031 25.5449219,9.7929688 25.5820313,9.8574219 25.6269531,9.9111328 25.6835938,9.9570313 25.7480469,9.9912109 
		25.8173828,10.0136719 25.8916016,10.0205078 25.9677734,10.0136719 26.0371094,9.9912109 26.1015625,9.9570313 
		26.1582031,9.9111328 26.203125,9.8574219 26.2412109,9.7929688 26.2626953,9.7207031 26.2705078,9.6435547 26.2666016,9.6269531 
		26.1875,9.6269531 26.1904297,9.6435547 26.1845703,9.7070313 26.1689453,9.7666016 26.1416016,9.8173828 26.1064453,9.8632813 
		26.0634766,9.9003906 26.0126953,9.9296875 25.9541016,9.9492188 25.8916016,9.9541016 25.8310547,9.9492188 25.7724609,9.9296875 
		25.7216797,9.9003906 25.6787109,9.8632813 25.6435547,9.8173828 25.6162109,9.7666016 25.6005859,9.7070313 25.5947266,9.6435547 
		25.5947266,9.6269531 25.5175781,9.6269531 25.5175781,9.6269531 	"/>
	<polygon fill-rule="evenodd" clip-rule="evenodd" fill="#FFFFFF" points="25.7587891,9.6269531 25.7587891,9.7910156 
		25.8251953,9.7910156 25.8251953,9.65625 25.8916016,9.65625 25.9736328,9.7910156 26.0263672,9.7910156 25.9462891,9.65625 
		25.9648438,9.65625 25.9833984,9.6513672 26,9.6464844 26.0126953,9.6347656 26.0185547,9.6269531 25.90625,9.6269531 
		25.8916016,9.6298828 25.8251953,9.6298828 25.8251953,9.6269531 25.7587891,9.6269531 25.7587891,9.6269531 	"/>
	<path fill="#FFFFFF" d="M25.5146484,9.6435547L25.5146484,9.6435547l0.0078125-0.0771484l0.0224609-0.0732422l0.0371094-0.0634766
		l0.0449219-0.0566406l0.0566406-0.0458984l0.0644531-0.0322266l0.0693359-0.0214844l0.0742188-0.0078125l0,0l0.0761719,0.0078125
		l0.0693359,0.0214844l0.0644531,0.0322266l0.0566406,0.0458984l0.0449219,0.0566406l0.0380859,0.0634766l0.0214844,0.0732422
		l0.0078125,0.0771484l0,0l-0.0078125,0.0771484l-0.0214844,0.0722656L26.203125,9.8574219l-0.0449219,0.0537109
		l-0.0566406,0.0458984l-0.0644531,0.0341797l-0.0693359,0.0224609l-0.0761719,0.0068359l0,0l-0.0742188-0.0068359
		l-0.0693359-0.0224609l-0.0644531-0.0341797l-0.0566406-0.0458984l-0.0449219-0.0537109l-0.0371094-0.0644531l-0.0224609-0.0722656
		L25.5146484,9.6435547 M25.8251953,9.7910156h-0.0664063V9.4667969H25.90625l0,0L25.9384766,9.46875l0.0292969,0.0058594
		l0.0214844,0.0078125l0.0175781,0.0107422l0.0146484,0.0166016l0.0107422,0.015625l0.0048828,0.0185547L26.0400391,9.5625l0,0
		l-0.0029297,0.0244141l-0.0048828,0.0185547l-0.0078125,0.015625l-0.0117188,0.0136719L26,9.6464844l-0.0166016,0.0048828
		L25.9648438,9.65625h-0.0185547l0.0800781,0.1347656h-0.0527344L25.8916016,9.65625h-0.0664063V9.7910156 M25.8916016,9.6298828
		L25.8916016,9.6298828l0.0253906-0.0058594l0.0185547-0.0029297l0.015625-0.0039063l0.0136719-0.0058594l0.0107422-0.0078125
		l0.0048828-0.0078125l0.0058594-0.0136719V9.5625l0,0l-0.0029297-0.0136719l-0.0058594-0.0097656l-0.0078125-0.0058594
		l-0.0078125-0.0058594l-0.0126953-0.0019531l-0.0136719-0.0019531H25.921875H25.90625h-0.0810547v0.1064453H25.8916016
		 M25.8916016,9.9541016L25.8916016,9.9541016l0.0625-0.0048828l0.0585938-0.0195313l0.0507813-0.0292969l0.0429688-0.0371094
		l0.0351563-0.0458984l0.0273438-0.0507813l0.015625-0.0595703l0.0058594-0.0634766l0,0l-0.0058594-0.0644531l-0.015625-0.0595703
		l-0.0273438-0.0527344l-0.0351563-0.0458984l-0.0429688-0.0371094l-0.0507813-0.0273438l-0.0585938-0.0185547l-0.0625-0.0058594
		l0,0l-0.0605469,0.0058594l-0.0585938,0.0185547l-0.0507813,0.0273438l-0.0429688,0.0371094l-0.0351563,0.0458984
		l-0.0273438,0.0527344l-0.015625,0.0595703l-0.0058594,0.0644531l0,0l0.0058594,0.0634766l0.015625,0.0595703l0.0273438,0.0507813
		l0.0351563,0.0458984l0.0429688,0.0371094l0.0507813,0.0292969l0.0585938,0.0195313L25.8916016,9.9541016"/>
	<polygon fill-rule="evenodd" clip-rule="evenodd" fill="#FFFFFF" points="20.8486328,9.9941406 21.6035156,9.9941406 
		21.6035156,9.9941406 21.8740234,8.4697266 21.8857422,8.4111328 21.9013672,8.3520508 21.9169922,8.2929688 21.9384766,8.234375 
		21.9658203,8.175293 21.9970703,8.1191406 22.0322266,8.0654297 22.0751953,8.0151367 22.1230469,7.9692383 22.1767578,7.9262695 
		22.2382813,7.8857422 22.3085938,7.8540039 22.3857422,7.8266602 22.4716797,7.8056641 22.5654297,7.7895508 22.6699219,7.7841797 
		22.7080078,7.7841797 22.7294922,7.7841797 22.7373047,7.7841797 22.7373047,7.7841797 22.8574219,7.0957031 22.7822266,7.1010742 
		22.7099609,7.1088867 22.6425781,7.1225586 22.5791016,7.1416016 22.5205078,7.1625977 22.4638672,7.1894531 22.4101563,7.21875 
		22.359375,7.2509766 22.3105469,7.2885742 22.265625,7.3261719 22.2226563,7.3686523 22.1796875,7.4116211 22.1396484,7.4570313 
		22.0986328,7.5078125 22.0595703,7.5561523 22.0224609,7.6098633 22.1015625,7.1254883 21.3496094,7.1254883 20.8486328,9.9941406 
		20.8486328,9.9941406 20.8486328,9.9941406 	"/>
	<polyline fill="#FFFFFF" points="20.8486328,9.9941406 21.6035156,9.9941406 21.6035156,9.9941406 21.8740234,8.4697266 
		21.8740234,8.4697266 21.8857422,8.4111328 21.9013672,8.3520508 21.9169922,8.2929688 21.9384766,8.234375 21.9658203,8.175293 
		21.9970703,8.1191406 22.0322266,8.0654297 22.0751953,8.0151367 22.1230469,7.9692383 22.1767578,7.9262695 22.2382813,7.8857422 
		22.3085938,7.8540039 22.3857422,7.8266602 22.4716797,7.8056641 22.5654297,7.7895508 22.6699219,7.7841797 22.6699219,7.7841797 
		22.7080078,7.7841797 22.7294922,7.7841797 22.7373047,7.7841797 22.7373047,7.7841797 22.8574219,7.0957031 22.8574219,7.0957031 
		22.7822266,7.1010742 22.7099609,7.1088867 22.6425781,7.1225586 22.5791016,7.1416016 22.5205078,7.1625977 22.4638672,7.1894531 
		22.4101563,7.21875 22.359375,7.2509766 22.3105469,7.2885742 22.265625,7.3261719 22.2226563,7.3686523 22.1796875,7.4116211 
		22.1396484,7.4570313 22.0986328,7.5078125 22.0595703,7.5561523 22.0224609,7.6098633 22.1015625,7.1254883 21.3496094,7.1254883 
		20.8486328,9.9941406 20.8486328,9.9941406 	"/>
	<polygon fill-rule="evenodd" clip-rule="evenodd" fill="#FFFFFF" points="13.7548828,9.9941406 14.5107422,9.9941406 
		14.5234375,9.9941406 14.78125,8.4697266 14.7910156,8.4111328 14.8046875,8.3549805 14.8183594,8.2988281 14.8369141,8.2446289 
		14.8583984,8.1914063 14.8857422,8.140625 14.9169922,8.0917969 14.9550781,8.046875 14.9980469,8.0068359 15.0458984,7.9663086 
		15.1044922,7.934082 15.1689453,7.9042969 15.2441406,7.8803711 15.3271484,7.859375 15.4179688,7.8457031 15.5224609,7.8378906 
		15.53125,7.8378906 15.5419922,7.8408203 15.5546875,7.8432617 15.5683594,7.8432617 15.5810547,7.8457031 15.5927734,7.8486328 
		15.6005859,7.8505859 15.6025391,7.8505859 15.6054688,7.8408203 15.6142578,7.8081055 15.6240234,7.7597656 15.6376953,7.7011719 
		15.6572266,7.6318359 15.6757813,7.5561523 15.6992188,7.4814453 15.7236328,7.4067383 15.7451172,7.3554688 15.7724609,7.3046875 
		15.7988281,7.2539063 15.8251953,7.2084961 15.8496094,7.1679688 15.8681641,7.1357422 15.8818359,7.1171875 15.8876953,7.1088867 
		15.8847656,7.1088867 15.8740234,7.1064453 15.8603516,7.1035156 15.8417969,7.1010742 15.8232422,7.1010742 15.8017578,7.0981445 
		15.7832031,7.0957031 15.7636719,7.0957031 15.6806641,7.1010742 15.6054688,7.1088867 15.5361328,7.1225586 15.4716797,7.1386719 
		15.4101563,7.1601563 15.3544922,7.1865234 15.3037109,7.2138672 15.2548828,7.2456055 15.2089844,7.2807617 15.1660156,7.3203125 
		15.1259766,7.3608398 15.0869141,7.4067383 15.0458984,7.4516602 15.0087891,7.503418 14.9677734,7.5561523 14.9277344,7.6098633 
		15.0244141,7.1254883 14.2558594,7.1254883 13.7548828,9.9941406 13.7548828,9.9941406 13.7548828,9.9941406 	"/>
	<polyline fill="#FFFFFF" points="13.7548828,9.9941406 14.5107422,9.9941406 14.5234375,9.9941406 14.78125,8.4697266 
		14.78125,8.4697266 14.7910156,8.4111328 14.8046875,8.3549805 14.8183594,8.2988281 14.8369141,8.2446289 14.8583984,8.1914063 
		14.8857422,8.140625 14.9169922,8.0917969 14.9550781,8.046875 14.9980469,8.0068359 15.0458984,7.9663086 15.1044922,7.934082 
		15.1689453,7.9042969 15.2441406,7.8803711 15.3271484,7.859375 15.4179688,7.8457031 15.5224609,7.8378906 15.5224609,7.8378906 
		15.53125,7.8378906 15.5419922,7.8408203 15.5546875,7.8432617 15.5683594,7.8432617 15.5810547,7.8457031 15.5927734,7.8486328 
		15.6005859,7.8505859 15.6025391,7.8505859 15.6025391,7.8505859 15.6054688,7.8408203 15.6142578,7.8081055 15.6240234,7.7597656 
		15.6376953,7.7011719 15.6572266,7.6318359 15.6757813,7.5561523 15.6992188,7.4814453 15.7236328,7.4067383 15.7236328,7.4067383 
		15.7451172,7.3554688 15.7724609,7.3046875 15.7988281,7.2539063 15.8251953,7.2084961 15.8496094,7.1679688 15.8681641,7.1357422 
		15.8818359,7.1171875 15.8876953,7.1088867 15.8876953,7.1088867 15.8847656,7.1088867 15.8740234,7.1064453 15.8603516,7.1035156 
		15.8417969,7.1010742 15.8232422,7.1010742 15.8017578,7.0981445 15.7832031,7.0957031 15.7636719,7.0957031 15.7636719,7.0957031 
		15.6806641,7.1010742 15.6054688,7.1088867 15.5361328,7.1225586 15.4716797,7.1386719 15.4101563,7.1601563 15.3544922,7.1865234 
		15.3037109,7.2138672 15.2548828,7.2456055 15.2089844,7.2807617 15.1660156,7.3203125 15.1259766,7.3608398 15.0869141,7.4067383 
		15.0458984,7.4516602 15.0087891,7.503418 14.9677734,7.5561523 14.9277344,7.6098633 15.0244141,7.1254883 14.2558594,7.1254883 
		13.7548828,9.9941406 13.7548828,9.9941406 	"/>
	<path fill="#FFFFFF" d="M7.8032227,7.6850586L7.6855469,7.5996094L7.6005859,7.519043L7.5239258,7.4467773L7.4545898,7.3823242
		l-0.0732422-0.059082L7.3046875,7.2724609l-0.081543-0.0454102L7.140625,7.1894531L7.0576172,7.1572266L6.9716797,7.1328125
		L6.8886719,7.1142578L6.8085938,7.5527344L6.7333984,8h-0.09375h-0.09375H6.4580078H6.3720703H6.2880859H6.2080078
		L6.1308594,7.5498047L6.0556641,7.328125L5.9833984,7.6503906L5.9130859,8H5.84375L5.7792969,7.578125L5.7158203,7.3725586
		l-0.0644531-0.090332L5.5927734,7.25L5.5332031,7.2460938L5.3427734,7.8774414L5.3720703,7.855957l0.0380859-0.0229492
		l0.0488281-0.0180664l0.0576172-0.015625l0.0654297-0.0151367l0.0693359-0.0131836l0.078125-0.0136719L5.8085938,7.746582
		l0.0839844-0.0107422l0.0849609-0.0078125l0.0869141-0.0078125l0.0878906,0.1381836L6.2373047,8h0.0830078l0.0810547-0.1416016
		l0.0751953-0.0688477l0.0693359-0.0307617l0.0644531-0.0024414l0.0556641,0.0151367l0.0517578,0.0302734L6.7607422,7.840332
		l0.03125,0.046875l0.0244141,0.0527344l0.0107422,0.0595703L6.8222656,8.0488281L6.8085938,8.105957L6.7919922,8.5678711
		L6.7871094,9H6.7792969L6.7519531,8.5839844L6.7148438,8.7924805L6.6660156,9H6.6074219H6.5488281H6.484375H6.4228516H6.3935547
		L6.3554688,8.5825195L6.3154297,8.7875977L6.2724609,9H6.2294922H6.1816406H6.1357422H6.0908203L6.0449219,8.5986328
		L6.0048828,8.7954102L5.9667969,9h-0.03125H5.9052734H5.8867188H5.8740234H5.8681641l-0.09375-0.3779297L5.6835938,8.449707
		L5.5947266,8.3808594L5.5087891,8.3691406L5.4287109,8.3867188L5.3515625,8.425293L5.2753906,8.4765625L5.2089844,8.5341797
		L5.1445313,8.5996094l-0.0556641,0.074707L5.0400391,8.7514648L4.9970703,8.8369141L4.9628906,8.9277344l-0.0273438,0.09375
		l0.0288086,0.0996094L5,9.2246094v0.0595703L4.9882813,9.34375L5,9.4042969v0.0625L4.9838867,9.5253906l0.0053711,0.0585938
		l0.0185547,0.0595703l0.0288086,0.0556641l0.0356445,0.0537109l0.0419922,0.0507813l0.0532227,0.0478516l0.0581055,0.0429688
		l0.0673828,0.0410156l0.0742188,0.0351563L5.453125,9.9960938l0.09375,0.0244141L5.6191406,10.03125l0.0751953,0.0078125
		l0.0771484-0.0019531l0.078125-0.0058594l0.0800781-0.0107422l0.078125-0.015625l0.0771484-0.0185547l0.0771484-0.0234375
		l0.0732422-0.0273438l0.0693359-0.0322266l0.0673828-0.0322266l0.0644531-0.0371094l0.0556641-0.0380859l0.0507813-0.0400391
		l0.0429688-0.0429688l0.0371094-0.0429688L6.6132813,9.7109375L6.6025391,9.7851563l-0.0136719,0.6025391L6.5703125,11h0.6748047
		l0.1074219-1.0976563l0.4506836-1.6655273L8,7.878418V7.7758789L7.8032227,7.6850586z M6.6933594,8.7700195L6.6767578,8.855957
		L6.6582031,8.9438477L6.6367188,9.0214844L6.6289063,9.0507813L6.6152344,9.0800781l-0.015625,0.0322266L6.5810547,9.1445313
		L6.5585938,9.1777344L6.5322266,9.2070313l-0.03125,0.0322266L6.4658203,9.265625L6.4248047,9.2949219L6.3798828,9.3193359
		L6.3291016,9.34375L6.2753906,9.3613281L6.2138672,9.3789063L6.1435547,9.3886719L6.0722656,9.3964844L5.9912109,9.3994141
		L5.9482422,9.3964844L5.9052734,9.3886719l-0.0449219-0.015625L5.8203125,9.3457031L5.7851563,9.3056641L5.7578125,9.2519531
		L5.7451172,9.1796875l0.0029297-0.0917969l0.0078125-0.0419922l0.015625-0.0429688L5.7900391,8.965332l0.0273438-0.034668
		l0.0292969-0.0322266l0.0322266-0.0317383l0.0341797-0.0268555l0.0380859-0.0268555l0.0351563-0.0219727l0.0371094-0.0185547
		l0.0351563-0.0185547l0.0341797-0.015625l0.0302734-0.0136719l0.0292969-0.0102539l0.0214844-0.0083008l0.0185547-0.0058594
		l0.0292969-0.0078125L6.2539063,8.684082l0.0371094-0.0078125l0.0410156-0.0053711l0.0419922-0.0053711L6.4169922,8.659668
		l0.0458984-0.0039063l0.0429688-0.0014648h0.0400391h0.0400391l0.0351563,0.0014648l0.0292969,0.0043945l0.0263672,0.0053711
		l0.0166016,0.0083008l0.0107422,0.0131836l0.0029297,0.0131836L6.6933594,8.7700195z"/>
	<path fill-rule="evenodd" clip-rule="evenodd" fill="#FFFFFF" d="M20.953125,7.6850586l-0.0439453-0.0854492L20.8613281,7.519043
		l-0.0576172-0.0722656l-0.0634766-0.0644531l-0.0673828-0.059082l-0.0761719-0.0507813L20.515625,7.2270508l-0.0830078-0.0375977
		l-0.0820313-0.0322266l-0.0859375-0.0244141l-0.0839844-0.0185547l-0.0800781,0.4384766L20.0263672,8h-0.0917969H19.84375
		h-0.0859375h-0.0830078h-0.0830078h-0.0771484l-0.078125-0.4501953L19.3613281,7.328125l-0.0722656,0.3222656L19.2197266,8
		h-0.0673828l-0.0673828-0.421875l-0.0634766-0.2055664l-0.0615234-0.090332L18.8974609,7.25l-0.0576172-0.0039063
		l-0.1884766,0.6313477l0.0292969-0.0214844L18.71875,7.8330078l0.0478516-0.0180664l0.0585938-0.015625l0.0644531-0.0151367
		l0.0703125-0.0131836l0.0771484-0.0136719l0.0810547-0.0107422l0.0820313-0.0107422l0.0859375-0.0078125l0.0859375-0.0078125
		l0.0888672,0.1381836L19.546875,8h0.0830078l0.0800781-0.1416016l0.0751953-0.0688477l0.0644531-0.0307617l0.0585938-0.0024414
		l0.0556641,0.0151367l0.0488281,0.0302734l0.0400391,0.0385742l0.0351563,0.046875l0.0205078,0.0527344l0.0117188,0.0595703
		l-0.0058594,0.0493164L20.1064453,8.105957l-0.0078125,0.4619141L20.0927734,9h-0.0107422l-0.0244141-0.4160156
		L20.015625,8.7924805L19.9638672,9h-0.0585938H19.84375h-0.0644531h-0.0634766h-0.0302734l-0.0371094-0.4174805
		l-0.0371094,0.2050781L19.5673828,9h-0.0449219h-0.0449219h-0.0488281h-0.0458984l-0.0429688-0.4013672l-0.0400391,0.1967773
		L19.2626953,9h-0.0351563h-0.0273438h-0.0185547h-0.0126953h-0.0058594l-0.0908203-0.3779297L18.9833984,8.449707
		l-0.0878906-0.0688477L18.8125,8.3691406l-0.0830078,0.0175781l-0.078125,0.0385742l-0.0722656,0.0512695l-0.0693359,0.0576172
		l-0.0615234,0.0654297l-0.0566406,0.074707l-0.0507813,0.0771484l-0.0390625,0.0854492L18.265625,8.9277344l-0.0234375,0.09375
		l-0.1269531,0.0996094L18,9.2246094v0.0595703L18.1152344,9.34375l0.0634766,0.0605469l0.0390625,0.0625l0.0273438,0.0585938
		l0.0263672,0.0585938l0.0283203,0.0595703l0.0341797,0.0556641l0.0380859,0.0537109l0.0429688,0.0507813l0.0507813,0.0478516
		l0.0595703,0.0429688l0.0693359,0.0410156l0.0751953,0.0351563l0.0859375,0.0253906l0.0966797,0.0244141l0.0722656,0.0107422
		l0.0722656,0.0078125l0.0751953-0.0019531l0.078125-0.0058594l0.0751953-0.0107422l0.0742188-0.0126953L19.375,9.9863281
		l0.0722656-0.0214844l0.0673828-0.0263672L19.5810547,9.90625l0.0644531-0.0322266l0.0566406-0.0351563l0.0527344-0.0380859
		l0.0488281-0.0371094L19.84375,9.7236328l0.0976563-0.0400391L20,9.7158203v0.0722656v0.0644531L19.8652344,11h0.6728516
		l0.109375-1.0976563l0.3115234-1.6655273L21,7.878418V7.7758789L20.953125,7.6850586z M19.9931641,8.7670898l-0.0097656,0.0756836
		l-0.0136719,0.0776367l-0.0107422,0.074707l-0.0078125,0.0292969l-0.0107422,0.0322266l-0.0136719,0.03125l-0.0185547,0.0332031
		L19.8837891,9.15625L19.8544922,9.1875l-0.03125,0.0351563l-0.0380859,0.0292969l-0.0429688,0.0322266l-0.0488281,0.0263672
		l-0.0507813,0.0253906l-0.0585938,0.0205078L19.5224609,9.375l-0.0703125,0.0136719l-0.0742188,0.0078125L19.296875,9.3994141
		l-0.0449219-0.0029297l-0.0458984-0.0078125l-0.0449219-0.015625l-0.0400391-0.0273438l-0.0322266-0.0400391l-0.0214844-0.0537109
		l-0.0136719-0.0722656l0.0019531-0.0917969l0.0078125-0.0449219L19.0800781,9l0.0195313-0.0400391l0.0234375-0.0375977
		l0.0292969-0.034668l0.0292969-0.0288086l0.0351563-0.0302734l0.0351563-0.0239258l0.0341797-0.0239258l0.0371094-0.0185547
		l0.0332031-0.0161133l0.0351563-0.0161133L19.4208984,8.71875l0.0263672-0.0078125L19.46875,8.703125l0.0185547-0.0029297
		l0.0273438-0.0053711l0.0341797-0.0078125l0.0351563-0.0053711l0.0400391-0.0083008l0.0400391-0.0048828l0.0429688-0.0058594
		L19.75,8.6572266l0.0429688-0.0029297h0.0400391h0.0400391h0.0351563L19.9375,8.6557617l0.0263672,0.0078125l0.0195313,0.0078125
		l0.0097656,0.0131836l0.0058594,0.015625L19.9931641,8.7670898z"/>
	<path fill="#FFFFFF" d="M24.8935547,8l-0.1875,0.2978516l-0.015625-0.4101563l-0.0224609-0.2197266l-0.0234375-0.1293945
		l-0.0273438-0.0825195l-0.03125-0.0585938l-0.0351563-0.0454102l-0.0410156-0.0415039l-0.0419922-0.0351563l-0.0488281-0.0297852
		l-0.0527344-0.0317383l-0.0546875-0.0244141L24.25,7.1679688l-0.0644531-0.0185547l-0.0693359-0.0136719l-0.0751953-0.0083008
		l-0.0771484-0.0019531l-0.109375,0.0053711l-0.1074219,0.015625l-0.1074219,0.0239258l-0.1074219,0.0380859l-0.1015625,0.0454102
		l-0.1015625,0.059082l-0.0996094,0.0664063l-0.09375,0.0776367l-0.0878906,0.0888672l-0.0830078,0.0961914l-0.0810547,0.1069336
		l-0.0693359,0.1210938l-0.0673828,0.128418l-0.0556641,0.1362305l-0.0488281,0.1503906l-0.0400391,0.1582031l-0.0234375,0.1362305
		l-0.0136719,0.1367188L22.5625,8.855957l0.0087891,0.1362305l0.0205078,0.1367188l0.0302734,0.1308594l0.0429688,0.1269531
		l0.0527344,0.1201172l0.0644531,0.1123047L22.8574219,9.71875l0.0859375,0.0898438l0.0957031,0.078125l0.1074219,0.0625
		l0.1181641,0.0449219l0.1289063,0.5126953L23.5322266,11h0.0537109l0.0537109-0.4853516l0.0507813-0.2470703l0.0537109-0.1279297
		l0.0537109-0.0693359l0.0507813-0.0439453l0.0507813-0.0283203l0.0507813-0.0253906l0.0507813-0.0283203l0.0488281-0.0263672
		l0.0478516-0.0292969l0.0478516-0.0371094l0.0488281-0.0371094l0.0449219-0.0429688l-0.1181641-0.0478516L24,9.6699219v0.0263672
		L24.2744141,11h0.7421875l0.6054688-3H24.8935547z M24.6123047,8.4379883L24.5595703,8.515625l-0.0351563,0.0751953
		l-0.0253906,0.0717773l-0.0234375,0.0727539l-0.0244141,0.0693359L24.4228516,8.871582l-0.0292969,0.0644531l-0.0351563,0.0620117
		l-0.0390625,0.0585938L24.2792969,9.109375l-0.0458984,0.0488281l-0.0498047,0.0458984l-0.0537109,0.0400391l-0.0556641,0.0322266
		l-0.0625,0.0292969l-0.0634766,0.0185547l-0.0703125,0.015625l-0.0742188,0.0058594l-0.1074219-0.0214844L23.6074219,9.265625
		l-0.0693359-0.0878906L23.484375,9.0673828l-0.0351563-0.1259766l-0.0185547-0.1308594l-0.0058594-0.1289063l0.0146484-0.1176758
		l0.015625-0.0776367l0.0214844-0.0776367l0.0205078-0.0722656l0.0273438-0.0727539l0.0292969-0.0693359l0.0351563-0.0644531
		l0.0371094-0.0620117l0.0400391-0.0581055l0.0458984-0.0512695l0.0458984-0.0454102l0.0527344-0.0429688l0.0537109-0.0351563
		l0.0615234-0.0268555l0.0625-0.0209961l0.0664063-0.0112305l0.0722656-0.0048828l0.0566406,0.0048828l0.0498047,0.0136719
		l0.0488281,0.0214844l0.0458984,0.0322266l0.0400391,0.0371094l0.0351563,0.0429688l0.03125,0.0512695l0.0273438,0.0537109
		l0.0214844,0.0615234l0.0195313,0.0639648l0.0097656,0.0664063l0.0527344,0.0703125l0.046875,0.074707V8.4379883z"/>
</g>
<g>
</g>
<g>
</g>
<g>
</g>
<g>
</g>
<g>
</g>
<g>
</g>
</svg>
