<?xml version="1.0" encoding="utf-8"?>
<!-- Generator: Adobe Illustrator 16.0.0, SVG Export Plug-In . SVG Version: 6.00 Build 0)  -->
<!DOCTYPE svg PUBLIC "-//W3C//DTD SVG 1.1//EN" "http://www.w3.org/Graphics/SVG/1.1/DTD/svg11.dtd">
<svg version="1.1" id="Слой_1" xmlns="http://www.w3.org/2000/svg" xmlns:xlink="http://www.w3.org/1999/xlink" x="0px" y="0px"
	 width="63px" height="17px" viewBox="0 0 63 17" enable-background="new 0 0 63 17" xml:space="preserve">
<g>
	<path fill-rule="evenodd" clip-rule="evenodd" fill="#DCDCDC" d="M49.2148438,2.6791992
		c-1.5771484,0-2.8222656,0.4243164-3.7763672,0.6171875l-0.2929688,2.4287109
		c0.4755859-0.2314453,1.9785156-0.6552734,3.2265625-0.6943359c1.2460938-0.0385742,1.9785156,0.2314453,1.7226563,1.3110352
		c-3.7021484,0-6.1962891,0.7705078-6.7099609,3.2001953c-0.7333984,4.1640625,3.7773438,4.0488281,5.5732422,2.2363281
		L48.7382813,12.78125h3.2998047l1.4296875-6.6323242C54.0546875,3.3339844,51.5244141,2.640625,49.2148438,2.6791992z
		 M49.4335938,9.4658203c-0.1826172,0.8857422-0.8789063,1.2724609-1.7216797,1.3105469
		c-0.7333984,0.0380859-1.3935547-0.6171875-0.9169922-1.3886719c0.3671875-0.6552734,1.3935547-0.8095703,2.0166016-0.8095703
		c0.2568359,0,0.5507813,0,0.8066406,0C49.5449219,8.8867188,49.5068359,9.1572266,49.4335938,9.4658203z"/>
	<polygon fill-rule="evenodd" clip-rule="evenodd" fill="#DCDCDC" points="56.2910156,0.0561523 53.5605469,12.78125 
		56.9130859,12.78125 59.6767578,0.0561523 56.2910156,0.0561523 56.2910156,0.0561523 	"/>
	<path fill-rule="evenodd" clip-rule="evenodd" fill="#DCDCDC" d="M40.8896484,0.0952148h-6.1367188L32.0332031,12.78125h3.5654297
		l0.9199219-4.203125h2.5351563c2.4980469,0,4.5556641-1.5424805,5.1074219-4.1645508
		C44.7851563,1.4453125,42.6552734,0.0952148,40.8896484,0.0952148z M40.78125,4.4135742
		c-0.2216797,0.9643555-1.1767578,1.7353516-2.0957031,1.7353516h-1.6533203l0.7353516-3.4697266H39.53125
		C40.4501953,2.6791992,41.0009766,3.449707,40.78125,4.4135742z"/>
	<path fill-rule="evenodd" clip-rule="evenodd" fill="#DCDCDC" d="M17.0761719,2.6791992
		c-1.5576172,0-2.7885742,0.4243164-3.6948242,0.6171875l-0.2895508,2.4287109
		c0.4345703-0.2314453,1.9199219-0.6552734,3.1513672-0.6943359c1.2314453-0.0385742,1.956543,0.2314453,1.7382813,1.3110352
		c-3.6572266,0-6.1210938,0.7705078-6.6279297,3.2001953c-0.7246094,4.1640625,3.7304688,4.0488281,5.46875,2.2363281
		L16.605957,12.78125h3.2954102l1.4121094-6.6323242C21.8935547,3.3339844,19.3579102,2.640625,17.0761719,2.6791992z
		 M17.3300781,9.4658203c-0.1816406,0.8857422-0.90625,1.2724609-1.7392578,1.3105469
		c-0.7241211,0.0380859-1.3398438-0.6171875-0.8686523-1.3886719c0.3618164-0.6552734,1.3754883-0.8095703,1.9555664-0.8095703
		c0.2895508,0,0.5424805,0,0.8330078,0C17.4389648,8.8867188,17.3657227,9.1572266,17.3300781,9.4658203z"/>
	<polygon fill-rule="evenodd" clip-rule="evenodd" fill="#DCDCDC" points="22.7495117,2.8613281 26.0458984,2.8613281 
		26.5766602,8.7685547 29.8022461,2.8613281 33.2041016,2.8613281 25.3720703,17 21.6870117,17 24.0961914,12.84375 
		22.7495117,2.8613281 22.7495117,2.8613281 	"/>
	<path fill-rule="evenodd" clip-rule="evenodd" fill="#DCDCDC" d="M8.8789063,0.0952148H2.7255859L0,12.78125h3.6108398
		l0.8833008-4.203125h2.5795898c2.4682617,0,4.5317383-1.5424805,5.0839844-4.1645508
		C12.7832031,1.4453125,10.6835938,0.0952148,8.8789063,0.0952148z M8.7685547,4.4135742
		C8.546875,5.3779297,7.6259766,6.1489258,6.7050781,6.1489258H5.0102539l0.7739258-3.4697266h1.7675781
		C8.4365234,2.6791992,9.0263672,3.449707,8.7685547,4.4135742z"/>
	<path fill="#DCDCDC" d="M60.4013672,1.7006836V0.2011719h-0.5537109V0h1.3300781v0.2011719h-0.5546875v1.4995117H60.4013672z"/>
	<path fill="#DCDCDC" d="M61.3984375,1.7006836V0h0.3330078l0.3964844,1.2041016
		c0.0380859,0.1118164,0.0634766,0.1958008,0.0810547,0.2514648c0.0195313-0.0620117,0.0498047-0.1523438,0.0898438-0.2724609
		L62.7011719,0H63v1.7006836h-0.2138672V0.2768555L62.296875,1.7006836h-0.2001953l-0.4853516-1.4467773v1.4467773H61.3984375z"/>
</g>
<g>
</g>
<g>
</g>
<g>
</g>
<g>
</g>
<g>
</g>
<g>
</g>
</svg>
