<?xml version="1.0" encoding="utf-8"?>
<!-- Generator: Adobe Illustrator 16.0.0, SVG Export Plug-In . SVG Version: 6.00 Build 0)  -->
<!DOCTYPE svg PUBLIC "-//W3C//DTD SVG 1.1//EN" "http://www.w3.org/Graphics/SVG/1.1/DTD/svg11.dtd">
<svg version="1.1" id="Слой_1" xmlns="http://www.w3.org/2000/svg" xmlns:xlink="http://www.w3.org/1999/xlink" x="0px" y="0px"
	 width="71px" height="20px" viewBox="0 0 71 20" enable-background="new 0 0 71 20" xml:space="preserve">
<g>
	<path fill-rule="evenodd" clip-rule="evenodd" fill="#009ADA" d="M58.5527344,3.0952148
		c-1.875,0-3.3574219,0.5014648-4.4912109,0.7294922l-0.3496094,2.8652344
		c0.5664063-0.2719727,2.3544922-0.7734375,3.8388672-0.8168945c1.4833984-0.0478516,2.3544922,0.2714844,2.0507813,1.5463867
		c-4.40625,0-7.3730469,0.9101563-7.984375,3.7758789c-0.8730469,4.9169922,4.4931641,4.7792969,6.6308594,2.640625
		l-0.2607422,1.1835938h3.9248047l1.7011719-7.828125C64.3105469,3.8691406,61.3007813,3.0512695,58.5527344,3.0952148z
		 M58.8154297,11.1054688c-0.21875,1.0449219-1.0478516,1.5019531-2.0507813,1.546875
		c-0.8730469,0.0449219-1.6572266-0.7285156-1.0898438-1.6386719c0.4355469-0.7729492,1.6582031-0.9550781,2.3994141-0.9550781
		c0.3046875,0,0.65625,0,0.9599609,0C58.9472656,10.4223633,58.9023438,10.7416992,58.8154297,11.1054688z"/>
	<polygon fill-rule="evenodd" clip-rule="evenodd" fill="#009ADA" points="66.9726563,0 63.7236328,15.0195313 
		67.7119141,15.0195313 71,0 66.9726563,0 66.9726563,0 	"/>
	<path fill-rule="evenodd" clip-rule="evenodd" fill="#009ADA" d="M48.6494141,0.0454102h-7.3017578l-3.2353516,14.9741211
		h4.2431641l1.0917969-4.9609375h3.0175781c2.9716797,0,5.4199219-1.8212891,6.0771484-4.9155273
		C53.2841797,1.6396484,50.75,0.0454102,48.6494141,0.0454102z M48.5205078,5.1430664
		c-0.2646484,1.1381836-1.4003906,2.0483398-2.4941406,2.0483398h-1.9677734l0.875-4.0961914h2.1005859
		C48.1259766,3.0952148,48.7802734,4.0063477,48.5205078,5.1430664z"/>
	<path fill-rule="evenodd" clip-rule="evenodd" fill="#243982" d="M20.3164063,3.0952148
		c-1.8525391,0-3.3183594,0.5014648-4.3955078,0.7294922l-0.3447266,2.8652344
		c0.5175781-0.2719727,2.2841797-0.7734375,3.7490234-0.8168945c1.4658203-0.0478516,2.3271484,0.2714844,2.0683594,1.5463867
		c-4.3535156,0-7.2822266,0.9101563-7.8857422,3.7758789c-0.8613281,4.9169922,4.4384766,4.7792969,6.5068359,2.640625
		l-0.2578125,1.1835938h3.9208984l1.6806641-7.828125C26.046875,3.8691406,23.03125,3.0512695,20.3164063,3.0952148z
		 M20.6181641,11.1054688c-0.2158203,1.0449219-1.0771484,1.5019531-2.0693359,1.546875
		c-0.8613281,0.0449219-1.59375-0.7285156-1.0332031-1.6386719c0.4306641-0.7729492,1.6367188-0.9550781,2.3271484-0.9550781
		c0.3447266,0,0.6455078,0,0.9912109,0C20.7470703,10.4223633,20.6611328,10.7416992,20.6181641,11.1054688z"/>
	<polygon fill-rule="evenodd" clip-rule="evenodd" fill="#243982" points="27.0664063,3.3110352 30.9873047,3.3110352 
		31.6201172,10.2827148 35.4570313,3.3110352 39.5048828,3.3110352 30.1865234,20 25.8017578,20 28.6689453,15.0927734 
		27.0664063,3.3110352 27.0664063,3.3110352 	"/>
	<path fill-rule="evenodd" clip-rule="evenodd" fill="#243982" d="M10.5625,0.0454102H3.2421875L0,15.0195313h4.2958984
		l1.0517578-4.9609375h3.0683594c2.9375,0,5.3916016-1.8212891,6.0478516-4.9155273
		C15.2089844,1.6396484,12.7099609,0.0454102,10.5625,0.0454102z M10.4316406,5.1430664
		C10.1689453,6.28125,9.0732422,7.1914063,7.9775391,7.1914063H5.9609375l0.9199219-4.0961914h2.1044922
		C10.0371094,3.0952148,10.7392578,4.0063477,10.4316406,5.1430664z"/>
</g>
<g>
</g>
<g>
</g>
<g>
</g>
<g>
</g>
<g>
</g>
<g>
</g>
</svg>
