<?xml version="1.0" encoding="utf-8"?>
<!-- Generator: Adobe Illustrator 16.0.0, SVG Export Plug-In . SVG Version: 6.00 Build 0)  -->
<!DOCTYPE svg PUBLIC "-//W3C//DTD SVG 1.1//EN" "http://www.w3.org/Graphics/SVG/1.1/DTD/svg11.dtd">
<svg version="1.1" id="Layer_1" xmlns="http://www.w3.org/2000/svg" xmlns:xlink="http://www.w3.org/1999/xlink" x="0px" y="0px"
	 width="30px" height="30px" viewBox="0 0 30 30" enable-background="new 0 0 30 30" xml:space="preserve">
<g id="gZu8gs_1_" display="none">
	<g display="inline">
		<path d="M14.995,27.699l-8.584-0.003c-1.247-0.003-2.158-0.8-2.377-2.081c-0.396-2.319-0.8-4.638-1.205-6.955L2.587,17.27
			c-1.237-0.191-1.731-0.99-1.926-1.663c-0.188-0.649-0.077-1.341,0.305-1.898c0.387-0.566,1.004-0.927,1.692-0.989
			c0.134-0.011,0.266-0.011,0.397-0.011H26.94c1.141,0,1.996,0.545,2.346,1.494c0.24,0.647,0.173,1.361-0.184,1.959
			c-0.363,0.606-0.974,1.012-1.676,1.109c-0.007,0.001-0.014,0.002-0.021,0.003l-0.782,4.513c-0.227,1.322-0.453,2.644-0.69,3.962
			c-0.212,1.184-1.136,1.948-2.355,1.948L14.995,27.699z M3.014,13.829c-0.087,0-0.174,0-0.26,0.007
			c-0.349,0.032-0.665,0.216-0.863,0.505c-0.194,0.284-0.249,0.623-0.153,0.954c0.122,0.422,0.374,0.858,1.315,0.894l0.346,0.013
			l0.144,0.314c0.044,0.089,0.079,0.159,0.096,0.256l0.296,1.696c0.404,2.318,0.808,4.638,1.205,6.958
			c0.09,0.523,0.383,1.147,1.273,1.149l8.583,0.003l8.582-0.003c0.68,0,1.136-0.374,1.252-1.024
			c0.236-1.316,0.462-2.635,0.688-3.954l0.932-5.37l0.565-0.043c0.094-0.007,0.176-0.012,0.257-0.023
			c0.364-0.051,0.68-0.261,0.868-0.574c0.182-0.305,0.216-0.667,0.095-0.995c-0.232-0.629-0.833-0.762-1.295-0.762H3.055
			C3.042,13.829,3.028,13.829,3.014,13.829z M22.372,24.668C22.372,24.668,22.372,24.668,22.372,24.668
			c-0.902-0.042-1.461-0.736-1.428-1.69l0.078-1.004c0.116-1.484,0.231-2.968,0.355-4.452c0.064-0.771,0.675-1.352,1.419-1.352
			l0.105,0.004c0.791,0.062,1.37,0.742,1.32,1.547c-0.063,1.03-0.144,2.061-0.225,3.092l-0.072,0.927
			c-0.031,0.401-0.065,0.804-0.101,1.206l-0.019,0.22C23.729,24.063,23.153,24.668,22.372,24.668z M22.797,16.73v0.561
			c-0.157,0-0.287,0.14-0.302,0.324c-0.124,1.481-0.239,2.963-0.355,4.446l-0.076,0.979c-0.005,0.168,0.023,0.492,0.293,0.505l0,0
			c0.255,0,0.317-0.299,0.332-0.477l0.019-0.221c0.035-0.399,0.069-0.798,0.1-1.195l0.072-0.929c0.08-1.024,0.16-2.049,0.223-3.072
			c0.014-0.232-0.134-0.349-0.287-0.36L22.797,16.73z M7.688,24.665c-0.854,0-1.428-0.604-1.501-1.501l-0.062-0.761
			c-0.117-1.441-0.233-2.883-0.346-4.323c-0.104-1.316,0.605-1.848,1.305-1.905l0.128-0.006c0.385,0,1.296,0.161,1.423,1.651
			c0.11,1.273,0.21,2.547,0.309,3.791l0.104,1.306c0.028,1.018-0.518,1.708-1.355,1.748C7.69,24.665,7.689,24.665,7.688,24.665z
			 M7.211,16.729l-0.038,0.562c-0.097,0.008-0.33,0.027-0.277,0.699c0.113,1.44,0.229,2.882,0.346,4.321l0.061,0.761
			c0.015,0.176,0.075,0.473,0.314,0.473c0.295-0.014,0.314-0.402,0.31-0.569l-0.102-1.277c-0.098-1.241-0.199-2.512-0.308-3.783
			c-0.036-0.415-0.139-0.626-0.306-0.626V16.729z M12.409,24.665c-0.84,0-1.44-0.666-1.443-1.584c-0.003-1.777-0.003-3.554,0-5.331
			c0.001-0.914,0.602-1.577,1.427-1.577h0.023c0.812,0.016,1.401,0.672,1.406,1.56c0.004,0.639,0.003,1.28,0.003,1.921l-0.001,0.766
			l0.001,0.813c0,0.612,0.001,1.223-0.002,1.834C13.817,23.998,13.236,24.655,12.409,24.665z M12.393,16.733v0.561
			c-0.283,0-0.305,0.351-0.306,0.458c-0.003,1.776-0.003,3.551,0,5.326c0,0.108,0.023,0.466,0.305,0.466
			c0.267-0.003,0.309-0.305,0.31-0.484c0.003-0.607,0.002-1.217,0.001-1.825l0-0.815l0-0.768c0.001-0.638,0.001-1.275-0.002-1.912
			c-0.001-0.133-0.032-0.44-0.304-0.445L12.393,16.733z M17.61,24.664c-0.84,0-1.439-0.667-1.441-1.585
			c-0.003-1.777-0.003-3.554,0-5.33c0.003-0.914,0.604-1.576,1.428-1.576h0.023c0.811,0.016,1.4,0.672,1.405,1.56
			c0.004,0.649,0.003,1.301,0.002,1.951l0,0.78l0,0.779c0.001,0.607,0.001,1.216-0.001,1.822
			C19.02,23.999,18.438,24.656,17.61,24.664z M17.597,16.733v0.561c-0.283,0-0.306,0.351-0.307,0.458
			c-0.003,1.774-0.003,3.549,0,5.325c0,0.14,0.03,0.466,0.305,0.466c0.276-0.003,0.308-0.339,0.309-0.483
			c0.002-0.604,0.002-1.21,0.001-1.815l0-0.78l0-0.781c0.001-0.648,0.001-1.296-0.002-1.944c-0.001-0.132-0.032-0.439-0.303-0.444
			L17.597,16.733z"/>
	</g>
	<g display="inline">
		<path d="M6.297,12.93H3.832l0.966-4.224c0.2-0.893,0.4-1.784,0.639-2.666c0.456-1.679,1.956-2.832,3.732-2.868
			c0.287-0.006,0.575-0.008,0.863-0.008l1.088,0.004c0.324-0.647,0.751-0.866,1.575-0.866l2.298-0.001l2.298,0.001
			c0.827,0,1.255,0.219,1.58,0.866h1.545c2.315,0.001,3.758,1.141,4.288,3.386c0.309,1.309,0.606,2.618,0.904,3.929l0.326,1.43
			c0.019,0.08,0.03,0.163,0.042,0.257l0.112,0.758h-2.854l-1.096-4.854c-0.076-0.346-0.152-0.69-0.235-1.034
			c-0.165-0.684-0.587-1.018-1.29-1.02l-0.486-0.001L18.87,6.021c-0.334,0.669-0.742,0.864-1.64,0.864h-4.508
			c-0.853-0.002-1.263-0.205-1.597-0.864l-1.043-0.006c-0.313,0-0.627,0.004-0.941,0.016c-0.507,0.021-0.92,0.412-1.052,0.998
			l-1.18,5.229c-0.013,0.061-0.031,0.121-0.052,0.194l-0.119,0.401L6.297,12.93z M5.239,11.809l0.623-0.003l1.133-5.023
			c0.244-1.079,1.088-1.831,2.102-1.871c0.328-0.013,0.657-0.017,0.985-0.017l1.79,0.008l0.14,0.355
			c0.199,0.506,0.199,0.506,0.71,0.507h4.507c0.551,0,0.551,0,0.743-0.488l0.108-0.274L18.734,4.9l1.394-0.004l0.49,0.001
			c1.223,0.004,2.088,0.688,2.376,1.878c0.084,0.352,0.162,0.703,0.24,1.055l0.896,3.976h0.63l-0.245-1.074
			c-0.297-1.308-0.594-2.615-0.902-3.92c-0.406-1.72-1.422-2.521-3.197-2.522h-2.303l-0.136-0.365
			c-0.187-0.501-0.187-0.501-0.686-0.501l-2.297-0.001l-2.298,0.001c-0.495,0-0.495,0-0.682,0.503L11.878,4.29l-1.845-0.005
			c-0.28,0-0.56,0.002-0.84,0.008C7.918,4.319,6.843,5.14,6.519,6.334c-0.234,0.865-0.43,1.741-0.626,2.617L5.239,11.809z"/>
	</g>
</g>
<g id="VAlWc2_1_" display="none">
	<g display="inline">
		<path fill-rule="evenodd" clip-rule="evenodd" d="M3.77,14.995c0-3.791,0-7.581,0-11.372c0.001-1.156,0.519-1.668,1.685-1.668
			c4.148,0,8.296,0.007,12.444-0.005c1.134-0.002,2.096,0.379,2.894,1.171c1.411,1.4,2.818,2.805,4.218,4.219
			c0.768,0.777,1.131,1.726,1.131,2.817c-0.002,5.407,0,10.813-0.002,16.219c0,1.154-0.523,1.674-1.682,1.674
			c-6.338,0-12.677,0-19.015,0c-1.153,0-1.672-0.523-1.673-1.683C3.77,22.576,3.77,18.786,3.77,14.995z M24.256,11.271
			c-0.2,0-0.368,0-0.535,0c-1.771,0-3.542,0.002-5.312-0.001c-1.032-0.002-1.585-0.553-1.587-1.58c-0.003-1.786,0-3.572,0-5.358
			c0-0.164,0-0.328,0-0.483c-3.767,0-7.469,0-11.152,0c0,7.466,0,14.896,0,22.318c6.215,0,12.391,0,18.587,0
			C24.256,21.207,24.256,16.273,24.256,11.271z M18.72,3.896c0,1.912,0,3.704,0,5.492c1.816,0,3.596,0,5.478,0
			c-0.176-0.262-0.283-0.487-0.448-0.654c-1.453-1.468-2.914-2.929-4.382-4.382C19.2,4.186,18.977,4.074,18.72,3.896z"/>
		<path fill-rule="evenodd" clip-rule="evenodd" d="M10.699,20.727c1.121-1.951,2.195-3.958,2.855-6.155
			c0.075-0.251,0.083-0.552,0.026-0.81c-0.251-1.139-0.465-2.277-0.298-3.451c0.09-0.634,0.294-0.876,0.745-0.898
			c0.68-0.033,0.983,0.332,0.92,1.014c-0.109,1.187-0.184,2.376-0.27,3.565c-0.005,0.075,0.007,0.157,0.031,0.228
			c0.571,1.675,1.437,3.133,3.064,3.99c0.224,0.118,0.527,0.099,0.796,0.112c0.939,0.049,1.881,0.071,2.82,0.134
			c0.204,0.014,0.414,0.129,0.597,0.24c0.297,0.18,0.495,0.451,0.403,0.815c-0.101,0.403-0.28,0.817-0.772,0.794
			c-0.659-0.029-1.315-0.142-1.972-0.226c-0.104-0.014-0.216-0.05-0.306-0.105c-1.384-0.843-2.839-0.633-4.297-0.283
			c-0.918,0.22-1.831,0.458-2.736,0.722c-0.197,0.058-0.393,0.232-0.519,0.403c-0.596,0.811-1.136,1.666-1.761,2.452
			C9.739,23.634,9.314,23.9,8.923,24.17c-0.152,0.105-0.4,0.173-0.572,0.129c-0.88-0.219-1.042-0.51-0.685-1.224
			c0.555-1.106,1.518-1.778,2.57-2.343C10.338,20.679,10.495,20.727,10.699,20.727z M12.51,19.659
			c1.291-0.366,2.598-0.738,3.798-1.079c-0.689-0.897-1.401-1.826-2.062-2.685C13.689,17.104,13.096,18.391,12.51,19.659z
			 M8.407,23.344c0.072,0.059,0.145,0.118,0.217,0.177c0.542-0.657,1.083-1.312,1.625-1.969c-0.057-0.047-0.113-0.095-0.17-0.142
			C9.521,22.055,8.963,22.7,8.407,23.344z M21.695,19.638c0.011-0.083,0.021-0.166,0.031-0.249c-0.561-0.08-1.12-0.162-1.68-0.243
			c-0.01,0.058-0.02,0.115-0.029,0.172C20.577,19.426,21.135,19.532,21.695,19.638z M14.157,11.759
			c0.085-0.508,0.396-1.006,0.134-1.535c-0.045-0.001-0.09-0.004-0.134-0.005C14.157,10.733,14.157,11.246,14.157,11.759z"/>
	</g>
</g>
<g id="Nbvmtc_1_">
	<g>
		<g>
			<path fill-rule="evenodd" clip-rule="evenodd" d="M28.057,9.473c-0.434,0.385-0.866,0.772-1.254,1.119
				c-1.403-1.4-2.811-2.807-4.24-4.234c0.441-0.447,0.912-0.98,1.445-1.446c0.471-0.414,1.215-0.377,1.705,0.066
				c0.67,0.608,1.297,1.262,1.945,1.891c0.121,0.117,0.266,0.211,0.398,0.317C28.057,7.948,28.057,8.71,28.057,9.473z"/>
			<path fill-rule="evenodd" clip-rule="evenodd" d="M12.436,4.521c2.031,0,4.064-0.022,6.096,0.014
				c0.559,0.01,1.129,0.143,1.668,0.307c0.51,0.155,0.562,0.516,0.203,0.9c-0.098,0.104-0.213,0.194-0.301,0.304
				c-0.301,0.38-0.643,0.588-1.15,0.398c-0.17-0.063-0.379-0.024-0.568-0.024c-3.953-0.001-7.906-0.001-11.86,0
				c-1.722,0-2.666,0.953-2.666,2.687c0,3.937,0,7.875,0,11.812c0,1.688,0.968,2.655,2.657,2.655c3.953,0.001,7.904,0.002,11.857,0
				c1.66,0,2.633-0.971,2.637-2.627c0-0.19,0.035-0.389-0.006-0.57c-0.23-1.043,0.336-1.714,1.072-2.291
				c0.137-0.106,0.385-0.151,0.553-0.109c0.119,0.029,0.268,0.252,0.268,0.389c0,1.173,0.07,2.358-0.076,3.516
				c-0.256,2.036-2.018,3.567-4.061,3.582c-4.223,0.028-8.445,0.035-12.668-0.003c-2.252-0.019-4.111-1.904-4.125-4.159
				c-0.029-4.207-0.029-8.415,0-12.621c0.016-2.29,1.926-4.137,4.232-4.155C8.275,4.508,10.356,4.521,12.436,4.521z"/>
			<path fill-rule="evenodd" clip-rule="evenodd" d="M11.482,21.661c0-1.398-0.003-2.744,0.009-4.087
				c0.002-0.122,0.092-0.267,0.184-0.36c3.229-3.235,6.461-6.466,9.693-9.696c0.032-0.032,0.076-0.053,0.076-0.053
				c1.416,1.419,2.822,2.827,4.25,4.258c-0.059,0.063-0.16,0.18-0.27,0.29c-3.108,3.109-6.219,6.214-9.32,9.331
				c-0.23,0.232-0.459,0.33-0.788,0.326C14.063,21.65,12.811,21.661,11.482,21.661z M14.606,16.247
				c-0.416,0.428-0.818,0.903-1.283,1.302c-0.404,0.348-0.49,0.734-0.367,1.266c0.444,0,0.896,0,1.398,0c0,0.505,0,0.955,0,1.457
				c0.334-0.038,0.697,0.03,0.873-0.12c0.596-0.506,1.125-1.091,1.656-1.623C16.112,17.754,15.383,17.026,14.606,16.247z
				 M16.313,15.344c0.111-0.09,0.281-0.204,0.424-0.346c1.586-1.58,3.168-3.163,4.748-4.748c0.111-0.11,0.24-0.229,0.288-0.369
				c0.036-0.104-0.005-0.291-0.083-0.36c-0.08-0.07-0.254-0.071-0.371-0.042c-0.096,0.025-0.169,0.138-0.246,0.217
				c-1.629,1.626-3.257,3.254-4.883,4.882c-0.078,0.078-0.167,0.152-0.225,0.245C15.831,15.032,15.997,15.338,16.313,15.344z"/>
		</g>
	</g>
</g>
<g id="LYefXo_1_" display="none">
	<g display="inline">
		<path d="M17.176,10.119l-6.935-0.001c-0.764,0-1.152-0.393-1.155-1.169c-0.002-0.75-0.002-1.501,0-2.252
			c0.003-0.845,0.363-1.206,1.206-1.206L18.61,5.49l8.229,0.001c0.933,0,1.265,0.335,1.268,1.282l0,0.63
			c0.001,0.526,0.002,1.053-0.002,1.579c-0.006,0.743-0.4,1.136-1.139,1.136L17.176,10.119z M10.15,9.08
			c0.022,0,0.053,0.001,0.091,0.001l6.935,0.001l9.79-0.002c0.044,0,0.077-0.002,0.1-0.005c-0.001-0.021,0.001-0.055,0.002-0.103
			c0.004-0.522,0.003-1.045,0.002-1.568l0-0.63c0-0.114-0.005-0.188-0.01-0.237c-0.045-0.004-0.116-0.008-0.221-0.008L18.61,6.528
			l-8.319,0.001c-0.074,0-0.125,0.003-0.161,0.007c-0.004,0.037-0.007,0.089-0.007,0.166c-0.002,0.748-0.002,1.496,0,2.245
			c0,0.062,0.003,0.104,0.007,0.135C10.136,9.08,10.143,9.08,10.15,9.08z"/>
	</g>
	<g display="inline">
		<path d="M21.384,17.314l-11.152-0.002c-0.758,0-1.144-0.396-1.146-1.174c-0.002-0.75-0.002-1.501,0-2.252
			c0.003-0.841,0.366-1.2,1.213-1.2l3.564-0.001l7.496,0.001l2.743-0.001l2.743,0.001c0.906,0,1.259,0.349,1.262,1.243
			c0.002,0.751,0.004,1.502-0.002,2.254c-0.006,0.738-0.402,1.128-1.143,1.131H21.384z M10.149,16.273
			c0.021,0,0.049,0.001,0.083,0.001l11.152,0.002h5.576c0.046,0,0.081-0.003,0.105-0.006c-0.001-0.02,0.001-0.052,0.002-0.096
			c0.006-0.748,0.004-1.495,0.002-2.242c0-0.095-0.004-0.158-0.009-0.201c-0.044-0.004-0.112-0.008-0.217-0.008l-2.742-0.001
			l-7.861,0.001l-2.377-0.001L10.3,13.724c-0.079,0-0.133,0.003-0.169,0.007c-0.004,0.036-0.007,0.086-0.007,0.159
			c-0.002,0.748-0.002,1.496,0,2.245c0,0.063,0.004,0.109,0.008,0.14C10.136,16.273,10.142,16.273,10.149,16.273z"/>
	</g>
	<g display="inline">
		<path d="M18.599,24.509l-8.364-0.001c-0.759,0-1.146-0.394-1.148-1.173c-0.002-0.75-0.002-1.501,0-2.252
			c0.003-0.842,0.365-1.202,1.211-1.202l8.317-0.001l8.228,0.001c0.907,0,1.261,0.348,1.264,1.24
			c0.002,0.752,0.004,1.503-0.002,2.255c-0.006,0.741-0.402,1.132-1.143,1.132L18.599,24.509z M10.149,23.469
			c0.021,0,0.05,0.001,0.085,0.001l8.364,0.001l8.364-0.001c0.045,0,0.08-0.002,0.104-0.005c-0.001-0.02,0.001-0.053,0.002-0.099
			c0.006-0.748,0.004-1.494,0.002-2.243c0-0.092-0.004-0.155-0.008-0.197c-0.045-0.005-0.114-0.009-0.219-0.009l-8.228-0.001
			l-8.317,0.001c-0.077,0-0.131,0.003-0.167,0.007c-0.004,0.036-0.007,0.087-0.007,0.16c-0.002,0.749-0.002,1.498,0,2.246
			c0,0.064,0.003,0.108,0.008,0.139C10.136,23.469,10.143,23.469,10.149,23.469z"/>
	</g>
	<g display="inline">
		<path d="M5.115,11.018c-1.772,0-3.219-1.425-3.224-3.177C1.886,6.059,3.328,4.602,5.104,4.593c0.865,0,1.665,0.333,2.268,0.938
			C7.985,6.146,8.322,6.967,8.32,7.843c-0.002,1.712-1.463,3.166-3.19,3.175H5.115z M5.119,5.63
			C3.883,5.636,2.925,6.606,2.928,7.837C2.931,9,3.933,9.98,5.115,9.98v0.519L5.124,9.98c1.168-0.006,2.157-0.986,2.159-2.14
			c0.001-0.599-0.228-1.159-0.646-1.578C6.23,5.855,5.691,5.63,5.119,5.63z"/>
	</g>
	<g display="inline">
		<path d="M5.119,18.212h-0.02c-0.866-0.005-1.68-0.352-2.29-0.976c-0.604-0.618-0.931-1.428-0.918-2.281
			c0.029-1.747,1.473-3.168,3.221-3.168c0.87,0.005,1.671,0.344,2.277,0.958c0.605,0.613,0.936,1.419,0.931,2.271
			C8.308,16.779,6.872,18.212,5.119,18.212z M5.126,12.825c-1.199,0-2.178,0.964-2.198,2.147c-0.008,0.574,0.212,1.122,0.623,1.54
			c0.416,0.424,0.968,0.659,1.555,0.664l0.013,0.519v-0.519c1.165,0,2.156-0.992,2.164-2.166c0.003-0.574-0.222-1.12-0.632-1.535
			C6.24,13.059,5.699,12.828,5.126,12.825z"/>
	</g>
	<g display="inline">
		<path d="M5.116,25.407c-0.864,0-1.678-0.341-2.292-0.96c-0.609-0.616-0.94-1.425-0.932-2.28c0.017-1.755,1.463-3.183,3.224-3.184
			c1.765,0,3.202,1.439,3.205,3.21C8.32,23.935,6.853,25.407,5.116,25.407z M5.117,20.02c-1.195,0.001-2.177,0.969-2.188,2.157
			c-0.005,0.575,0.219,1.122,0.632,1.54c0.417,0.421,0.97,0.653,1.555,0.653c1.174,0,2.167-0.997,2.167-2.177
			C7.281,20.995,6.309,20.02,5.117,20.02z"/>
	</g>
</g>
</svg>
