<?xml version="1.0" encoding="utf-8"?>
<!-- Generator: Adobe Illustrator 16.0.0, SVG Export Plug-In . SVG Version: 6.00 Build 0)  -->
<!DOCTYPE svg PUBLIC "-//W3C//DTD SVG 1.1//EN" "http://www.w3.org/Graphics/SVG/1.1/DTD/svg11.dtd">
<svg version="1.1" id="Слой_1" xmlns="http://www.w3.org/2000/svg" xmlns:xlink="http://www.w3.org/1999/xlink" x="0px" y="0px"
	 width="13px" height="13px" viewBox="0 0 13 13" enable-background="new 0 0 13 13" xml:space="preserve">
<g>
	<path d="M6.4980469,0C2.9101563,0,0,2.9101563,0,6.5009766C0,10.0908203,2.9101563,13,6.4980469,13
		C10.0888672,13,13,10.0908203,13,6.5009766C13,2.9101563,10.0888672,0,6.4980469,0L6.4980469,0z M9.2919922,8.2607422
		L8.2578125,9.2949219c0,0-1.6367188-1.7578125-1.7597656-1.7578125c-0.1191406,0-1.7587891,1.7578125-1.7587891,1.7578125
		L3.7041016,8.2607422c0,0,1.7587891-1.6137695,1.7587891-1.7578125c0-0.1464844-1.7587891-1.7607422-1.7587891-1.7607422
		l1.0351563-1.0351563c0,0,1.6523438,1.7558594,1.7587891,1.7558594c0.1074219,0,1.7597656-1.7558594,1.7597656-1.7558594
		l1.0341797,1.0351563c0,0-1.7578125,1.6386719-1.7578125,1.7607422C7.5341797,6.6191406,9.2919922,8.2607422,9.2919922,8.2607422
		L9.2919922,8.2607422z M9.2919922,8.2607422"/>
</g>
<g>
</g>
<g>
</g>
<g>
</g>
<g>
</g>
<g>
</g>
<g>
</g>
</svg>
