<?xml version="1.0" encoding="utf-8"?>
<!-- Generator: Adobe Illustrator 16.0.0, SVG Export Plug-In . SVG Version: 6.00 Build 0)  -->
<!DOCTYPE svg PUBLIC "-//W3C//DTD SVG 1.1//EN" "http://www.w3.org/Graphics/SVG/1.1/DTD/svg11.dtd">
<svg version="1.1" id="Слой_1" xmlns="http://www.w3.org/2000/svg" xmlns:xlink="http://www.w3.org/1999/xlink" x="0px" y="0px"
	 width="18px" height="18px" viewBox="0 0 18 18" enable-background="new 0 0 18 18" xml:space="preserve">
<g>
	<g>
		<path fill="#D6D6D6" d="M17.7949219,16.8066406l-4.3916016-4.3925781c1.0898438-1.3125,1.7480469-2.9995117,1.7480469-4.8374023
			c0-4.1757813-3.3984375-7.5761719-7.5766602-7.5761719C3.3999023,0.0004883,0,3.4008789,0,7.5766602
			c0,4.1772461,3.3999023,7.5756836,7.574707,7.5756836c1.8383789,0,3.5258789-0.6582031,4.8383789-1.75l4.3945313,4.3945313
			C16.9414063,17.9316406,17.1201172,18,17.3007813,18c0.1796875,0,0.3564453-0.0683594,0.4941406-0.203125
			C18.0683594,17.5214844,18.0683594,17.0800781,17.7949219,16.8066406L17.7949219,16.8066406z M1.4003906,7.5766602
			c0-3.4052734,2.7705078-6.1757813,6.1743164-6.1757813c3.4086914,0,6.1772461,2.7705078,6.1772461,6.1757813
			c0,3.4057617-2.7685547,6.175293-6.1772461,6.175293C4.1708984,13.7519531,1.4003906,10.9824219,1.4003906,7.5766602
			L1.4003906,7.5766602z M1.4003906,7.5766602"/>
	</g>
</g>
</svg>
