<?xml version="1.0" encoding="utf-8"?>
<!-- Generator: Adobe Illustrator 16.0.0, SVG Export Plug-In . SVG Version: 6.00 Build 0)  -->
<!DOCTYPE svg PUBLIC "-//W3C//DTD SVG 1.1//EN" "http://www.w3.org/Graphics/SVG/1.1/DTD/svg11.dtd">
<svg version="1.1" id="Слой_1" xmlns="http://www.w3.org/2000/svg" xmlns:xlink="http://www.w3.org/1999/xlink" x="0px" y="0px"
	 width="48px" height="48px" viewBox="0 0 48 48" enable-background="new 0 0 48 48" xml:space="preserve">
<g>
	<path class="soc-icon-item" fill="#000000" d="M23.9990234,0C10.7441406,0,0,10.7451172,0,24c0,10.1679688,6.3251953,18.8525391,15.2524414,22.3496094
		c-0.2099609-1.8994141-0.3989258-4.8115234,0.0839844-6.8847656c0.4350586-1.8720703,2.8149414-11.9296875,2.8149414-11.9296875
		s-0.71875-1.4375-0.71875-3.5634766c0-3.3369141,1.9345703-5.8291016,4.3422852-5.8291016
		c2.0473633,0,3.0380859,1.5380859,3.0380859,3.3808594c0,2.0595703-1.3125,5.1376953-1.9882813,7.9912109
		c-0.565918,2.3896484,1.1972656,4.3378906,3.5541992,4.3378906c4.2646484,0,7.5439453-4.4980469,7.5439453-10.9912109
		c0-5.7460938-4.1279297-9.7646484-10.0258789-9.7646484c-6.8276367,0-10.8354492,5.1230469-10.8354492,10.4160156
		c0,2.0625,0.793457,4.2753906,1.7861328,5.4765625c0.1948242,0.2382813,0.2241211,0.4462891,0.1660156,0.6894531
		c-0.1826172,0.7578125-0.5878906,2.3876953-0.6665039,2.7207031c-0.1040039,0.4394531-0.3481445,0.5332031-0.8017578,0.3212891
		c-2.9985352-1.3955078-4.8725586-5.7773438-4.8725586-9.2978516c0-7.5703125,5.5009766-14.5234375,15.8579102-14.5234375
		c8.324707,0,14.7954102,5.9326172,14.7954102,13.8613281c0,8.2714844-5.2158203,14.9296875-12.453125,14.9296875
		c-2.4316406,0-4.7182617-1.2646484-5.5009766-2.7568359c0,0-1.2045898,4.5820313-1.4951172,5.7050781
		c-0.5419922,2.0849609-2.0058594,4.6972656-2.9838867,6.2919922C19.1396484,47.6259766,21.5258789,48,23.9990234,48
		C37.2539063,48,48,37.2558594,48,24C48,10.7451172,37.2539063,0,23.9990234,0z"/>
</g>
<g>
</g>
<g>
</g>
<g>
</g>
<g>
</g>
<g>
</g>
<g>
</g>
</svg>
