<?xml version="1.0" encoding="utf-8"?>
<!-- Generator: Adobe Illustrator 16.0.0, SVG Export Plug-In . SVG Version: 6.00 Build 0)  -->
<!DOCTYPE svg PUBLIC "-//W3C//DTD SVG 1.1//EN" "http://www.w3.org/Graphics/SVG/1.1/DTD/svg11.dtd">
<svg version="1.1" id="Слой_1" xmlns="http://www.w3.org/2000/svg" xmlns:xlink="http://www.w3.org/1999/xlink" x="0px" y="0px"
	 width="34px" height="28px" viewBox="0 0 34 28" enable-background="new 0 0 34 28" xml:space="preserve">
<path fill="#CCCCCC" d="M34,3.3139648c-1.2509766,0.5615234-2.5947266,0.9423828-4.0068359,1.112793
	c1.4404297-0.8740234,2.546875-2.2597656,3.0673828-3.9101563c-1.3457031,0.8095703-2.8398438,1.3984375-4.4287109,1.7158203
	C27.3603516,0.8574219,25.546875,0,23.5390625,0c-3.8525391,0-6.9746094,3.1640625-6.9746094,7.0678711
	c0,0.5541992,0.0625,1.0932617,0.1806641,1.6108398c-5.7978516-0.293457-10.9375-3.1088867-14.3779297-7.3847656
	C1.7666016,2.3388672,1.4238281,3.5527344,1.4238281,4.8481445c0,2.4516602,1.2314453,4.6147461,3.1025391,5.8823242
	c-1.1435547-0.0375977-2.21875-0.3544922-3.1591797-0.8837891C1.3662109,9.8769531,1.3662109,9.90625,1.3662109,9.9355469
	c0,3.4243164,2.4042969,6.28125,5.5947266,6.9306641c-0.5839844,0.1611328-1.2011719,0.2480469-1.8369141,0.2480469
	c-0.4501953,0-0.8857422-0.0439453-1.3125-0.1269531c0.8876953,2.8076172,3.4628906,4.8525391,6.515625,4.9091797
	c-2.3867188,1.8955078-5.3945313,3.0263672-8.6621094,3.0263672c-0.5634766,0-1.1181641-0.0332031-1.6650391-0.0986328
	C3.0878906,26.8291016,6.7539063,28,10.6933594,28c12.8300781,0,19.8466797-10.7714844,19.8466797-20.112793
	c0-0.3061523-0.0078125-0.6108398-0.0214844-0.9140625C31.8818359,5.9765625,33.0644531,4.7319336,34,3.3139648z"/>
<g>
</g>
<g>
</g>
<g>
</g>
<g>
</g>
<g>
</g>
<g>
</g>
</svg>
