<?xml version="1.0" encoding="utf-8"?>
<!-- Generator: Adobe Illustrator 16.0.0, SVG Export Plug-In . SVG Version: 6.00 Build 0)  -->
<!DOCTYPE svg PUBLIC "-//W3C//DTD SVG 1.1//EN" "http://www.w3.org/Graphics/SVG/1.1/DTD/svg11.dtd">
<svg version="1.1" id="Слой_1" xmlns="http://www.w3.org/2000/svg" xmlns:xlink="http://www.w3.org/1999/xlink" x="0px" y="0px"
	 width="48px" height="48px" viewBox="0 0 48 48" enable-background="new 0 0 48 48" xml:space="preserve">
<path fill="#000000" d="M42.2949219,0H5.7070313C2.5561523,0,0,2.5488281,0,5.6933594v36.6152344
	C0,45.4521484,2.5561523,48,5.7070313,48h36.5878906C45.4462891,48,48,45.4521484,48,42.3085938V5.6933594
	C48,2.5488281,45.4462891,0,42.2949219,0z M33.3427734,6.8095703c0-0.7402344,0.6025391-1.3388672,1.3427734-1.3388672h6.4902344
	c0.7402344,0,1.3427734,0.5986328,1.3427734,1.3388672v6.4746094c0,0.7402344-0.6025391,1.3388672-1.3427734,1.3388672h-6.4902344
	c-0.7402344,0-1.3427734-0.5986328-1.3427734-1.3388672V6.8095703z M24.0566406,14.8466797
	c5.0986328,0,9.2304688,4.1240234,9.2304688,9.2099609c0,5.0869141-4.1318359,9.2099609-9.2304688,9.2099609
	s-9.2314453-4.1230469-9.2314453-9.2099609C14.8251953,18.9707031,18.9580078,14.8466797,24.0566406,14.8466797z
	 M42.6298828,41.0810547c0,0.7382813-0.6015625,1.3388672-1.3417969,1.3388672H6.8256836
	c-0.7412109,0-1.3432617-0.6005859-1.3432617-1.3388672V20.2050781h4.4926758
	c-0.3383789,1.2265625-0.5205078,2.5185547-0.5205078,3.8515625c0,8.03125,6.5507813,14.5673828,14.6020508,14.5673828
	c8.0507813,0,14.6005859-6.5361328,14.6005859-14.5673828c0-1.3330078-0.1796875-2.625-0.5185547-3.8515625h4.4912109V41.0810547z"
	/>
<g>
</g>
<g>
</g>
<g>
</g>
<g>
</g>
<g>
</g>
<g>
</g>
</svg>
