<?xml version="1.0" encoding="utf-8"?>
<!-- Generator: Adobe Illustrator 16.0.0, SVG Export Plug-In . SVG Version: 6.00 Build 0)  -->
<!DOCTYPE svg PUBLIC "-//W3C//DTD SVG 1.1//EN" "http://www.w3.org/Graphics/SVG/1.1/DTD/svg11.dtd">
<svg version="1.1" id="Слой_1" xmlns="http://www.w3.org/2000/svg" xmlns:xlink="http://www.w3.org/1999/xlink" x="0px" y="0px"
	 width="31px" height="31px" viewBox="0 0 31 31" enable-background="new 0 0 31 31" xml:space="preserve">
<g>
	<g id="base_14_">
		<defs>
			<path id="SVGID_1_" d="M1.6318359,0h27.7363281C30.2695313,0,31,0.7304688,31,1.6318359v27.7373047
				C31,30.2685547,30.2695313,31,29.3681641,31H1.6318359C0.7304688,31,0,30.2685547,0,29.3691406V1.6318359
				C0,0.7304688,0.7304688,0,1.6318359,0L1.6318359,0z"/>
		</defs>
		<use xlink:href="#SVGID_1_"  overflow="visible" fill-rule="evenodd" clip-rule="evenodd" fill="#CCCCCC"/>
		<clipPath id="SVGID_2_">
			<use xlink:href="#SVGID_1_"  overflow="visible"/>
		</clipPath>
		
			<rect id="solid_14_" x="0.0039063" y="0.0009766" clip-path="url(#SVGID_2_)" fill="#CCCCCC" width="30.9960938" height="30.9960938"/>
	</g>
	<g opacity="0.8">
		<polygon points="27,14 24,14 24,12 21,12 21,14 19,14 19,15 21,15 21,18 24,18 24,15 27,15 		"/>
		<path d="M16.2939453,16.9121094l-0.9936523-0.7568359c-0.3032227-0.2441406-0.7124023-0.5703125-0.7124023-1.1660156
			c0-0.5976563,0.4091797-0.9775391,0.7695313-1.3320313c1.1533203-0.8916016,2.3095703-1.9628906,2.3095703-3.9658203
			C17.6669922,7.6289063,16.4140625,7,15.7822266,6h1.6298828l1.78125-0.9707031l-5.7363281,0.059082
			c-1.4873047,0-3.4912109,0.1831055-5.0600586,1.4575195c-1.1831055,1.0029297-1.5708008,2.4912109-1.5708008,3.7373047
			c0,2.1132813,1.6518555,4.2641602,4.5668945,4.2641602c0.2773438,0,0.5786133-0.0244141,0.8818359-0.0517578
			c-0.1376953,0.3261719-0.2758789,0.5991211-0.2758789,1.0600586c0,0.8408203,0.4389648,1.3554688,0.8251953,1.84375
			c-1.2363281,0.0820313-3.5493164,0.2167969-5.2558594,1.2480469c-1.6230469,0.9492188-2.1176758,2.3310547-2.1176758,3.3085938
			c0,2.0048828,1.847168,3.8964844,5.8378906,3.8964844c4.730957,0,7.3149414-2.5947266,7.3149414-5.1425781
			C18.6035156,18.8388672,17.5029297,17.9150391,16.2939453,16.9121094z M12.6879883,13.8632813
			c-2.3657227,0-3.4404297-3.0097656-3.4404297-4.8261719c0-0.7050781,0.1386719-1.5048828,0.6049805-2.0722656
			c0.4418945-0.5429688,1.2119141-0.8291016,1.9272461-0.8291016c2.2832031,0,3.4663086,3.0371094,3.4663086,4.9892578
			c0,0.4892578-0.0541992,1.2861328-0.6879883,1.9111328C14.1171875,13.4707031,13.375,13.8632813,12.6879883,13.8632813z
			 M12.7119141,24.6962891c-2.9428711,0-4.8422852-1.3837891-4.8422852-3.3085938s1.7597656-2.5751953,2.3657227-2.7929688
			c1.1538086-0.3798828,2.6416016-0.4355469,2.8896484-0.4355469c0.2749023,0,0.4116211,0,0.6318359,0.0283203
			c2.0927734,1.4658203,3,2.1953125,3,3.5810547C16.7568359,23.4462891,15.3525391,24.6962891,12.7119141,24.6962891z"/>
	</g>
</g>
<g>
</g>
<g>
</g>
<g>
</g>
<g>
</g>
<g>
</g>
<g>
</g>
</svg>
