<?xml version="1.0" encoding="utf-8"?>
<!-- Generator: Adobe Illustrator 16.0.0, SVG Export Plug-In . SVG Version: 6.00 Build 0)  -->
<!DOCTYPE svg PUBLIC "-//W3C//DTD SVG 1.1//EN" "http://www.w3.org/Graphics/SVG/1.1/DTD/svg11.dtd">
<svg version="1.1" id="Слой_1" xmlns="http://www.w3.org/2000/svg" xmlns:xlink="http://www.w3.org/1999/xlink" x="0px" y="0px"
	 width="32px" height="32px" viewBox="0 0 32 32" enable-background="new 0 0 32 32" xml:space="preserve">
<g>
	<g>
		<path fill="#CCCCCC" d="M15.9995117,0C7.1630859,0,0,7.1630859,0,15.9985352
			c0,6.7788086,4.2163086,12.5678711,10.168457,14.8999023c-0.1401367-1.2666016-0.265625-3.2080078,0.0551758-4.5898438
			c0.2910156-1.2490234,1.8769531-7.9521484,1.8769531-7.9521484s-0.4785156-0.9580078-0.4785156-2.3759766
			c0-2.2241211,1.2885742-3.8867188,2.8945313-3.8867188c1.3652344,0,2.0253906,1.0258789,2.0253906,2.2548828
			c0,1.3730469-0.8745117,3.4257813-1.3251953,5.3261719c-0.3774414,1.5927734,0.7973633,2.8916016,2.3691406,2.8916016
			c2.84375,0,5.0302734-2.9970703,5.0302734-7.3266602c0-3.8305664-2.7539063-6.5087891-6.6835938-6.5087891
			c-4.5537109,0-7.2260742,3.4145508-7.2260742,6.9443359c0,1.3735352,0.5302734,2.8481445,1.1918945,3.6499023
			c0.1298828,0.1601563,0.1494141,0.2988281,0.1103516,0.4599609c-0.1210938,0.5039063-0.3911133,1.5908203-0.4448242,1.8144531
			c-0.0693359,0.2919922-0.2314453,0.3544922-0.534668,0.2138672C7.0302734,20.8818359,5.78125,17.9589844,5.78125,15.6142578
			c0-5.0463867,3.6674805-9.6816406,10.5717773-9.6816406c5.5512695,0,9.862793,3.9541016,9.862793,9.2407227
			c0,5.5141602-3.4746094,9.9516602-8.3017578,9.9516602c-1.6206055,0-3.1445313-0.8427734-3.6660156-1.8369141
			c0,0-0.8027344,3.0556641-0.996582,3.8027344c-0.3623047,1.390625-1.3374023,3.1318359-1.9897461,4.1943359
			C12.7597656,31.75,14.3500977,32,15.9995117,32C24.8369141,32,32,24.8359375,32,15.9985352
			C32,7.1630859,24.8369141,0,15.9995117,0z"/>
	</g>
</g>
<g>
</g>
<g>
</g>
<g>
</g>
<g>
</g>
<g>
</g>
<g>
</g>
</svg>
