<?xml version="1.0" encoding="utf-8"?>
<!-- Generator: Adobe Illustrator 16.0.0, SVG Export Plug-In . SVG Version: 6.00 Build 0)  -->
<!DOCTYPE svg PUBLIC "-//W3C//DTD SVG 1.1//EN" "http://www.w3.org/Graphics/SVG/1.1/DTD/svg11.dtd">
<svg version="1.1" id="Слой_1" xmlns="http://www.w3.org/2000/svg" xmlns:xlink="http://www.w3.org/1999/xlink" x="0px" y="0px"
	 width="31px" height="32px" viewBox="0 0 31 32" enable-background="new 0 0 31 32" xml:space="preserve">
<path fill="#CCCCCC" d="M30.4492188,0H2.1079102C1.1362305,0,0,0.8173828,0,1.7875977v28.3413086
	C0,31.0996094,1.1362305,32,2.1079102,32H16V21h-4v-7h4v-2.8027344c0-4.1157227,3.0664063-6.355957,6.7373047-6.355957
	C24.4951172,4.8413086,27,4.9716797,27,5.0302734V9h-2.8867188C22.1171875,9,22,10.2807617,22,11.6733398V14h5.0917969l-0.6201172,7
	H22v11h8.4492188C31.4199219,32,31,31.0996094,31,30.1289063V1.7875977C31,0.8173828,31.4199219,0,30.4492188,0z"/>
<g>
</g>
<g>
</g>
<g>
</g>
<g>
</g>
<g>
</g>
<g>
</g>
</svg>
