<?xml version="1.0" encoding="utf-8"?>
<!-- Generator: Adobe Illustrator 16.0.0, SVG Export Plug-In . SVG Version: 6.00 Build 0)  -->
<!DOCTYPE svg PUBLIC "-//W3C//DTD SVG 1.1//EN" "http://www.w3.org/Graphics/SVG/1.1/DTD/svg11.dtd">
<svg version="1.1" id="Слой_1" xmlns="http://www.w3.org/2000/svg" xmlns:xlink="http://www.w3.org/1999/xlink" x="0px" y="0px"
	 width="48px" height="48px" viewBox="0 0 48 48" enable-background="new 0 0 48 48" xml:space="preserve">
<path fill="#000000" d="M48,9.0737305c-1.765625,0.7827148-3.6630859,1.3129883-5.6552734,1.5507813
	c2.0322266-1.2192383,3.59375-3.1484375,4.3300781-5.4487305c-1.9013672,1.1289063-4.0107422,1.9487305-6.2548828,2.3896484
	c-1.7949219-1.9135742-4.3544922-3.109375-7.1865234-3.109375c-5.4394531,0-9.8486328,4.409668-9.8486328,9.8476563
	c0,0.7719727,0.0878906,1.5234375,0.2543945,2.2441406C15.4545898,16.137207,8.1992188,12.2172852,3.3417969,6.2587891
	c-0.8481445,1.4545898-1.3325195,3.1464844-1.3325195,4.9511719c0,3.4160156,1.7373047,6.4301758,4.3813477,8.1967773
	c-1.6147461-0.0517578-3.1318359-0.4951172-4.4604492-1.2324219c-0.0019531,0.0415039-0.0019531,0.0825195-0.0019531,0.1235352
	c0,4.7719727,3.3950195,8.7519531,7.9003906,9.6572266c-0.8276367,0.2236328-1.6962891,0.3457031-2.5952148,0.3457031
	c-0.6342773,0-1.2504883-0.0625-1.8520508-0.1777344c1.2529297,3.9121094,4.8901367,6.7607422,9.199707,6.8388672
	c-3.3725586,2.6425781-7.6176758,4.2158203-12.2304688,4.2158203c-0.7958984,0-1.5791016-0.0458984-2.3505859-0.1367188
	c4.3579102,2.7939453,9.5351563,4.4238281,15.0957031,4.4238281c18.1142578,0,28.0185547-15.0068359,28.0185547-28.019043
	c0-0.4277344-0.0087891-0.8515625-0.0283203-1.2734375C45.0097656,12.7836914,46.6796875,11.0498047,48,9.0737305z"/>
<g>
</g>
<g>
</g>
<g>
</g>
<g>
</g>
<g>
</g>
<g>
</g>
</svg>
