<?xml version="1.0" encoding="utf-8"?>
<!-- Generator: Adobe Illustrator 16.0.0, SVG Export Plug-In . SVG Version: 6.00 Build 0)  -->
<!DOCTYPE svg PUBLIC "-//W3C//DTD SVG 1.1//EN" "http://www.w3.org/Graphics/SVG/1.1/DTD/svg11.dtd">
<svg version="1.1" id="Слой_1" xmlns="http://www.w3.org/2000/svg" xmlns:xlink="http://www.w3.org/1999/xlink" x="0px" y="0px"
	 width="63px" height="63px" viewBox="0 0 63 63" enable-background="new 0 0 63 63" xml:space="preserve">
<g>
	<circle fill="none" stroke="#00E2BC" stroke-miterlimit="10" cx="31.4707031" cy="31.7890625" r="30.5"/>
	<path fill="#00E2BC" d="M44.6582031,20.9882813l-3.4228516-3.4228516c-0.4248047-0.4243164-0.953125-0.6328125-1.5146484-0.6328125
		c-0.5625,0-1.1308594,0.2119141-1.515625,0.6328125l-2.2929688,2.2929688
		c-0.4570313-0.140625-0.9863281-0.0361328-1.3398438,0.2807617l-0.9863281,0.9863281
		c-0.3876953,0.3891602-0.4570313,0.9868164-0.2480469,1.4829102l-11.078125,11.078125
		C22.2236328,33.7226563,22.1875,33.7587891,22.1875,33.7910156v0.0361328
		c-0.0351563,0.0361328-0.0351563,0.0722656-0.0712891,0.1044922l-1.9726563,6l-0.2119141,0.6337891L19.71875,41.1992188
		c0,0.0351563,0,0.0712891-0.0351563,0.0712891c-0.0722656,0.3525391,0,0.6337891,0.1035156,0.8105469
		c0.0361328,0.0712891,0.0722656,0.1396484,0.1054688,0.1757813c0.2119141,0.2480469,0.5283203,0.3886719,0.8808594,0.3886719
		h0.2451172c0.0361328,0,0.0722656,0,0.0722656-0.0361328l0.8818359-0.2802734l6.3486328-2.0810547
		c0.1044922-0.0351563,0.1767578-0.0722656,0.2490234-0.140625l11.1103516-11.1103516
		c0.140625,0.0712891,0.28125,0.0712891,0.4580078,0.0712891c0.3525391,0,0.6689453-0.1396484,0.9169922-0.3886719
		l0.9863281-0.9863281c0.3886719-0.3886719,0.4570313-0.9174805,0.28125-1.375l2.2919922-2.2924805
		C45.5039063,23.2128906,45.5039063,21.8339844,44.6582031,20.9882813L44.6582031,20.9882813z M28.1845703,38.6972656
		l-1.7958984-1.7998047l10.5449219-10.5820313l1.8007813,1.7993164L28.1845703,38.6972656z M36.0166016,25.3974609
		L25.4707031,35.9794922l-1.7998047-1.8320313l10.5458984-10.5458984L36.0166016,25.3974609z M22.4003906,40.8134766
		l-0.8818359-0.8818359l1.515625-4.5859375l3.9521484,3.9521484L22.4003906,40.8134766z M40.3896484,27.5859375
		c-0.0361328-0.0361328-0.0361328-0.0722656-0.0722656-0.0722656l-5.4667969-5.5029297
		c-0.0722656-0.0712891-0.1044922-0.1044922-0.1767578-0.140625l0.7773438-0.8095703l0.0722656,0.0712891L41.0625,26.671875
		c0.0361328,0.0351563,0.0722656,0.0712891,0.1044922,0.0712891L40.3896484,27.5859375z M43.7402344,23.140625l-2.2207031,2.2207031
		l-4.6210938-4.6538086l2.2207031-2.2211914c0.3164063-0.3164063,0.8818359-0.3164063,1.1992188,0l3.421875,3.4199219
		C44.0576172,22.2587891,44.0576172,22.7880859,43.7402344,23.140625L43.7402344,23.140625z M43.7402344,23.140625"/>
</g>
<g>
</g>
<g>
</g>
<g>
</g>
<g>
</g>
<g>
</g>
<g>
</g>
</svg>
