<?xml version="1.0" encoding="utf-8"?>
<!-- Generator: Adobe Illustrator 16.0.0, SVG Export Plug-In . SVG Version: 6.00 Build 0)  -->
<!DOCTYPE svg PUBLIC "-//W3C//DTD SVG 1.1//EN" "http://www.w3.org/Graphics/SVG/1.1/DTD/svg11.dtd">
<svg version="1.1" id="Слой_1" xmlns="http://www.w3.org/2000/svg" xmlns:xlink="http://www.w3.org/1999/xlink" x="0px" y="0px"
	 width="20px" height="16px" viewBox="0 0 20 16" enable-background="new 0 0 20 16" xml:space="preserve">
<g>
	<path fill="#BABABA" d="M19.51,0.49C19.183,0.164,18.791,0,18.333,0H1.667C1.209,0,0.816,0.164,0.489,0.49
		C0.164,0.817,0,1.208,0,1.667v12.667c0,0.459,0.164,0.85,0.489,1.178C0.816,15.836,1.209,16,1.667,16h16.666
		c0.458,0,0.851-0.164,1.177-0.488c0.326-0.328,0.49-0.719,0.49-1.178V1.667C20,1.208,19.836,0.817,19.51,0.49L19.51,0.49z
		 M18.667,14.334c0,0.09-0.033,0.168-0.1,0.234c-0.066,0.064-0.145,0.098-0.234,0.098H1.667c-0.092,0-0.169-0.033-0.235-0.098
		c-0.066-0.066-0.099-0.145-0.099-0.234V1.667c0-0.09,0.032-0.168,0.099-0.234c0.066-0.066,0.143-0.099,0.235-0.099h16.666
		c0.092,0,0.168,0.032,0.234,0.099s0.1,0.145,0.1,0.234V14.334z M18.667,14.334"/>
	<path fill="#BABABA" d="M4.666,6.667c0.557,0,1.029-0.194,1.419-0.583c0.388-0.39,0.583-0.861,0.583-1.416
		c0-0.556-0.195-1.027-0.583-1.417c-0.39-0.389-0.862-0.584-1.419-0.584c-0.554,0-1.026,0.195-1.416,0.584
		C2.861,3.64,2.666,4.112,2.666,4.667c0,0.555,0.195,1.027,0.584,1.416C3.639,6.472,4.112,6.667,4.666,6.667L4.666,6.667z
		 M4.666,6.667"/>
	<path fill="#BABABA" d="M7.666,9.666L6.001,8.001l-3.335,3.333v2h14.667V8.667L13,4.333L7.666,9.666z M7.666,9.666"/>
</g>
</svg>
