<?xml version="1.0" encoding="utf-8"?>
<!-- Generator: Adobe Illustrator 16.0.0, SVG Export Plug-In . SVG Version: 6.00 Build 0)  -->
<!DOCTYPE svg PUBLIC "-//W3C//DTD SVG 1.1//EN" "http://www.w3.org/Graphics/SVG/1.1/DTD/svg11.dtd">
<svg version="1.1" id="Слой_1" xmlns="http://www.w3.org/2000/svg" xmlns:xlink="http://www.w3.org/1999/xlink" x="0px" y="0px"
	 width="78px" height="58px" viewBox="0 0 78 58" enable-background="new 0 0 78 58" xml:space="preserve">
<g>
	<path d="M74.605,32.309c-2.261-2.829-5.151-4.665-8.675-5.502c1.113-1.68,1.669-3.55,1.669-5.607c0-2.87-1.018-5.322-3.049-7.353
		c-2.03-2.031-4.482-3.046-7.353-3.046c-2.574,0-4.82,0.838-6.742,2.518c-1.598-3.9-4.151-7.026-7.659-9.383
		C39.291,1.578,35.425,0.4,31.201,0.4c-5.745,0-10.646,2.033-14.708,6.094c-4.062,4.061-6.092,8.965-6.092,14.706
		c0,0.354,0.027,0.935,0.08,1.749c-3.195,1.487-5.74,3.723-7.637,6.703C0.947,32.629,0,35.879,0,39.398
		c0,5.012,1.782,9.299,5.342,12.857c3.562,3.563,7.847,5.344,12.857,5.344h44.203c4.304,0,7.979-1.523,11.029-4.572
		C76.476,49.982,78,46.307,78,41.998C78,38.371,76.867,35.139,74.605,32.309L74.605,32.309z M51.613,31.213
		c-0.258,0.258-0.563,0.385-0.913,0.385h-9.102v14.301c0,0.352-0.129,0.658-0.384,0.914c-0.259,0.258-0.563,0.387-0.916,0.387h-7.8
		c-0.351,0-0.655-0.129-0.914-0.387c-0.258-0.256-0.387-0.563-0.387-0.914V31.598H22.1c-0.38,0-0.691-0.121-0.935-0.363
		c-0.244-0.246-0.366-0.557-0.366-0.934c0-0.328,0.137-0.65,0.407-0.977l14.257-14.257c0.246-0.247,0.558-0.369,0.935-0.369
		c0.38,0,0.691,0.122,0.935,0.369l14.3,14.299c0.246,0.244,0.364,0.555,0.364,0.935C51.997,30.652,51.871,30.957,51.613,31.213
		L51.613,31.213z M51.613,31.213"/>
</g>
</svg>
