<?xml version="1.0" encoding="utf-8"?>
<!-- Generator: Adobe Illustrator 16.0.0, SVG Export Plug-In . SVG Version: 6.00 Build 0)  -->
<!DOCTYPE svg PUBLIC "-//W3C//DTD SVG 1.1//EN" "http://www.w3.org/Graphics/SVG/1.1/DTD/svg11.dtd">
<svg version="1.1" id="Слой_1" xmlns="http://www.w3.org/2000/svg" xmlns:xlink="http://www.w3.org/1999/xlink" x="0px" y="0px"
	 width="46px" height="14px" viewBox="0 0 46 14" enable-background="new 0 0 46 14" xml:space="preserve">
<polygon fill-rule="evenodd" clip-rule="evenodd" fill="#DCDCDC" points="16.1953125,13.7939453 18.5322266,0.2246094 
	22.2646484,0.2246094 19.9277344,13.7939453 16.1953125,13.7939453 "/>
<path fill-rule="evenodd" clip-rule="evenodd" fill="#DCDCDC" d="M33.4443359,0.5615234
	C32.7099609,0.2988281,31.5410156,0,30.1074219,0c-3.6943359,0-6.2773438,1.8339844-6.2958984,4.4726563
	c-0.0195313,1.9472656,1.8466797,3.0322266,3.2607422,3.6865234c1.4511719,0.6748047,1.9423828,1.0859375,1.9238281,1.6855469
	c0,0.9169922-1.1503906,1.328125-2.2255859,1.328125c-1.4882813,0-2.2802734-0.2060547-3.5058594-0.7109375l-0.4902344-0.2236328
	l-0.5097656,3.03125C23.1328125,13.6621094,24.734375,13.9804688,26.4130859,14
	c3.9208984,0,6.4472656-1.8164063,6.4853516-4.6425781c0.0175781-1.5341797-0.9814453-2.7138672-3.1298828-3.6865234
	c-1.3017578-0.6181641-2.0927734-1.0292969-2.0927734-1.6660156c0-0.5800781,0.6787109-1.1787109,2.1298828-1.1787109
	c1.2255859-0.0195313,2.1113281,0.2431641,2.7900391,0.5234375L32.9355469,3.5L33.4443359,0.5615234L33.4443359,0.5615234z"/>
<path fill-rule="evenodd" clip-rule="evenodd" fill="#DCDCDC" d="M43.0029297,0.2431641h-2.8847656
	c-0.8857422,0-1.5654297,0.2431641-1.9599609,1.1230469L32.6337891,13.8125h3.9023438c0,0,0.6416016-1.6855469,0.7919922-2.0400391
	c0.4335938,0,4.2226563,0,4.7695313,0c0.1132813,0.4677734,0.4521484,2.0400391,0.4521484,2.0400391H46L43.0029297,0.2431641
	L43.0029297,0.2431641z M38.4023438,8.9833984c0.3017578-0.7675781,1.4892578-3.7802734,1.4892578-3.7802734
	c-0.0371094,0.0371094,0.3017578-0.7861328,0.4902344-1.2919922l0.2451172,1.1611328c0,0,0.7167969,3.2382813,0.8681641,3.9111328
	H38.4023438L38.4023438,8.9833984z"/>
<path fill-rule="evenodd" clip-rule="evenodd" fill="#DCDCDC" d="M13.0849609,0.2431641L9.4267578,9.4892578L9.0498047,7.6171875
	C8.3720703,5.4462891,6.2402344,3.1064453,3.8847656,1.9277344l3.3359375,11.8662109h3.9404297l5.8632813-13.5507813H13.0849609
	L13.0849609,0.2431641z"/>
<path fill-rule="evenodd" clip-rule="evenodd" fill="#DCDCDC" d="M0,0.5234375
	c4.6572266,1.1230469,7.7675781,3.8369141,9.0498047,7.09375L7.7304688,1.3847656
	C7.5039063,0.5234375,6.8623047,0.2617188,6.0517578,0.2246094l0,0H0.0390625L0,0.5234375"/>
<g>
</g>
<g>
</g>
<g>
</g>
<g>
</g>
<g>
</g>
<g>
</g>
</svg>
